<?xml version="1.0" standalone="no"?>
<!DOCTYPE svg PUBLIC "-//W3C//DTD SVG 1.1//EN" "http://www.w3.org/Graphics/SVG/1.1/DTD/svg11.dtd" >
<svg xmlns="http://www.w3.org/2000/svg" xmlns:xlink="http://www.w3.org/1999/xlink" version="1.1">
<metadata>
Created by FontForge 20161003 at Mon Mar 25 15:26:26 2019
 By www-data
Steve Gardner (explogos)
</metadata>
<defs>
<font id="QarantaBold" horiz-adv-x="1616" >
  <font-face 
    font-family="QarantaBold"
    font-weight="400"
    font-stretch="normal"
    units-per-em="2048"
    panose-1="2 0 5 0 0 0 0 0 0 0"
    ascent="1638"
    descent="-410"
    x-height="979"
    cap-height="1262"
    bbox="-674 -680 5934 2046"
    underline-thickness="0"
    underline-position="0"
    unicode-range="U+0020-FB06"
  />
<missing-glyph horiz-adv-x="1474" 
d="M240 1263v-1263h1234v1263h-1234z" />
    <glyph glyph-name=".notdef" horiz-adv-x="1474" 
d="M240 1263v-1263h1234v1263h-1234z" />
    <glyph glyph-name=".null" horiz-adv-x="0" 
 />
    <glyph glyph-name="nonmarkingreturn" horiz-adv-x="682" 
 />
    <glyph glyph-name="space" unicode=" " horiz-adv-x="1000" 
 />
    <glyph glyph-name="exclam" unicode="!" horiz-adv-x="956" 
d="M891 283h-329v-283h329v283zM550 1262v-283l66 -550h220l66 550v283h-352z" />
    <glyph glyph-name="quotedbl" unicode="&#x22;" horiz-adv-x="1183" 
d="M376 1529l62 -629h217l68 629h-347zM791 1529l62 -629h217l67 629h-346z" />
    <glyph glyph-name="numbersign" unicode="#" horiz-adv-x="1338" 
d="M821 532h-212l35 198h212zM680 935l58 327h-204l-58 -327h-225l-36 -205h225l-35 -198h-225l-36 -204h225l-58 -328h204l58 328h212l-58 -328h204l58 328h193l36 204h-193l35 198h193l36 205h-193l58 327h-204l-58 -327h-212z" />
    <glyph glyph-name="dollar" unicode="$" horiz-adv-x="1808" 
d="M797 1262h-197q-187 0 -296 -109q-114 -113 -114 -269q0 -160 114 -275t296 -115h728q46 0 77 -33q32 -32 32 -77t-33 -78t-81 -33h-1022l-95 -273h591v-200h344v200h195q186 0 304 120q117 119 117 284q0 158 -117 277q-114 115 -304 115h-694q-42 0 -74 29
q-28 31 -29 66q1 42 29 70q29 29 69 29h937l95 272h-528v200h-344v-200z" />
    <glyph glyph-name="percent" unicode="%" horiz-adv-x="2042" 
d="M1686 1262h-270l-952 -1262h270zM152 964v-80q0 -140 79 -219q84 -78 255 -78h89q172 0 253 78q80 80 80 219v80q0 143 -80 220q-81 78 -253 78h-89q-171 0 -255 -78q-79 -78 -79 -220zM370 886v91q0 57 25 85q26 26 99 26h72q74 0 98 -26q26 -26 26 -85v-91
q0 -59 -26 -85q-23 -26 -98 -26h-72q-70 0 -99 26q-25 31 -25 85zM1230 377v-80q0 -140 79 -219q84 -78 255 -78h89q172 0 253 78q80 80 80 219v80q0 143 -80 220q-81 78 -253 78h-89q-171 0 -255 -78q-79 -78 -79 -220zM1448 287v91q0 57 25 85q26 26 99 26h72q74 0 98 -26
q26 -26 26 -85v-91q0 -59 -26 -85q-23 -26 -98 -26h-72q-70 0 -99 26q-25 31 -25 85z" />
    <glyph glyph-name="ampersand" unicode="&#x26;" horiz-adv-x="1943" 
d="M568 305q-38 41 -38 92q0 50 38 91q40 37 100 37h739v-129q0 -54 -37 -91q-39 -39 -106 -39h-596q-61 0 -100 39zM202 346q0 -139 98 -243q103 -103 264 -103h741q162 0 284 110q121 109 121 256v159h158l80 238h-1220q-55 1 -94 37q-34 38 -36 87q2 51 36 85
q35 35 94 35h701l88 255h-873q-161 0 -264 -100q-98 -101 -98 -238q0 -139 98 -243q8 -8 23 -20q-86 -61 -103 -78q-98 -101 -98 -237z" />
    <glyph glyph-name="quotesingle" unicode="'" horiz-adv-x="772" 
d="M380 1529l62 -629h217l68 629h-347z" />
    <glyph glyph-name="parenleft" unicode="(" horiz-adv-x="1082" 
d="M1164 -449v285h-39q-92 2 -151 52t-59 134v774q3 84 59 137q61 52 151 52h39v277h-96q-214 0 -342 -125q-126 -125 -126 -295v-871q0 -166 127 -293q130 -127 341 -127h96z" />
    <glyph glyph-name="parenright" unicode=")" horiz-adv-x="1124" 
d="M368 1262v-285h39q92 -2 151 -52t59 -134v-774q-3 -84 -59 -137q-61 -52 -151 -52h-39v-277h96q214 0 342 125q126 125 126 295v871q0 166 -127 293q-130 127 -341 127h-96z" />
    <glyph glyph-name="asterisk" unicode="*" horiz-adv-x="1362" 
d="M741 1262v-168l47 -197l-149 139l-146 84l-103 -177l147 -83l188 -56l-188 -53l-146 -86l104 -177l144 83l148 139l-46 -197v-169h205v169l-49 193l145 -137l145 -85l102 177l-146 84l-195 59l195 59l147 85l-103 178l-145 -86l-145 -138l49 192v168h-205z" />
    <glyph glyph-name="plus" unicode="+" horiz-adv-x="1600" 
d="M1123 496h417v260h-417v369h-260v-369h-417v-260h417v-360h260v360z" />
    <glyph glyph-name="comma" unicode="," horiz-adv-x="847" 
d="M766 283h-329v-283h169v-50q0 -26 -20 -46t-54 -20h-88l-48 -148h121q122 0 185 60q64 60 64 184v303z" />
    <glyph glyph-name="hyphen" unicode="-" horiz-adv-x="1274" 
d="M1232 353v273h-746v-273h746z" />
    <glyph glyph-name="period" unicode="." horiz-adv-x="815" 
d="M767 283h-329v-283h329v283z" />
    <glyph glyph-name="slash" unicode="/" horiz-adv-x="1411" 
d="M1228 1262h-299l-989 -1710h299z" />
    <glyph glyph-name="zero" unicode="0" horiz-adv-x="1932" 
d="M440 842v-422q0 -166 127 -293q130 -127 341 -127h585q214 0 341 127q127 126 127 290v428q0 169 -126 292q-125 125 -342 125h-585q-214 0 -342 -125q-126 -125 -126 -295zM1406 285h-409q-90 0 -151 52q-59 50 -59 134v325q3 84 59 137q61 52 151 52h409q93 0 151 -52
q57 -50 59 -137v-322q0 -87 -59 -137q-56 -50 -151 -52z" />
    <glyph glyph-name="one" unicode="1" horiz-adv-x="1106" 
d="M291 814l353 106v-920h344v1262h-224l-568 -175z" />
    <glyph glyph-name="two" unicode="2" horiz-adv-x="1850" 
d="M844 476h620q184 0 300 116q117 117 117 293q0 149 -114 263t-303 114h-936l-94 -277h976q52 0 85 -33q33 -31 33 -77t-33 -79q-34 -34 -85 -34h-609q-167 0 -292 -113q-122 -112 -127 -278v-371h1419l95 283h-1170v81q1 50 36 79q34 33 82 33z" />
    <glyph glyph-name="three" unicode="3" horiz-adv-x="1753" 
d="M362 1262l-92 -272h934q57 0 90 -34q34 -33 34 -81q0 -49 -34 -83t-90 -35h-484l-91 -233h616q58 0 91 -34q35 -33 35 -82q0 -46 -35 -84q-33 -35 -91 -36h-896l-93 -288h1094q161 0 263 103q102 102 102 240q0 141 -100 240q-34 34 -76 55q30 21 52 43q100 100 100 241
t-102 240q-100 100 -263 100h-964z" />
    <glyph glyph-name="four" unicode="4" horiz-adv-x="1890" 
d="M1725 476v786h-467l-910 -706v-355h1032v-201h345v201h207v275h-207zM702 476l678 494v-494h-678z" />
    <glyph glyph-name="five" unicode="5" horiz-adv-x="1809" 
d="M775 814v172h931l95 276h-1370v-729h956q58 0 94 -36q35 -35 35 -86t-35 -86q-37 -37 -94 -37h-890l-95 -288h1027q192 0 312 122q120 123 120 288q0 164 -120 284q-122 119 -312 119z" />
    <glyph glyph-name="six" unicode="6" horiz-adv-x="1854" 
d="M1484 285h-584q-50 1 -83 31q-30 33 -30 72v102h697q50 0 79 -29q30 -31 30 -72q0 -40 -30 -73q-29 -30 -79 -31zM787 766v44q0 76 50 124q51 51 146 51h760l95 277h-933q-214 0 -339 -125q-126 -126 -126 -296v-421q0 -166 127 -293q130 -127 341 -127h620
q182 0 295 117q115 115 115 272q0 154 -115 266q-114 111 -295 111h-741z" />
    <glyph glyph-name="seven" unicode="7" horiz-adv-x="1680" 
d="M1193 986l-797 -986h434l844 1052v210h-1395l-95 -276h1009z" />
    <glyph glyph-name="eight" unicode="8" horiz-adv-x="1861" 
d="M1383 764h-476q-53 1 -90 35q-32 35 -34 83q2 49 34 81q34 34 90 34h476q57 0 90 -34q34 -33 34 -81q0 -49 -34 -83t-90 -35zM1424 281h-556q-55 1 -91 36q-32 35 -34 84q1 49 34 82q34 34 91 34h556q58 0 91 -34q35 -32 35 -82q0 -49 -35 -84q-33 -35 -91 -36z
M1505 1262h-721q-161 0 -264 -100q-98 -101 -98 -238q0 -139 98 -243q28 -25 51 -41q-41 -22 -75 -57q-98 -101 -98 -237q0 -139 98 -243q103 -103 264 -103h769q161 0 264 103q101 104 101 243t-101 237q-35 35 -75 55q34 26 51 43q100 97 100 243q0 138 -100 238t-264 100
z" />
    <glyph glyph-name="nine" unicode="9" horiz-adv-x="1832" 
d="M1455 496v-47q0 -71 -50 -121q-49 -49 -146 -51h-761l-94 -277h930q214 0 342 125q126 126 126 292v424q0 168 -127 294q-126 127 -338 127h-624q-181 0 -295 -117q-114 -114 -114 -272q0 -153 114 -266q112 -111 295 -111h742zM758 976h584q52 0 83 -31q30 -31 30 -72
v-102h-697q-47 0 -79 29q-30 33 -30 72q0 42 30 73q31 31 79 31z" />
    <glyph glyph-name="colon" unicode=":" horiz-adv-x="624" 
d="M561 283h-329v-283h329v283zM561 979h-329v-282h329v282z" />
    <glyph glyph-name="semicolon" unicode=";" horiz-adv-x="631" 
d="M520 283h-329v-283h169v-50q0 -26 -20 -46t-54 -20h-88l-48 -148h121q122 0 185 60q64 60 64 184v303zM520 979h-329v-282h329v282z" />
    <glyph glyph-name="less" unicode="&#x3c;" horiz-adv-x="1343" 
d="M236 62l1096 411v317l-1096 412v-324l778 -245l-778 -247v-324z" />
    <glyph glyph-name="equal" unicode="=" horiz-adv-x="1387" 
d="M1362 712v260h-1096v-260h1096zM1362 292v260h-1096v-260h1096z" />
    <glyph glyph-name="greater" unicode="&#x3e;" horiz-adv-x="1383" 
d="M1288 1202l-1102 -411v-317l1102 -412v324l-784 245l784 247v324z" />
    <glyph glyph-name="question" unicode="?" horiz-adv-x="1434" 
d="M639 283h-329v-283h329v283zM714 573h247q162 0 263 101q103 103 103 257q0 130 -100 230q-101 101 -266 101h-857l-82 -243h886q46 0 75 -29q29 -27 29 -67t-29 -69q-30 -30 -75 -30h-261q-169 0 -248 -87q-79 -85 -79 -246v-62h309v45q0 45 20 71q22 28 65 28z" />
    <glyph glyph-name="at" unicode="@" horiz-adv-x="2047" 
d="M1367 786v-309h-395q-49 0 -84 29q-32 29 -32 77v98q0 48 32 77q31 28 82 28h397zM1791 477h-193v502h-180l-35 -87q-63 87 -161 87h-315q-116 0 -200 -78q-87 -78 -87 -184v-174q0 -105 87 -184q87 -78 202 -78h313q96 0 161 87l35 -87h571v564q0 169 -126 292
q-125 125 -342 125h-769q-214 0 -342 -125q-126 -125 -126 -295v-422q0 -166 127 -293q130 -127 341 -127h1092l66 196h-1161q-113 0 -191 66q-74 63 -74 169v410q4 109 74 174q74 66 191 66h776q117 0 191 -66q74 -63 75 -174v-364z" />
    <glyph glyph-name="A" unicode="A" horiz-adv-x="1892" 
d="M498 186h886l109 -186h399l-755 1262h-382l-755 -1262h390zM1246 419h-609l304 515z" />
    <glyph glyph-name="B" unicode="B" horiz-adv-x="1874" 
d="M644 271v247h789q56 0 92 -36q37 -36 37 -86q0 -51 -37 -88q-35 -35 -95 -37h-786zM644 752v245h706q56 0 90 -37q36 -34 36 -84t-36 -87q-37 -37 -93 -37h-703zM1736 687q99 99 99 238q0 138 -100 237q-100 100 -259 100h-1176v-1262h1243q166 2 268 104
q103 106 103 248q0 141 -103 243q-42 45 -100 68q15 20 25 24z" />
    <glyph glyph-name="C" unicode="C" horiz-adv-x="1700" 
d="M1637 0l93 285h-954q-92 2 -151 52q-59 51 -59 137v320q0 86 58 138q62 53 152 53h861l93 277h-1042q-214 0 -342 -125q-126 -125 -126 -295v-422q0 -166 127 -293q130 -127 341 -127h949z" />
    <glyph glyph-name="D" unicode="D" horiz-adv-x="1929" 
d="M300 1262v-1262h1211q215 0 342 127q126 126 126 290v428q0 169 -126 292q-125 125 -342 125h-1211zM645 285v700h778q93 0 152 -53q59 -50 59 -138v-320q0 -86 -60 -137q-56 -50 -151 -52h-778z" />
    <glyph glyph-name="E" unicode="E" horiz-adv-x="1668" 
d="M1658 764h-1014v217h1000l94 281h-1438v-1262h1344l94 281h-1094v226h928z" />
    <glyph glyph-name="F" unicode="F" horiz-adv-x="1639" 
d="M1566 735h-921v246h990l94 281h-1429v-1262h345v454h827z" />
    <glyph glyph-name="G" unicode="G" horiz-adv-x="1913" 
d="M220 842v-422q0 -166 127 -293q130 -127 341 -127h829q170 3 288 109q118 105 118 255v397h-689l-83 -252h427v-89q0 -73 -31 -104q-28 -30 -112 -31h-659q-92 2 -151 52q-59 51 -59 137v321q0 86 58 138q59 53 145 53h1001l93 276h-1175q-214 0 -342 -125
q-126 -125 -126 -295z" />
    <glyph glyph-name="H" unicode="H" horiz-adv-x="1913" 
d="M1913 1262h-344v-472h-925v472h-344v-1262h344v509h925v-509h344v1262z" />
    <glyph glyph-name="I" unicode="I" horiz-adv-x="644" 
d="M644 1262h-344v-1262h344v1262z" />
    <glyph glyph-name="J" unicode="J" horiz-adv-x="1194" 
d="M1064 1262h-344v-829q0 -67 -41 -108q-40 -40 -122 -40h-458l-99 -285h659q172 3 287 109q118 105 118 257v896z" />
    <glyph glyph-name="K" unicode="K" horiz-adv-x="1687" 
d="M1050 670l719 592h-474l-651 -543v543h-344v-1262h344v608l717 -608h476z" />
    <glyph glyph-name="L" unicode="L" horiz-adv-x="1560" 
d="M1670 285h-1025v977h-345v-1262h1273z" />
    <glyph glyph-name="M" unicode="M" horiz-adv-x="2143" 
d="M1366 19l433 714v-733h344v1262h-344l-573 -931l-572 931h-354v-1262h335v733l434 -714h297z" />
    <glyph glyph-name="N" unicode="N" horiz-adv-x="1895" 
d="M1895 0v1262h-348v-826l-900 826h-347v-1262h347v823l900 -823h348z" />
    <glyph glyph-name="O" unicode="O" horiz-adv-x="1925" 
d="M220 842v-422q0 -166 127 -293q130 -127 341 -127h769q214 0 341 127q127 126 127 290v428q0 169 -126 292q-125 125 -342 125h-769q-214 0 -342 -125q-126 -125 -126 -295zM1369 285h-592q-90 0 -151 52q-59 50 -59 134v325q3 87 59 138q58 52 151 52h592q94 0 152 -52
q58 -50 59 -138v-322q0 -87 -59 -137q-57 -51 -152 -52z" />
    <glyph glyph-name="P" unicode="P" horiz-adv-x="1782" 
d="M645 674v307h707q72 0 115 -45q45 -45 45 -107q0 -63 -45 -109q-46 -46 -118 -46h-704zM1391 1262h-1091v-1262h345v394h746q203 0 333 130q128 131 128 308q0 175 -128 303q-127 127 -333 127z" />
    <glyph glyph-name="Q" unicode="Q" horiz-adv-x="1925" 
d="M1123 0l96 -151h373l-99 152q190 11 305 126q127 126 127 290v428q0 169 -126 292q-125 125 -342 125h-769q-214 0 -342 -125q-126 -125 -126 -295v-422q0 -166 127 -293q130 -127 341 -127h435zM1313 283l-84 136h-373l88 -136h-170q-93 0 -151 51q-59 51 -59 138v327
q3 88 59 138q60 51 151 51h598q92 0 151 -51t60 -138v-327q0 -87 -60 -138q-57 -51 -151 -51h-59z" />
    <glyph glyph-name="R" unicode="R" horiz-adv-x="1845" 
d="M1465 1262h-1165v-1262h347v981h764q61 0 98 -39q38 -38 38 -93q0 -54 -39 -93q-40 -40 -100 -40h-709l724 -716h472l-510 464h83q186 0 303 119q118 121 118 283q0 161 -118 279q-117 117 -306 117z" />
    <glyph glyph-name="S" unicode="S" horiz-adv-x="1737" 
d="M590 494h728q46 0 77 -33q32 -32 32 -77t-33 -78t-81 -33h-1022l-95 -273h1130q186 0 304 120q117 119 117 284q0 158 -117 277q-114 115 -304 115h-694q-42 0 -74 29q-28 31 -29 66q1 42 29 70q29 29 69 29h937l95 272h-1069q-187 0 -296 -109q-114 -113 -114 -269
q0 -160 114 -275t296 -115z" />
    <glyph glyph-name="T" unicode="T" horiz-adv-x="1781" 
d="M798 0h345v988h555l93 274h-1518l-93 -274h618v-988z" />
    <glyph glyph-name="U" unicode="U" horiz-adv-x="1788" 
d="M1788 1262h-345v-791q0 -84 -59 -134q-58 -52 -151 -52h-416q-90 0 -151 52q-59 50 -59 134v791h-347v-842q0 -166 127 -293q130 -127 341 -127h592q214 0 341 127t127 293v842z" />
    <glyph glyph-name="V" unicode="V" horiz-adv-x="1786" 
d="M1397 1262l-499 -934l-499 934h-399l702 -1262h383l701 1262h-389z" />
    <glyph glyph-name="W" unicode="W" horiz-adv-x="2570" 
d="M1834 390l-372 840h-344l-373 -840l-372 872h-373l562 -1262h343l376 849l386 -849h344l559 1262h-363z" />
    <glyph glyph-name="X" unicode="X" horiz-adv-x="1895" 
d="M1249 658l578 604h-483l-399 -437l-393 437h-484l578 -604l-646 -658h481l464 488l470 -488h480z" />
    <glyph glyph-name="Y" unicode="Y" horiz-adv-x="1834" 
d="M1089 438l745 824h-461l-456 -531l-455 531h-462l745 -824v-438h344v438z" />
    <glyph glyph-name="Z" unicode="Z" horiz-adv-x="1645" 
d="M1550 0l95 281h-932l863 752v229h-1301l-95 -281h864l-864 -752v-229h1370z" />
    <glyph glyph-name="bracketleft" unicode="[" horiz-adv-x="784" 
d="M804 -449v273h-249v1166h249v272h-564v-1711h564z" />
    <glyph glyph-name="backslash" unicode="\" horiz-adv-x="1378" 
d="M1408 -448l-989 1710h-299l989 -1710h299z" />
    <glyph glyph-name="bracketright" unicode="]" horiz-adv-x="784" 
d="M200 1262v-273h249v-1166h-249v-272h564v1711h-564z" />
    <glyph glyph-name="asciicircum" unicode="^" horiz-adv-x="1448" 
d="M1448 346l-441 916h-325l-442 -916h304l299 648l301 -648h304z" />
    <glyph glyph-name="underscore" unicode="_" horiz-adv-x="1670" 
d="M1670 -318v216h-1430v-216h1430z" />
    <glyph glyph-name="grave" unicode="`" horiz-adv-x="780" 
d="M606 1497h-346l303 -424h217z" />
    <glyph glyph-name="a" unicode="a" horiz-adv-x="1479" 
d="M1113 417v-193h-531q-42 0 -74 29q-28 31 -29 67q1 40 29 68q29 29 71 29h534zM497 0h455q105 0 180 104l40 -104h257v637q0 181 -81 261q-81 81 -226 81h-792l-75 -222h748q50 0 80 -31q30 -28 30 -68v-107q-67 82 -173 82h-443q-148 0 -242 -94q-95 -95 -95 -226
q0 -123 95 -218q98 -95 242 -95z" />
    <glyph glyph-name="b" unicode="b" horiz-adv-x="1603" 
d="M596 1455l-316 -193v-1262h245l48 122q92 -122 225 -122h440q162 0 284 110q121 109 121 256v247q0 148 -121 256q-119 110 -281 110h-445q-120 0 -223 -123q23 35 23 112v487zM596 264v455h568q75 0 118 -40q45 -39 45 -105v-164q0 -68 -46 -107q-43 -39 -117 -39h-568z
" />
    <glyph glyph-name="c" unicode="c" horiz-adv-x="1310" 
d="M1262 0l88 263h-671q-71 0 -117 39q-46 40 -46 108v160q0 69 45 108q46 40 118 40h583l88 261h-748q-162 0 -281 -110q-121 -109 -121 -258v-243q0 -146 121 -258q122 -110 284 -110h657z" />
    <glyph glyph-name="d" unicode="d" horiz-adv-x="1603" 
d="M1318 0h245v1455l-316 -193v-294q1 -78 23 -112q-102 123 -224 123h-444q-162 0 -281 -110q-121 -109 -121 -258v-243q0 -146 121 -258q122 -110 284 -110h439q136 0 226 122zM1247 719v-455h-568q-71 0 -117 39q-46 40 -46 107v161q0 69 45 108q46 40 118 40h568z" />
    <glyph glyph-name="e" unicode="e" horiz-adv-x="1514" 
d="M1228 599h-717v15q0 66 44 105q44 41 118 41h392q74 0 118 -41q45 -39 45 -108v-12zM1389 0l82 243h-798q-70 2 -117 40q-45 39 -45 104v26h1023v198q0 149 -121 258q-116 110 -281 110h-530q-162 0 -281 -110q-121 -109 -121 -258v-243q0 -146 121 -258
q122 -110 284 -110h784z" />
    <glyph glyph-name="f" unicode="f" horiz-adv-x="937" 
d="M924 1207l83 248h-349q-199 0 -307 -99q-108 -98 -108 -311v-66h-127l-76 -224h203v-755h315v755h303l74 224h-377v117q0 46 33 78q33 33 90 33h243z" />
    <glyph glyph-name="g" unicode="g" horiz-adv-x="1603" 
d="M356 -200l-86 -248h986q145 0 226 81t81 261v1085h-245l-48 -122q-86 122 -224 122h-444q-162 0 -281 -110q-121 -109 -121 -258v-243q0 -146 121 -258q122 -110 284 -110h439q122 0 226 123q-22 -34 -23 -111v-112q0 -39 -31 -69q-31 -31 -83 -31h-777zM1247 719v-455
h-568q-71 0 -117 39q-46 40 -46 107v161q0 69 45 108q46 40 118 40h568z" />
    <glyph glyph-name="h" unicode="h" horiz-adv-x="1483" 
d="M1187 0h316v613q0 148 -120 256q-119 110 -282 110h-305q-120 0 -223 -123q23 35 23 112v487l-316 -193v-1262h316v722h428q74 0 118 -41q45 -39 45 -105v-576z" />
    <glyph glyph-name="i" unicode="i" horiz-adv-x="597" 
d="M597 1356h-317v-241h317v241zM597 979h-317v-979h317v979z" />
    <glyph glyph-name="j" unicode="j" horiz-adv-x="685" 
d="M455 1356h-316v-241h316v241zM-97 -152l-83 -248h215q202 0 312 98q108 100 108 312v969h-316v-1020q0 -46 -33 -79q-32 -32 -90 -32h-113z" />
    <glyph glyph-name="k" unicode="k" horiz-adv-x="1337" 
d="M941 519l482 460h-414l-410 -420v896l-319 -193v-1262h319v472l461 -472h417z" />
    <glyph glyph-name="l" unicode="l" horiz-adv-x="597" 
d="M597 1455l-317 -193v-1262h317v1455z" />
    <glyph glyph-name="m" unicode="m" horiz-adv-x="2201" 
d="M1819 979h-302q-131 0 -221 -117q-111 117 -292 117h-208q-133 0 -223 -123l-47 123h-246v-979h316v722h334q74 0 118 -41q45 -39 45 -105v-576h316v722h334q73 0 117 -41q45 -39 45 -105v-576h316v613q0 148 -120 256q-119 110 -282 110z" />
    <glyph glyph-name="n" unicode="n" horiz-adv-x="1483" 
d="M1187 0h316v613q0 148 -120 256q-119 110 -282 110h-305q-133 0 -223 -123l-47 123h-246v-979h316v722h428q74 0 118 -41q45 -39 45 -105v-576z" />
    <glyph glyph-name="o" unicode="o" horiz-adv-x="1563" 
d="M200 611v-243q0 -146 121 -258q122 -110 284 -110h553q162 0 284 110q121 109 121 256v247q0 148 -121 256q-119 110 -281 110h-559q-162 0 -281 -110q-121 -109 -121 -258zM516 412v159q0 57 45 102q45 46 118 46h405q75 0 118 -46q45 -43 45 -100v-163q0 -55 -45 -100
q-43 -46 -118 -46h-405q-72 0 -118 46q-45 46 -45 102z" />
    <glyph glyph-name="p" unicode="p" horiz-adv-x="1603" 
d="M525 979h-245v-1427l316 188v272q0 79 -23 111q105 -123 225 -123h440q162 0 284 110q121 109 121 256v247q0 148 -121 256q-119 110 -281 110h-445q-134 0 -223 -122zM596 266v456h568q74 0 117 -40q46 -39 46 -107v-163q0 -66 -45 -105q-47 -41 -118 -41h-568z" />
    <glyph glyph-name="q" unicode="q" horiz-adv-x="1603" 
d="M1247 -449l316 189v1239h-245l-48 -122q-89 122 -224 122h-444q-162 0 -281 -110q-121 -109 -121 -258v-243q0 -146 121 -258q122 -110 284 -110h439q122 0 226 123q-23 -35 -23 -111v-461zM1247 722v-456h-568q-71 0 -118 41q-45 41 -45 108v160q0 67 46 107t117 40h568
z" />
    <glyph glyph-name="r" unicode="r" horiz-adv-x="1045" 
d="M525 979h-245v-979h316v717h500l89 262h-389q-133 0 -223 -123z" />
    <glyph glyph-name="s" unicode="s" horiz-adv-x="1327" 
d="M1248 523q-89 89 -233 89h-468q-33 0 -55 22q-21 22 -21 50q0 30 21 51t51 21h648l76 223h-785q-141 0 -232 -91q-90 -90 -90 -213t90 -213t232 -90h489q31 0 52 -22q22 -19 22 -52q0 -28 -22 -50t-56 -22h-723l-76 -226h847q141 0 233 92q89 89 89 215q0 127 -89 216z
" />
    <glyph glyph-name="t" unicode="t" horiz-adv-x="969" 
d="M557 755h308l76 224h-384v347l-316 -189v-158h-125l-76 -224h201v-446q0 -147 81 -228q82 -81 250 -81h337l80 234h-315q-67 0 -93 29q-24 30 -24 84v408z" />
    <glyph glyph-name="u" unicode="u" horiz-adv-x="1483" 
d="M556 979h-316v-611q0 -146 121 -258q122 -110 284 -110h300q136 0 226 123l46 -123h246v979h-316v-717h-428q-72 0 -118 40q-45 40 -45 108v569z" />
    <glyph glyph-name="v" unicode="v" horiz-adv-x="1423" 
d="M1059 979l-342 -728l-342 728h-355l499 -979h404l500 979h-364z" />
    <glyph glyph-name="w" unicode="w" horiz-adv-x="2070" 
d="M816 0l233 614l224 -614h398l399 979h-356l-253 -722l-258 701h-326l-242 -701l-270 722h-345l399 -979h397z" />
    <glyph glyph-name="x" unicode="x" horiz-adv-x="1397" 
d="M936 509l407 470h-404l-240 -312l-242 312h-403l405 -470l-459 -509h403l296 352l294 -352h404z" />
    <glyph glyph-name="y" unicode="y" horiz-adv-x="1397" 
d="M701 -448l696 1427h-365l-338 -748l-304 748h-370l456 -979h107l-237 -448h355z" />
    <glyph glyph-name="z" unicode="z" horiz-adv-x="1272" 
d="M1197 0l75 225h-651l595 571v183h-980l-76 -224h603l-598 -570v-185h1032z" />
    <glyph glyph-name="braceleft" unicode="{" horiz-adv-x="917" 
d="M937 -449v245h-54q-81 0 -112 31q-30 30 -30 78v245q0 151 -121 257q120 107 120 256v219q0 73 31 104t112 31h54v245h-106q-167 0 -288 -109q-118 -105 -118 -255v-259q0 -73 -31 -104q-28 -30 -112 -31h-42v-195h43q84 -1 112 -31q30 -30 30 -78v-285q0 -150 118 -255
q121 -109 288 -109h106z" />
    <glyph glyph-name="bar" unicode="|" horiz-adv-x="555" 
d="M555 1262h-315v-1661h315v1661z" />
    <glyph glyph-name="braceright" unicode="}" horiz-adv-x="917" 
d="M200 1262v-245h54q81 0 112 -31q30 -30 30 -78v-245q0 -151 121 -257q-120 -106 -120 -256v-219q0 -73 -31 -104t-112 -31h-54v-245h106q167 0 288 109q118 105 118 255v259q0 73 31 104q28 30 112 31h42v195h-43q-84 1 -112 31q-30 30 -30 78v285q0 150 -118 255
q-121 109 -288 109h-106z" />
    <glyph glyph-name="asciitilde" unicode="~" horiz-adv-x="1485" 
d="M1485 1561h-259q-29 -113 -146 -113q-84 0 -220 72q-129 72 -236 72q-150 0 -247 -88t-137 -292h258q33 111 142 111q94 0 225 -71q139 -70 235 -70q153 0 250 88q94 86 135 291z" />
    <glyph glyph-name="exclamdown" unicode="&#xa1;" horiz-adv-x="949" 
d="M562 696h329v283h-329v-283zM902 -283v283l-66 550h-220l-66 -550v-283h352z" />
    <glyph glyph-name="cent" unicode="&#xa2;" horiz-adv-x="1381" 
d="M732 0v-200h303v200h277l88 263h-671q-71 0 -117 39q-46 40 -46 108v160q0 69 45 108q46 40 118 40h583l88 261h-365v200h-303v-200h-80q-162 0 -281 -110q-121 -109 -121 -258v-243q0 -146 121 -258q122 -110 284 -110h77z" />
    <glyph glyph-name="sterling" unicode="&#xa3;" horiz-adv-x="1593" 
d="M1409 0l88 263h-972q101 83 101 195v180h501l74 224h-575v238q2 44 33 74q33 33 90 33h571l83 248h-677q-199 0 -307 -99q-108 -98 -108 -311v-183h-135l-76 -224h211v-232q0 -74 -56 -130t-154 -56v-220h1308z" />
    <glyph glyph-name="currency" unicode="&#xa4;" horiz-adv-x="1478" 
d="M1476 1090l-162 162l-216 -213q-58 11 -93 11h-295q-50 0 -93 -12l-213 212l-163 -165l180 -180q-49 -73 -49 -164v-221q0 -89 49 -162l-181 -183l165 -163l215 215q46 -13 96 -13h292q43 0 95 11l211 -211l164 165l-182 181q51 74 51 162v223q0 90 -51 164zM594 559v152
q0 59 46 105q47 47 122 47h207q66 0 110 -47q46 -43 46 -104v-155q0 -57 -46 -103q-45 -48 -123 -48h-194q-74 0 -122 48q-46 46 -46 105z" />
    <glyph glyph-name="yen" unicode="&#xa5;" horiz-adv-x="1757" 
d="M995 222h530v138h-530v78l119 131h411v138h-286l501 555h-461l-456 -531l-455 531h-462l501 -555h-286v-138h412l118 -131v-78h-530v-138h530v-222h344v222z" />
    <glyph glyph-name="brokenbar" unicode="&#xa6;" horiz-adv-x="555" 
d="M555 274h-315v-673h315v673zM555 1262h-315v-673h315v673z" />
    <glyph glyph-name="section" unicode="&#xa7;" horiz-adv-x="1446" 
d="M1309 45q31 19 58 46q89 95 89 216q0 120 -89 212q-89 89 -233 89h-484q-33 0 -55 22q-21 22 -21 50q0 30 21 51t51 21h592l76 227h-712q-141 0 -233 -92q-89 -90 -90 -217q1 -66 28 -125q-31 -20 -58 -46q-89 -95 -89 -216q0 -120 89 -212q89 -89 233 -89h484
q33 0 55 -22q21 -23 21 -50q0 -30 -21 -51t-51 -21h-592l-76 -227h712q141 0 233 92q89 90 90 217q0 70 -28 125zM1070 208h-529q-42 0 -67 25t-25 63q0 36 25 61q26 26 67 26h529q43 0 69 -26q25 -25 25 -61q0 -38 -25 -63t-69 -25z" />
    <glyph glyph-name="dieresis" unicode="&#xa8;" horiz-adv-x="1021" 
d="M589 1529h-329v-283h329v283zM1021 1529h-329v-283h329v283z" />
    <glyph glyph-name="copyright" unicode="&#xa9;" horiz-adv-x="1904" 
d="M1442 304l62 186h-402q-46 0 -75 23q-26 21 -26 70v94q0 49 25 70q25 22 76 22h340l62 185h-450q-109 0 -187 -72q-80 -74 -80 -173v-161q0 -97 80 -171q79 -73 189 -73h386zM1178 1262q-275 0 -468 -184q-194 -185 -194 -446t194 -446q194 -186 468 -186q276 0 472 186
q198 187 198 449q0 260 -198 445q-197 182 -472 182zM806 986q154 147 372 147q220 0 374 -147q155 -146 155 -354t-155 -355q-156 -147 -374 -147t-372 147q-153 147 -153 355t153 354z" />
    <glyph glyph-name="ordfeminine" unicode="&#xaa;" horiz-adv-x="1311" 
d="M481 466h338q85 0 146 85l32 -85h242v517q0 148 -65 213q-64 66 -184 66h-628l-67 -200h565q43 0 66 -23t23 -57v-93q-52 67 -140 67h-328q-114 0 -187 -73q-74 -74 -74 -176q0 -93 74 -167t187 -74zM949 782v-130h-367q-32 0 -51 19t-19 47q0 26 19 45t49 19h369z" />
    <glyph glyph-name="guillemotleft" unicode="&#xab;" horiz-adv-x="1226" 
d="M650 927l-410 -351v-172l410 -352l102 182l-282 255l282 256zM1124 927l-410 -351v-172l410 -352l102 182l-282 255l282 256z" />
    <glyph glyph-name="logicalnot" unicode="&#xac;" horiz-adv-x="1286" 
d="M1286 972h-1046v-260h786v-420h260v680z" />
    <glyph glyph-name="sfthyphen" unicode="&#xad;" horiz-adv-x="961" 
d="M200 620v-262h761v262h-761z" />
    <glyph glyph-name="registered" unicode="&#xae;" horiz-adv-x="1104" 
d="M633 1262q-192 0 -329 -128q-136 -129 -136 -308q0 -180 136 -309q133 -127 329 -127q195 0 331 127q140 132 140 311q0 178 -140 307q-139 127 -331 127zM380 1064q102 96 253 96t254 -96q105 -98 105 -238q0 -138 -105 -237t-254 -99t-253 99q-105 101 -105 237
q0 139 105 238zM749 1041h-357v-417h143v308h167q19 0 34 -15q11 -11 11 -32q0 -19 -11 -30t-35 -11h-151l171 -220h168l-128 153q47 0 88 41q40 40 40 91q0 56 -40 93q-40 39 -100 39z" />
    <glyph glyph-name="macron" unicode="&#xaf;" horiz-adv-x="821" 
d="M60 1437v-190h761v190h-761z" />
    <glyph glyph-name="degree" unicode="&#xb0;" horiz-adv-x="1253" 
d="M732 1262q-201 0 -341 -134q-141 -135 -141 -325q0 -189 141 -324q142 -136 341 -136q201 0 343 136q144 137 144 327q0 189 -144 324q-143 132 -343 132zM532 993q82 79 200 79q117 0 199 -79q84 -79 84 -190t-84 -190q-84 -78 -199 -78q-118 0 -200 78q-81 76 -81 190
t81 190z" />
    <glyph glyph-name="plusminus" unicode="&#xb1;" horiz-adv-x="1336" 
d="M240 7h1096v260h-419v359h417v260h-417v369h-260v-369h-417v-260h417v-359h-417v-260z" />
    <glyph glyph-name="twosuperior" unicode="&#xb2;" horiz-adv-x="1339" 
d="M736 767h370q116 0 189 73t73 184q0 95 -71 166q-72 72 -191 72h-632l-63 -187h608q27 0 44 -17t17 -40q0 -24 -17 -41q-18 -18 -44 -18h-373q-104 0 -184 -71q-77 -71 -80 -175v-246h936l66 193h-722v36q1 31 22 50q21 21 52 21z" />
    <glyph glyph-name="threesuperior" unicode="&#xb3;" horiz-adv-x="1264" 
d="M330 1262l-63 -187h575q30 0 49 -19t19 -45t-19 -45q-17 -18 -49 -19h-294l-52 -153h371q32 0 51 -19t19 -45q0 -27 -19 -46t-51 -20h-544l-67 -197h740q100 0 165 65t65 151q0 88 -63 151q-20 20 -48 35q18 13 32 27q63 63 63 152q0 88 -64 151q-63 63 -166 63h-650z
" />
    <glyph glyph-name="acute" unicode="&#xb4;" horiz-adv-x="780" 
d="M435 1497l-175 -424h217l303 424h-345z" />
    <glyph glyph-name="mu" unicode="&#xb5;" horiz-adv-x="1474" 
d="M1541 0v979h-316v-717h-428q-72 0 -118 40q-45 40 -45 108v569h-316v-1427l300 188v272q0 79 -23 111q105 -123 225 -123h203q136 0 226 123l46 -123h246z" />
    <glyph glyph-name="paragraph" unicode="&#xb6;" horiz-adv-x="1906" 
d="M1355 -307v1331h238v-1473l238 142v1569h-1179q-162 0 -281 -110q-121 -109 -121 -258v-201q0 -146 121 -258q122 -110 284 -110h462v-774z" />
    <glyph glyph-name="periodcentered" unicode="&#xb7;" horiz-adv-x="529" 
d="M529 772h-329v-282h329v282z" />
    <glyph glyph-name="cedilla" unicode="&#xb8;" horiz-adv-x="563" 
d="M235 -90l-175 -545h211l292 545h-328z" />
    <glyph glyph-name="cedilla" unicode="&#x327;" horiz-adv-x="563" 
d="M235 -90l-175 -545h211l292 545h-328z" />
    <glyph glyph-name="onesuperior" unicode="&#xb9;" horiz-adv-x="868" 
d="M270 950l199 61v-544h275v795h-189l-359 -106z" />
    <glyph glyph-name="ordmasculine" unicode="&#xba;" horiz-adv-x="1496" 
d="M440 963v-198q0 -118 98 -210q101 -89 231 -89h426q130 0 231 89q99 89 99 208v201q0 120 -99 209q-98 89 -228 89h-431q-131 0 -229 -89t-98 -210zM723 809v113q0 47 36 83q36 37 96 37h254q60 0 96 -37q37 -37 37 -81v-117q0 -44 -37 -81q-36 -38 -96 -38h-254
q-58 0 -96 38q-36 38 -36 83z" />
    <glyph glyph-name="guillemotright" unicode="&#xbb;" horiz-adv-x="1226" 
d="M816 51l410 351v172l-410 352l-102 -182l282 -255l-282 -256zM342 51l410 351v172l-410 352l-102 -182l282 -255l-282 -256z" />
    <glyph glyph-name="onequarter" unicode="&#xbc;" horiz-adv-x="2362" 
d="M481 1011v-544h275v795h-189l-359 -106l74 -206zM1503 1262l-952 -1262h270l952 1262h-270zM2198 315v480h-355l-570 -454v-214h659v-127h266v127h130v188h-130zM1558 315l374 298v-298h-374z" />
    <glyph glyph-name="onehalf" unicode="&#xbd;" horiz-adv-x="2517" 
d="M282 950l199 61v-544h275v795h-189l-359 -106zM1773 1262h-270l-952 -1262h270zM1827 301h370q116 0 189 73t73 184q0 95 -71 166q-72 72 -191 72h-632l-63 -187h608q27 0 44 -17t17 -40q0 -24 -17 -41q-18 -18 -44 -18h-373q-104 0 -184 -71q-77 -71 -80 -175v-246h936
l67 197h-723v32q1 31 22 50q21 21 52 21z" />
    <glyph glyph-name="threequarters" unicode="&#xbe;" horiz-adv-x="2735" 
d="M1900 1262l-952 -1262h270l952 1262h-270zM2595 315v480h-355l-570 -454v-214h659v-127h266v127h130v188h-130zM330 1262l-63 -187h575q30 0 49 -19t19 -45t-19 -45q-17 -18 -49 -19h-294l-52 -153h371q32 0 51 -19t19 -45q0 -27 -19 -46q-18 -18 -51 -20h-544l-67 -197
h740q100 0 165 65t65 151q0 88 -63 151q-22 22 -48 35q17 12 32 27q63 63 63 152q0 88 -64 151q-63 63 -166 63h-650zM1955 315l374 298v-298h-374z" />
    <glyph glyph-name="questiondown" unicode="&#xbf;" horiz-adv-x="1635" 
d="M1048 696h329v283h-329v-283zM973 406h-247q-162 0 -263 -101q-103 -103 -103 -257q0 -130 100 -230q101 -101 266 -101h857l82 243h-886q-46 0 -75 29q-29 27 -29 67t29 69q30 30 75 30h261q168 0 248 87q79 85 79 246v62h-309v-45q0 -45 -20 -71q-22 -28 -65 -28z" />
    <glyph glyph-name="Agrave" unicode="&#xc0;" horiz-adv-x="1892" 
d="M498 186h886l109 -186h399l-755 1262h-382l-755 -1262h390zM1246 419h-609l304 515zM894 1788h-346l303 -424h217z" />
    <glyph glyph-name="Aacute" unicode="&#xc1;" horiz-adv-x="1892" 
d="M498 186h886l109 -186h399l-755 1262h-382l-755 -1262h390zM1246 419h-609l304 515zM975 1788l-175 -424h217l303 424h-345z" />
    <glyph glyph-name="Acircumflex" unicode="&#xc2;" horiz-adv-x="1892" 
d="M498 186h886l109 -186h399l-755 1262h-382l-755 -1262h390zM1246 419h-609l304 515zM699 1364l230 245l258 -245h286l-355 425h-345l-353 -425h279z" />
    <glyph glyph-name="Atilde" unicode="&#xc3;" horiz-adv-x="1892" 
d="M498 186h886l109 -186h399l-755 1262h-382l-755 -1262h390zM1246 419h-609l304 515zM1465 1670h-216q-24 -85 -122 -85q-71 0 -184 54q-108 54 -196 54q-252 0 -321 -306h216q26 83 118 83q70 0 188 -53q124 -53 196 -53q255 0 321 306z" />
    <glyph glyph-name="Adieresis" unicode="&#xc4;" horiz-adv-x="1892" 
d="M498 186h886l109 -186h399l-755 1262h-382l-755 -1262h390zM1246 419h-609l304 515zM895 1647h-329v-283h329v283zM1327 1647h-329v-283h329v283z" />
    <glyph glyph-name="Aring" unicode="&#xc5;" horiz-adv-x="1892" 
d="M498 186h886l109 -186h399l-755 1262h-382l-755 -1262h390zM1246 419h-609l304 515zM566 1664v-20q0 -148 84 -229t264 -81h54q181 0 265 81t84 229v20q0 148 -84 228q-85 82 -265 82h-54q-179 0 -264 -82q-84 -80 -84 -228zM795 1634v40q0 60 25 85q24 24 97 24h50
q71 0 95 -24q27 -27 27 -85v-40q0 -56 -27 -84q-22 -24 -95 -24h-50q-75 0 -97 24q-25 25 -25 84z" />
    <glyph glyph-name="AE" unicode="&#xc6;" horiz-adv-x="2235" 
d="M412 0l137 186h424v-186h1088l94 281h-851v226h685l86 257h-771v217h757l94 281h-1183l-972 -1262h412zM708 402l265 359v-359h-265z" />
    <glyph glyph-name="Ccedilla" unicode="&#xc7;" horiz-adv-x="1700" 
d="M1637 0l93 285h-954q-92 2 -151 52q-59 51 -59 137v320q0 86 58 138q62 53 152 53h861l93 277h-1042q-214 0 -342 -125q-126 -125 -126 -295v-422q0 -166 127 -293q130 -127 341 -127h949zM898 -102l-175 -545h211l292 545h-328z" />
    <glyph glyph-name="Egrave" unicode="&#xc8;" horiz-adv-x="1668" 
d="M1658 764h-1014v217h1000l94 281h-1438v-1262h1344l94 281h-1094v226h928zM997 1788h-346l303 -424h217z" />
    <glyph glyph-name="Eacute" unicode="&#xc9;" horiz-adv-x="1668" 
d="M1658 764h-1014v217h1000l94 281h-1438v-1262h1344l94 281h-1094v226h928zM1030 1788l-175 -424h217l303 424h-345z" />
    <glyph glyph-name="Ecircumflex" unicode="&#xca;" horiz-adv-x="1668" 
d="M1658 764h-1014v217h1000l94 281h-1438v-1262h1344l94 281h-1094v226h928zM772 1364l230 245l258 -245h286l-355 425h-345l-353 -425h279z" />
    <glyph glyph-name="Edieresis" unicode="&#xcb;" horiz-adv-x="1668" 
d="M1658 764h-1014v217h1000l94 281h-1438v-1262h1344l94 281h-1094v226h928zM968 1647h-329v-283h329v283zM1400 1647h-329v-283h329v283z" />
    <glyph glyph-name="Igrave" unicode="&#xcc;" horiz-adv-x="644" 
d="M448 1262h-344v-1262h344v1262zM254 1788h-346l303 -424h217z" />
    <glyph glyph-name="Iacute" unicode="&#xcd;" horiz-adv-x="644" 
d="M644 1262h-344v-1262h344v1262zM483 1788l-175 -424h217l303 424h-345z" />
    <glyph glyph-name="Icircumflex" unicode="&#xce;" horiz-adv-x="644" 
d="M290 1262h-344v-1262h344v1262zM-129 1364l230 245l258 -245h286l-355 425h-345l-353 -425h279z" />
    <glyph glyph-name="Idieresis" unicode="&#xcf;" horiz-adv-x="644" 
d="M436 1262h-344v-1262h344v1262zM213 1647h-329v-283h329v283zM645 1647h-329v-283h329v283z" />
    <glyph glyph-name="Eth" unicode="&#xd0;" horiz-adv-x="1939" 
d="M136 1262v-510h-164v-233h164v-519h1211q215 0 342 127q126 126 126 290v428q0 169 -126 292q-125 125 -342 125h-1211zM481 285v234h318v233h-318v233h778q93 0 152 -53q59 -50 59 -138v-320q0 -86 -60 -137q-56 -50 -151 -52h-778z" />
    <glyph glyph-name="Ntilde" unicode="&#xd1;" horiz-adv-x="1895" 
d="M1895 0v1262h-348v-826l-900 826h-347v-1262h347v823l900 -823h348zM1617 1670h-216q-24 -85 -122 -85q-71 0 -184 54q-108 54 -196 54q-252 0 -321 -306h216q26 83 118 83q70 0 188 -53q124 -53 196 -53q255 0 321 306z" />
    <glyph glyph-name="Ograve" unicode="&#xd2;" horiz-adv-x="1925" 
d="M220 842v-422q0 -166 127 -293q130 -127 341 -127h769q214 0 341 127q127 126 127 290v428q0 169 -126 292q-125 125 -342 125h-769q-214 0 -342 -125q-126 -125 -126 -295zM1369 285h-592q-90 0 -151 52q-59 50 -59 134v325q3 87 59 138q58 52 151 52h592q94 0 152 -52
q58 -50 59 -138v-322q0 -87 -59 -137q-57 -51 -152 -52zM1032 1788h-346l303 -424h217z" />
    <glyph glyph-name="Oacute" unicode="&#xd3;" horiz-adv-x="1925" 
d="M220 842v-422q0 -166 127 -293q130 -127 341 -127h769q214 0 341 127q127 126 127 290v428q0 169 -126 292q-125 125 -342 125h-769q-214 0 -342 -125q-126 -125 -126 -295zM1369 285h-592q-90 0 -151 52q-59 50 -59 134v325q3 87 59 138q58 52 151 52h592q94 0 152 -52
q58 -50 59 -138v-322q0 -87 -59 -137q-57 -51 -152 -52zM1095 1788l-175 -424h217l303 424h-345z" />
    <glyph glyph-name="Ocircumflex" unicode="&#xd4;" horiz-adv-x="1925" 
d="M220 842v-422q0 -166 127 -293q130 -127 341 -127h769q214 0 341 127q127 126 127 290v428q0 169 -126 292q-125 125 -342 125h-769q-214 0 -342 -125q-126 -125 -126 -295zM1369 285h-592q-90 0 -151 52q-59 50 -59 134v325q3 87 59 138q58 52 151 52h592q94 0 152 -52
q58 -50 59 -138v-322q0 -87 -59 -137q-57 -51 -152 -52zM825 1364l230 245l258 -245h286l-355 425h-345l-353 -425h279z" />
    <glyph glyph-name="Otilde" unicode="&#xd5;" horiz-adv-x="1925" 
d="M220 842v-422q0 -166 127 -293q130 -127 341 -127h769q214 0 341 127q127 126 127 290v428q0 169 -126 292q-125 125 -342 125h-769q-214 0 -342 -125q-126 -125 -126 -295zM1369 285h-592q-90 0 -151 52q-59 50 -59 134v325q3 87 59 138q58 52 151 52h592q94 0 152 -52
q58 -50 59 -138v-322q0 -87 -59 -137q-57 -51 -152 -52zM1591 1670h-216q-24 -85 -122 -85q-71 0 -184 54q-108 54 -196 54q-252 0 -321 -306h216q26 83 118 83q70 0 188 -53q124 -53 196 -53q255 0 321 306z" />
    <glyph glyph-name="Odieresis" unicode="&#xd6;" horiz-adv-x="1925" 
d="M220 842v-422q0 -166 127 -293q130 -127 341 -127h769q214 0 341 127q127 126 127 290v428q0 169 -126 292q-125 125 -342 125h-769q-214 0 -342 -125q-126 -125 -126 -295zM1369 285h-592q-90 0 -151 52q-59 50 -59 134v325q3 87 59 138q58 52 151 52h592q94 0 152 -52
q58 -50 59 -138v-322q0 -87 -59 -137q-57 -51 -152 -52zM1021 1647h-329v-283h329v283zM1453 1647h-329v-283h329v283z" />
    <glyph glyph-name="multiply" unicode="&#xd7;" horiz-adv-x="1381" 
d="M810 448l387 -387l184 184l-387 387l387 386l-184 184l-387 -387l-386 387l-184 -184l386 -386l-386 -387l184 -184z" />
    <glyph glyph-name="Oslash" unicode="&#xd8;" horiz-adv-x="1925" 
d="M501 493v309q3 87 59 138q58 52 151 52h604q30 0 79 -11zM1526 790v-322q0 -87 -59 -137q-57 -51 -152 -52h-604q-45 1 -90 16zM1925 1012v258l-214 -118q-122 110 -326 110h-769q-214 0 -342 -125q-126 -125 -126 -295v-422q0 -46 17 -114l-89 -49v-257l211 115
q127 -115 329 -115h769q214 0 341 127q127 126 127 290v428q0 48 -17 118z" />
    <glyph glyph-name="Ugrave" unicode="&#xd9;" horiz-adv-x="1788" 
d="M1002 1788h-346l303 -424h217zM1788 1262h-345v-791q0 -84 -59 -134q-58 -52 -151 -52h-416q-90 0 -151 52q-59 50 -59 134v791h-347v-842q0 -166 127 -293q130 -127 341 -127h592q214 0 341 127t127 293v842z" />
    <glyph glyph-name="Uacute" unicode="&#xda;" horiz-adv-x="1788" 
d="M1047 1788l-175 -424h217l303 424h-345zM1788 1262h-345v-791q0 -84 -59 -134q-58 -52 -151 -52h-416q-90 0 -151 52q-59 50 -59 134v791h-347v-842q0 -166 127 -293q130 -127 341 -127h592q214 0 341 127t127 293v842z" />
    <glyph glyph-name="Ucircumflex" unicode="&#xdb;" horiz-adv-x="1788" 
d="M777 1364l230 245l258 -245h286l-355 425h-345l-353 -425h279zM1788 1262h-345v-791q0 -84 -59 -134q-58 -52 -151 -52h-416q-90 0 -151 52q-59 50 -59 134v791h-347v-842q0 -166 127 -293q130 -127 341 -127h592q214 0 341 127t127 293v842z" />
    <glyph glyph-name="Udieresis" unicode="&#xdc;" horiz-adv-x="1788" 
d="M973 1647h-329v-283h329v283zM1405 1647h-329v-283h329v283zM1788 1262h-345v-791q0 -84 -59 -134q-58 -52 -151 -52h-416q-90 0 -151 52q-59 50 -59 134v791h-347v-842q0 -166 127 -293q130 -127 341 -127h592q214 0 341 127t127 293v842z" />
    <glyph glyph-name="Yacute" unicode="&#xdd;" horiz-adv-x="1834" 
d="M1089 438l745 824h-461l-456 -531l-455 531h-462l745 -824v-438h344v438zM952 1788l-175 -424h217l303 424h-345z" />
    <glyph glyph-name="Thorn" unicode="&#xde;" horiz-adv-x="1782" 
d="M645 477v307h707q72 0 115 -45q45 -45 45 -107t-45 -109q-46 -46 -118 -46h-704zM1391 1065h-746v197h-345v-1262h345v197h746q203 0 333 130q128 131 128 308q0 175 -128 303q-127 127 -333 127z" />
    <glyph glyph-name="germandbls" unicode="&#xdf;" horiz-adv-x="1531" 
d="M1090 1455h-403q-164 0 -286 -110q-121 -109 -121 -260v-1085h317v1089q0 62 43 102q46 39 114 39h236q62 0 97 -36q36 -34 36 -88t-36 -90q-34 -34 -97 -37h-210l-74 -224h385q75 0 118 -40q45 -39 45 -108v-224q0 -67 -46 -107q-44 -39 -117 -39h-307l-78 -237h460
q162 0 284 110q121 109 121 256v216q0 148 -121 257q-50 47 -109 73q91 94 91 224t-95 225q-94 94 -247 94z" />
    <glyph glyph-name="agrave" unicode="&#xe0;" horiz-adv-x="1479" 
d="M1113 417v-193h-531q-42 0 -74 29q-28 31 -29 67q1 40 29 68q29 29 71 29h534zM497 0h455q105 0 180 104l40 -104h257v637q0 181 -81 261q-81 81 -226 81h-792l-75 -222h748q50 0 80 -31q30 -28 30 -68v-107q-67 82 -173 82h-443q-148 0 -242 -94q-95 -95 -95 -226
q0 -123 95 -218q98 -95 242 -95zM820 1505h-346l303 -424h217z" />
    <glyph glyph-name="aacute" unicode="&#xe1;" horiz-adv-x="1479" 
d="M1113 417v-193h-531q-42 0 -74 29q-28 31 -29 67q1 40 29 68q29 29 71 29h534zM497 0h455q105 0 180 104l40 -104h257v637q0 181 -81 261q-81 81 -226 81h-792l-75 -222h748q50 0 80 -31q30 -28 30 -68v-107q-67 82 -173 82h-443q-148 0 -242 -94q-95 -95 -95 -226
q0 -123 95 -218q98 -95 242 -95zM823 1505l-175 -424h217l303 424h-345z" />
    <glyph glyph-name="acircumflex" unicode="&#xe2;" horiz-adv-x="1479" 
d="M1113 417v-193h-531q-42 0 -74 29q-28 31 -29 67q1 40 29 68q29 29 71 29h534zM497 0h455q105 0 180 104l40 -104h257v637q0 181 -81 261q-81 81 -226 81h-792l-75 -222h748q50 0 80 -31q30 -28 30 -68v-107q-67 82 -173 82h-443q-148 0 -242 -94q-95 -95 -95 -226
q0 -123 95 -218q98 -95 242 -95zM559 1081l230 245l258 -245h286l-355 425h-345l-353 -425h279z" />
    <glyph glyph-name="atilde" unicode="&#xe3;" horiz-adv-x="1479" 
d="M1113 417v-193h-531q-42 0 -74 29q-28 31 -29 67q1 40 29 68q29 29 71 29h534zM497 0h455q105 0 180 104l40 -104h257v637q0 181 -81 261q-81 81 -226 81h-792l-75 -222h748q50 0 80 -31q30 -28 30 -68v-107q-67 82 -173 82h-443q-148 0 -242 -94q-95 -95 -95 -226
q0 -123 95 -218q98 -95 242 -95zM1313 1387h-216q-24 -85 -122 -85q-71 0 -184 54q-108 54 -196 54q-252 0 -321 -306h216q26 83 118 83q70 0 188 -53q124 -53 196 -53q255 0 321 306z" />
    <glyph glyph-name="adieresis" unicode="&#xe4;" horiz-adv-x="1479" 
d="M1113 417v-193h-531q-42 0 -74 29q-28 31 -29 67q1 40 29 68q29 29 71 29h534zM497 0h455q105 0 180 104l40 -104h257v637q0 181 -81 261q-81 81 -226 81h-792l-75 -222h748q50 0 80 -31q30 -28 30 -68v-107q-67 82 -173 82h-443q-148 0 -242 -94q-95 -95 -95 -226
q0 -123 95 -218q98 -95 242 -95zM755 1364h-329v-283h329v283zM1187 1364h-329v-283h329v283z" />
    <glyph glyph-name="aring" unicode="&#xe5;" horiz-adv-x="1479" 
d="M1113 417v-193h-531q-42 0 -74 29q-28 31 -29 67q1 40 29 68q29 29 71 29h534zM497 0h455q105 0 180 104l40 -104h257v637q0 181 -81 261q-81 81 -226 81h-792l-75 -222h748q50 0 80 -31q30 -28 30 -68v-107q-67 82 -173 82h-443q-148 0 -242 -94q-95 -95 -95 -226
q0 -123 95 -218q98 -95 242 -95zM447 1412v-20q0 -148 84 -229t264 -81h54q181 0 265 81t84 229v20q0 148 -84 228q-85 82 -265 82h-54q-179 0 -264 -82q-84 -80 -84 -228zM676 1382v40q0 60 25 85q24 24 97 24h50q71 0 95 -24q27 -27 27 -85v-40q0 -56 -27 -84
q-23 -24 -95 -24h-50q-74 0 -97 24q-25 25 -25 84z" />
    <glyph glyph-name="ae" unicode="&#xe6;" horiz-adv-x="2104" 
d="M1798 599h-528v15q0 66 44 105q44 41 118 41h203q74 0 118 -41q45 -39 45 -108v-12zM972 417v-193h-390q-42 0 -74 29q-28 31 -29 67q1 40 29 68q29 29 71 29h393zM330 979l-75 -222h607q50 0 80 -31q30 -28 30 -68v-107q-67 82 -173 82h-302q-148 0 -242 -94
q-95 -95 -95 -226q0 -123 95 -218q98 -95 242 -95h430q105 0 178 102q119 -102 275 -102h579l82 243h-609q-70 2 -117 40q-45 39 -45 104v26h834v198q0 149 -121 258q-116 110 -281 110h-325q-137 0 -245 -81q-81 81 -226 81h-576z" />
    <glyph glyph-name="ccedilla" unicode="&#xe7;" horiz-adv-x="1310" 
d="M1262 0l88 263h-671q-71 0 -117 39q-46 40 -46 108v160q0 69 45 108q46 40 118 40h583l88 261h-748q-162 0 -281 -110q-121 -109 -121 -258v-243q0 -146 121 -258q122 -110 284 -110h657zM698 -102l-175 -545h211l292 545h-328z" />
    <glyph glyph-name="egrave" unicode="&#xe8;" horiz-adv-x="1514" 
d="M1228 599h-717v15q0 66 44 105q44 41 118 41h392q74 0 118 -41q45 -39 45 -108v-12zM1389 0l82 243h-798q-70 2 -117 40q-45 39 -45 104v26h1023v198q0 149 -121 258q-116 110 -281 110h-530q-162 0 -281 -110q-121 -109 -121 -258v-243q0 -146 121 -258
q122 -110 284 -110h784zM845 1505h-346l303 -424h217z" />
    <glyph glyph-name="eacute" unicode="&#xe9;" horiz-adv-x="1514" 
d="M1228 599h-717v15q0 66 44 105q44 41 118 41h392q74 0 118 -41q45 -39 45 -108v-12zM1389 0l82 243h-798q-70 2 -117 40q-45 39 -45 104v26h1023v198q0 149 -121 258q-116 110 -281 110h-530q-162 0 -281 -110q-121 -109 -121 -258v-243q0 -146 121 -258
q122 -110 284 -110h784zM902 1505l-175 -424h217l303 424h-345z" />
    <glyph glyph-name="ecircumflex" unicode="&#xea;" horiz-adv-x="1514" 
d="M1228 599h-717v15q0 66 44 105q44 41 118 41h392q74 0 118 -41q45 -39 45 -108v-12zM1389 0l82 243h-798q-70 2 -117 40q-45 39 -45 104v26h1023v198q0 149 -121 258q-116 110 -281 110h-530q-162 0 -281 -110q-121 -109 -121 -258v-243q0 -146 121 -258
q122 -110 284 -110h784zM620 1081l230 245l258 -245h286l-355 425h-345l-353 -425h279z" />
    <glyph glyph-name="edieresis" unicode="&#xeb;" horiz-adv-x="1514" 
d="M1228 599h-717v15q0 66 44 105q44 41 118 41h392q74 0 118 -41q45 -39 45 -108v-12zM1389 0l82 243h-798q-70 2 -117 40q-45 39 -45 104v26h1023v198q0 149 -121 258q-116 110 -281 110h-530q-162 0 -281 -110q-121 -109 -121 -258v-243q0 -146 121 -258
q122 -110 284 -110h784zM816 1364h-329v-283h329v283zM1248 1364h-329v-283h329v283z" />
    <glyph glyph-name="igrave" unicode="&#xec;" horiz-adv-x="597" 
d="M375 979h-317v-979h317v979zM182 1505h-346l303 -424h217z" />
    <glyph glyph-name="iacute" unicode="&#xed;" horiz-adv-x="597" 
d="M597 979h-317v-979h317v979zM461 1505l-175 -424h217l303 424h-345z" />
    <glyph glyph-name="icircumflex" unicode="&#xee;" horiz-adv-x="597" 
d="M229 979h-317v-979h317v979zM-177 1081l230 245l258 -245h286l-355 425h-345l-353 -425h279z" />
    <glyph glyph-name="idieresis" unicode="&#xef;" horiz-adv-x="597" 
d="M375 979h-317v-979h317v979zM165 1364h-329v-283h329v283zM597 1364h-329v-283h329v283z" />
    <glyph glyph-name="eth" unicode="&#xf0;" horiz-adv-x="1596" 
d="M984 1346l83 -130l-186 -50l14 -113l234 61l98 -157q18 -29 27 -54q6 -16 6 -86q-89 110 -219 110h-436q-170 0 -288 -106q-117 -107 -117 -261v-192q0 -154 117 -260q119 -108 286 -108h551q168 0 288 108q118 108 118 260v394q0 110 -12 163q-13 62 -59 138l-70 127
l167 42l-15 114l-214 -55q-5 18 -33 55h-340zM1244 670v-255q0 -62 -50 -106q-49 -42 -113 -43h-405q-64 1 -113 43q-48 43 -48 106v109q0 62 48 104q49 42 115 42h566z" />
    <glyph glyph-name="ntilde" unicode="&#xf1;" horiz-adv-x="1483" 
d="M1187 0h316v613q0 148 -120 256q-119 110 -282 110h-305q-133 0 -223 -123l-47 123h-246v-979h316v722h428q74 0 118 -41q45 -39 45 -105v-576zM1411 1387h-216q-24 -85 -122 -85q-71 0 -184 54q-108 54 -196 54q-252 0 -321 -306h216q26 83 118 83q70 0 188 -53
q124 -53 196 -53q255 0 321 306z" />
    <glyph glyph-name="ograve" unicode="&#xf2;" horiz-adv-x="1563" 
d="M200 611v-243q0 -146 121 -258q122 -110 284 -110h553q162 0 284 110q121 109 121 256v247q0 148 -121 256q-119 110 -281 110h-559q-162 0 -281 -110q-121 -109 -121 -258zM516 412v159q0 57 45 102q45 46 118 46h405q75 0 118 -46q45 -43 45 -100v-163q0 -55 -45 -100
q-43 -46 -118 -46h-405q-72 0 -118 46q-45 46 -45 102zM842 1505h-346l303 -424h217z" />
    <glyph glyph-name="oacute" unicode="&#xf3;" horiz-adv-x="1563" 
d="M200 611v-243q0 -146 121 -258q122 -110 284 -110h553q162 0 284 110q121 109 121 256v247q0 148 -121 256q-119 110 -281 110h-559q-162 0 -281 -110q-121 -109 -121 -258zM516 412v159q0 57 45 102q45 46 118 46h405q75 0 118 -46q45 -43 45 -100v-163q0 -55 -45 -100
q-43 -46 -118 -46h-405q-72 0 -118 46q-45 46 -45 102zM947 1505l-175 -424h217l303 424h-345z" />
    <glyph glyph-name="ocircumflex" unicode="&#xf4;" horiz-adv-x="1563" 
d="M200 611v-243q0 -146 121 -258q122 -110 284 -110h553q162 0 284 110q121 109 121 256v247q0 148 -121 256q-119 110 -281 110h-559q-162 0 -281 -110q-121 -109 -121 -258zM516 412v159q0 57 45 102q45 46 118 46h405q75 0 118 -46q45 -43 45 -100v-163q0 -55 -45 -100
q-43 -46 -118 -46h-405q-72 0 -118 46q-45 46 -45 102zM635 1081l230 245l258 -245h286l-355 425h-345l-353 -425h279z" />
    <glyph glyph-name="otilde" unicode="&#xf5;" horiz-adv-x="1563" 
d="M200 611v-243q0 -146 121 -258q122 -110 284 -110h553q162 0 284 110q121 109 121 256v247q0 148 -121 256q-119 110 -281 110h-559q-162 0 -281 -110q-121 -109 -121 -258zM516 412v159q0 57 45 102q45 46 118 46h405q75 0 118 -46q45 -43 45 -100v-163q0 -55 -45 -100
q-43 -46 -118 -46h-405q-72 0 -118 46q-45 46 -45 102zM1401 1387h-216q-24 -85 -122 -85q-71 0 -184 54q-108 54 -196 54q-252 0 -321 -306h216q26 83 118 83q70 0 188 -53q124 -53 196 -53q255 0 321 306z" />
    <glyph glyph-name="odieresis" unicode="&#xf6;" horiz-adv-x="1563" 
d="M200 611v-243q0 -146 121 -258q122 -110 284 -110h553q162 0 284 110q121 109 121 256v247q0 148 -121 256q-119 110 -281 110h-559q-162 0 -281 -110q-121 -109 -121 -258zM516 412v159q0 57 45 102q45 46 118 46h405q75 0 118 -46q45 -43 45 -100v-163q0 -55 -45 -100
q-43 -46 -118 -46h-405q-72 0 -118 46q-45 46 -45 102zM831 1364h-329v-283h329v283zM1263 1364h-329v-283h329v283z" />
    <glyph glyph-name="divide" unicode="&#xf7;" horiz-adv-x="1334" 
d="M953 390h-329v-283h329v283zM953 1145h-329v-283h329v283zM1334 496v260h-1094v-260h1094z" />
    <glyph glyph-name="oslash" unicode="&#xf8;" horiz-adv-x="1563" 
d="M1065 719l-605 -323v202q0 57 37 88q37 33 97 33h471zM586 263l607 324v-204q0 -55 -38 -87q-39 -33 -97 -33h-472zM90 199v-200l188 100q118 -99 272 -99h553q162 0 284 110q121 109 121 256v247q0 77 -25 128l82 44v200l-193 -103q-112 97 -266 97h-559
q-162 0 -281 -110q-121 -109 -121 -258v-243q0 -76 25 -126z" />
    <glyph glyph-name="ugrave" unicode="&#xf9;" horiz-adv-x="1483" 
d="M556 979h-316v-611q0 -146 121 -258q122 -110 284 -110h300q136 0 226 123l46 -123h246v979h-316v-717h-428q-72 0 -118 40q-45 40 -45 108v569zM824 1505h-346l303 -424h217z" />
    <glyph glyph-name="uacute" unicode="&#xfa;" horiz-adv-x="1483" 
d="M556 979h-316v-611q0 -146 121 -258q122 -110 284 -110h300q136 0 226 123l46 -123h246v979h-316v-717h-428q-72 0 -118 40q-45 40 -45 108v569zM893 1505l-175 -424h217l303 424h-345z" />
    <glyph glyph-name="ucircumflex" unicode="&#xfb;" horiz-adv-x="1483" 
d="M556 979h-316v-611q0 -146 121 -258q122 -110 284 -110h300q136 0 226 123l46 -123h246v979h-316v-717h-428q-72 0 -118 40q-45 40 -45 108v569zM605 1081l230 245l258 -245h286l-355 425h-345l-353 -425h279z" />
    <glyph glyph-name="udieresis" unicode="&#xfc;" horiz-adv-x="1483" 
d="M556 979h-316v-611q0 -146 121 -258q122 -110 284 -110h300q136 0 226 123l46 -123h246v979h-316v-717h-428q-72 0 -118 40q-45 40 -45 108v569zM801 1364h-329v-283h329v283zM1233 1364h-329v-283h329v283z" />
    <glyph glyph-name="yacute" unicode="&#xfd;" horiz-adv-x="1377" 
d="M681 -448l696 1427h-365l-338 -748l-304 748h-370l456 -979h107l-237 -448h355zM717 1505l-175 -424h217l303 424h-345z" />
    <glyph glyph-name="thorn" unicode="&#xfe;" horiz-adv-x="1603" 
d="M596 266v456h568q74 0 117 -40q46 -39 46 -107v-163q0 -66 -45 -105q-47 -41 -118 -41h-568zM596 1455l-316 -193v-1710l316 188v272q0 79 -23 111q105 -123 225 -123h440q162 0 284 110q121 109 121 256v247q0 148 -121 256q-119 110 -281 110h-445q-132 0 -222 -121
q22 34 22 110v487z" />
    <glyph glyph-name="ydieresis" unicode="&#xff;" horiz-adv-x="1377" 
d="M681 -448l696 1427h-365l-338 -748l-304 748h-370l456 -979h107l-237 -448h355zM637 1364h-329v-283h329v283zM1069 1364h-329v-283h329v283z" />
    <glyph glyph-name="Amacron" unicode="&#x100;" horiz-adv-x="1892" 
d="M498 186h886l109 -186h399l-755 1262h-382l-755 -1262h390zM1246 419h-609l304 515zM566 1578v-214h761v214h-761z" />
    <glyph glyph-name="amacron" unicode="&#x101;" horiz-adv-x="1479" 
d="M1113 417v-193h-531q-42 0 -74 29q-28 31 -29 67q1 40 29 68q29 29 71 29h534zM497 0h455q105 0 180 104l40 -104h257v637q0 181 -81 261q-81 81 -226 81h-792l-75 -222h748q50 0 80 -31q30 -28 30 -68v-107q-67 82 -173 82h-443q-148 0 -242 -94q-95 -95 -95 -226
q0 -123 95 -218q98 -95 242 -95zM438 1295v-214h761v214h-761z" />
    <glyph glyph-name="Abreve" unicode="&#x102;" horiz-adv-x="1892" 
d="M498 186h886l109 -186h399l-755 1262h-382l-755 -1262h390zM1246 419h-609l304 515zM751 1789h-245q16 -160 125 -284q129 -141 314 -141q186 0 315 141q110 119 125 284h-244q0 -78 -57 -138q-59 -59 -138 -59q-84 0 -139 58q-56 59 -56 139z" />
    <glyph glyph-name="abreve" unicode="&#x103;" horiz-adv-x="1479" 
d="M1113 417v-193h-531q-42 0 -74 29q-28 31 -29 67q1 40 29 68q29 29 71 29h534zM497 0h455q105 0 180 104l40 -104h257v637q0 181 -81 261q-81 81 -226 81h-792l-75 -222h748q50 0 80 -31q30 -28 30 -68v-107q-67 82 -173 82h-443q-148 0 -242 -94q-95 -95 -95 -226
q0 -123 95 -218q98 -95 242 -95zM617 1506h-245q16 -160 125 -284q129 -141 314 -141q186 0 315 141q110 119 125 284h-244q0 -78 -57 -138q-59 -59 -138 -59q-84 0 -139 58q-56 59 -56 139z" />
    <glyph glyph-name="Aogonek" unicode="&#x104;" horiz-adv-x="1892" 
d="M1246 419h-609l304 515zM1384 186l109 -186h142l-92 -63q-82 -54 -121 -109q-39 -54 -39 -141q0 -121 88 -200q89 -77 218 -77h121l77 213h-162q-47 1 -85 36q-35 38 -36 85q2 74 121 150l167 106l-755 1262h-382l-755 -1262h390l108 186h886z" />
    <glyph glyph-name="aogonek" unicode="&#x105;" horiz-adv-x="1479" 
d="M1113 417v-193h-531q-42 0 -74 29q-28 31 -29 67q1 40 29 68q29 29 71 29h534zM1172 0l-92 -63q-82 -54 -121 -109q-39 -54 -39 -141q0 -121 88 -200q89 -77 218 -77h121l77 213h-162q-47 1 -85 36q-35 38 -36 85q2 74 121 150l167 106v637q0 181 -81 261q-81 81 -226 81
h-792l-75 -222h748q50 0 80 -31q30 -28 30 -68v-107q-67 82 -173 82h-443q-148 0 -242 -94q-95 -95 -95 -226q0 -123 95 -218q98 -95 242 -95h455q105 0 180 104z" />
    <glyph glyph-name="Cacute" unicode="&#x106;" horiz-adv-x="1700" 
d="M1637 0l93 285h-954q-92 2 -151 52q-59 51 -59 137v320q0 86 58 138q62 53 152 53h861l93 277h-1042q-214 0 -342 -125q-126 -125 -126 -295v-422q0 -166 127 -293q130 -127 341 -127h949zM1058 1788l-175 -424h217l303 424h-345z" />
    <glyph glyph-name="cacute" unicode="&#x107;" horiz-adv-x="1310" 
d="M1262 0l88 263h-671q-71 0 -117 39q-46 40 -46 108v160q0 69 45 108q46 40 118 40h583l88 261h-748q-162 0 -281 -110q-121 -109 -121 -258v-243q0 -146 121 -258q122 -110 284 -110h657zM864 1505l-175 -424h217l303 424h-345z" />
    <glyph glyph-name="Ccircumflex" unicode="&#x108;" horiz-adv-x="1700" 
d="M1637 0l93 285h-954q-92 2 -151 52q-59 51 -59 137v320q0 86 58 138q62 53 152 53h861l93 277h-1042q-214 0 -342 -125q-126 -125 -126 -295v-422q0 -166 127 -293q130 -127 341 -127h949zM782 1364l230 245l258 -245h286l-355 425h-345l-353 -425h279z" />
    <glyph glyph-name="ccircumflex" unicode="&#x109;" horiz-adv-x="1310" 
d="M1262 0l88 263h-671q-71 0 -117 39q-46 40 -46 108v160q0 69 45 108q46 40 118 40h583l88 261h-748q-162 0 -281 -110q-121 -109 -121 -258v-243q0 -146 121 -258q122 -110 284 -110h657zM570 1081l230 245l258 -245h286l-355 425h-345l-353 -425h279z" />
    <glyph glyph-name="Cdot" unicode="&#x10a;" horiz-adv-x="1700" 
d="M1237 1636h-329v-282h329v282zM1637 0l93 285h-954q-92 2 -151 52q-59 51 -59 137v320q0 86 58 138q62 53 152 53h861l93 277h-1042q-214 0 -342 -125q-126 -125 -126 -295v-422q0 -166 127 -293q130 -127 341 -127h949z" />
    <glyph glyph-name="cdot" unicode="&#x10b;" horiz-adv-x="1310" 
d="M1262 0l88 263h-671q-71 0 -117 39q-46 40 -46 108v160q0 69 45 108q46 40 118 40h583l88 261h-748q-162 0 -281 -110q-121 -109 -121 -258v-243q0 -146 121 -258q122 -110 284 -110h657zM994 1354h-329v-283h329v283z" />
    <glyph glyph-name="Ccaron" unicode="&#x10c;" horiz-adv-x="1700" 
d="M1637 0l93 285h-954q-92 2 -151 52q-59 51 -59 137v320q0 86 58 138q62 53 152 53h861l93 277h-1042q-214 0 -342 -125q-126 -125 -126 -295v-422q0 -166 127 -293q130 -127 341 -127h949zM1042 1543l-259 246h-286l355 -425h345l353 425h-279z" />
    <glyph glyph-name="ccaron" unicode="&#x10d;" horiz-adv-x="1310" 
d="M1262 0l88 263h-671q-71 0 -117 39q-46 40 -46 108v160q0 69 45 108q46 40 118 40h583l88 261h-748q-162 0 -281 -110q-121 -109 -121 -258v-243q0 -146 121 -258q122 -110 284 -110h657zM842 1260l-259 246h-286l355 -425h345l353 425h-279z" />
    <glyph glyph-name="Dcaron" unicode="&#x10e;" horiz-adv-x="1939" 
d="M300 1262v-1262h1211q215 0 342 127q126 126 126 290v428q0 169 -126 292q-125 125 -342 125h-1211zM645 285v700h778q93 0 152 -53q59 -50 59 -138v-320q0 -86 -60 -137q-56 -50 -151 -52h-778zM1081 1543l-259 246h-286l355 -425h345l353 425h-279z" />
    <glyph glyph-name="dcaron" unicode="&#x10f;" horiz-adv-x="1856" 
d="M1318 0h245v1455l-316 -193v-294q1 -78 23 -112q-102 123 -224 123h-444q-162 0 -281 -110q-121 -109 -121 -258v-243q0 -146 121 -258q122 -110 284 -110h439q136 0 226 122zM1247 719v-455h-568q-71 0 -117 39q-46 40 -46 107v161q0 69 45 108q46 40 118 40h568z
M2006 1505h-312v-283h169v-50q0 -26 -20 -46t-54 -20h-88l-48 -148h121q122 0 185 60q47 44 47 184v303z" />
    <glyph glyph-name="Dcroat" unicode="&#x110;" horiz-adv-x="1939" 
d="M136 1262v-518h-164v-217h164v-527h1211q215 0 342 127q126 126 126 290v428q0 169 -126 292q-125 125 -342 125h-1211zM481 285v242h318v217h-317l-1 241h778q93 0 152 -53q59 -50 59 -138v-320q0 -86 -60 -137q-56 -50 -151 -52h-778z" />
    <glyph glyph-name="dcroat" unicode="&#x111;" horiz-adv-x="1603" 
d="M1247 719v-455h-568q-71 0 -117 39q-46 40 -46 107v161q0 69 45 108q46 40 118 40h568zM1763 1222h-200v277l-316 -193v-84h-364v-138h364v-116q1 -78 23 -112q-102 123 -224 123h-444q-162 0 -281 -110q-121 -109 -121 -258v-243q0 -146 121 -258q122 -110 284 -110h439
q136 0 226 122l48 -122h245v1084h200v138z" />
    <glyph glyph-name="Emacron" unicode="&#x112;" horiz-adv-x="1668" 
d="M1658 764h-1014v217h1000l94 281h-1438v-1262h1344l94 281h-1094v226h928zM639 1578v-214h761v214h-761z" />
    <glyph glyph-name="emacron" unicode="&#x113;" horiz-adv-x="1514" 
d="M1228 599h-717v15q0 66 44 105q44 41 118 41h392q74 0 118 -41q45 -39 45 -108v-12zM1389 0l82 243h-798q-70 2 -117 40q-45 39 -45 104v26h1023v198q0 149 -121 258q-116 110 -281 110h-530q-162 0 -281 -110q-121 -109 -121 -258v-243q0 -146 121 -258
q122 -110 284 -110h784zM487 1295v-214h761v214h-761z" />
    <glyph glyph-name="Ebreve" unicode="&#x114;" horiz-adv-x="1668" 
d="M1658 764h-1014v217h1000l94 281h-1438v-1262h1344l94 281h-1094v226h928zM824 1789h-245q16 -160 125 -284q129 -141 314 -141q186 0 315 141q110 119 125 284h-244q0 -78 -57 -138q-59 -59 -138 -59q-84 0 -139 58q-56 59 -56 139z" />
    <glyph glyph-name="ebreve" unicode="&#x115;" horiz-adv-x="1514" 
d="M1228 599h-717v15q0 66 44 105q44 41 118 41h392q74 0 118 -41q45 -39 45 -108v-12zM1389 0l82 243h-798q-70 2 -117 40q-45 39 -45 104v26h1023v198q0 149 -121 258q-116 110 -281 110h-530q-162 0 -281 -110q-121 -109 -121 -258v-243q0 -146 121 -258
q122 -110 284 -110h784zM672 1506h-245q16 -160 125 -284q129 -141 314 -141q186 0 315 141q110 119 125 284h-244q0 -78 -57 -138q-59 -59 -138 -59q-84 0 -139 58q-56 59 -56 139z" />
    <glyph glyph-name="Edot" unicode="&#x116;" horiz-adv-x="1668" 
d="M1185 1636h-330v-282h330v282zM1658 764h-1014v217h1000l94 281h-1438v-1262h1344l94 281h-1094v226h928z" />
    <glyph glyph-name="edot" unicode="&#x117;" horiz-adv-x="1514" 
d="M1036 1354h-329v-283h329v283zM1228 599h-717v15q0 66 44 105q44 41 118 41h392q74 0 118 -41q45 -39 45 -108v-12zM1389 0l82 243h-798q-70 2 -117 40q-45 39 -45 104v26h1023v198q0 149 -121 258q-116 110 -281 110h-530q-162 0 -281 -110q-121 -109 -121 -258v-243
q0 -146 121 -258q122 -110 284 -110h784z" />
    <glyph glyph-name="Eogonek" unicode="&#x118;" horiz-adv-x="1668" 
d="M300 1262v-1262h1087l-92 -63q-82 -54 -121 -109q-39 -54 -39 -141q0 -121 88 -200q89 -77 218 -77h121l77 213h-162q-47 1 -85 36q-35 38 -36 85q2 74 121 150l167 106l94 281h-1094v226h928l86 257h-1014v217h1000l94 281h-1438z" />
    <glyph glyph-name="eogonek" unicode="&#x119;" horiz-adv-x="1514" 
d="M1228 599h-717v15q0 66 44 105q44 41 118 41h392q74 0 118 -41q45 -39 45 -108v-12zM1132 0l-92 -63q-82 -54 -121 -109q-39 -54 -39 -141q0 -121 88 -200q89 -77 218 -77h121l77 213h-162q-47 1 -85 36q-35 38 -36 85q2 74 121 150l167 106l82 243h-798q-70 2 -117 40
q-45 39 -45 104v26h1023v198q0 149 -121 258q-116 110 -281 110h-530q-162 0 -281 -110q-121 -109 -121 -258v-243q0 -146 121 -258q122 -110 284 -110h527z" />
    <glyph glyph-name="Ecaron" unicode="&#x11a;" horiz-adv-x="1668" 
d="M1658 764h-1014v217h1000l94 281h-1438v-1262h1344l94 281h-1094v226h928zM1038 1543l-259 246h-286l355 -425h345l353 425h-279z" />
    <glyph glyph-name="ecaron" unicode="&#x11b;" horiz-adv-x="1514" 
d="M1228 599h-717v15q0 66 44 105q44 41 118 41h392q74 0 118 -41q45 -39 45 -108v-12zM1389 0l82 243h-798q-70 2 -117 40q-45 39 -45 104v26h1023v198q0 149 -121 258q-116 110 -281 110h-530q-162 0 -281 -110q-121 -109 -121 -258v-243q0 -146 121 -258
q122 -110 284 -110h784zM886 1260l-259 246h-286l355 -425h345l353 425h-279z" />
    <glyph glyph-name="Gcircumflex" unicode="&#x11c;" horiz-adv-x="1913" 
d="M220 842v-422q0 -166 127 -293q130 -127 341 -127h829q170 3 288 109q118 105 118 255v397h-689l-83 -252h427v-89q0 -73 -31 -104q-28 -30 -112 -31h-659q-92 2 -151 52q-59 51 -59 137v321q0 86 58 138q59 53 145 53h1001l93 276h-1175q-214 0 -342 -125
q-126 -125 -126 -295zM843 1364l230 245l258 -245h286l-355 425h-345l-353 -425h279z" />
    <glyph glyph-name="gcircumflex" unicode="&#x11d;" horiz-adv-x="1603" 
d="M356 -200l-86 -248h986q145 0 226 81t81 261v1085h-245l-48 -122q-86 122 -224 122h-444q-162 0 -281 -110q-121 -109 -121 -258v-243q0 -146 121 -258q122 -110 284 -110h439q122 0 226 123q-22 -34 -23 -111v-112q0 -39 -31 -69q-31 -31 -83 -31h-777zM1247 719v-455
h-568q-71 0 -117 39q-46 40 -46 107v161q0 69 45 108q46 40 118 40h568zM635 1081l230 245l258 -245h286l-355 425h-345l-353 -425h279z" />
    <glyph glyph-name="Gbreve" unicode="&#x11e;" horiz-adv-x="1913" 
d="M220 842v-422q0 -166 127 -293q130 -127 341 -127h829q170 3 288 109q118 105 118 255v397h-689l-83 -252h427v-89q0 -73 -31 -104q-28 -30 -112 -31h-659q-92 2 -151 52q-59 51 -59 137v321q0 86 58 138q59 53 145 53h1001l93 276h-1175q-214 0 -342 -125
q-126 -125 -126 -295zM877 1789h-245q16 -160 125 -284q129 -141 314 -141q186 0 315 141q110 119 125 284h-244q0 -78 -57 -138q-59 -59 -138 -59q-84 0 -139 58q-56 59 -56 139z" />
    <glyph glyph-name="gbreve" unicode="&#x11f;" horiz-adv-x="1603" 
d="M356 -200l-86 -248h986q145 0 226 81t81 261v1085h-245l-48 -122q-86 122 -224 122h-444q-162 0 -281 -110q-121 -109 -121 -258v-243q0 -146 121 -258q122 -110 284 -110h439q122 0 226 123q-22 -34 -23 -111v-112q0 -39 -31 -69q-31 -31 -83 -31h-777zM1247 719v-455
h-568q-71 0 -117 39q-46 40 -46 107v161q0 69 45 108q46 40 118 40h568zM699 1506h-245q16 -160 125 -284q129 -141 314 -141q186 0 315 141q110 119 125 284h-244q0 -78 -57 -138q-59 -59 -138 -59q-84 0 -139 58q-56 59 -56 139z" />
    <glyph glyph-name="Gdot" unicode="&#x120;" horiz-adv-x="1913" 
d="M1262 1636h-329v-282h329v282zM220 842v-422q0 -166 127 -293q130 -127 341 -127h829q170 3 288 109q118 105 118 255v397h-689l-83 -252h427v-89q0 -73 -31 -104q-28 -30 -112 -31h-659q-92 2 -151 52q-59 51 -59 137v321q0 86 58 138q59 53 145 53h1001l93 276h-1175
q-214 0 -342 -125q-126 -125 -126 -295z" />
    <glyph glyph-name="gdot" unicode="&#x121;" horiz-adv-x="1603" 
d="M1037 1354h-329v-283h329v283zM356 -200l-86 -248h986q145 0 226 81t81 261v1085h-245l-48 -122q-86 122 -224 122h-444q-162 0 -281 -110q-121 -109 -121 -258v-243q0 -146 121 -258q122 -110 284 -110h439q122 0 226 123q-22 -34 -23 -111v-112q0 -39 -31 -69
q-31 -31 -83 -31h-777zM1247 719v-455h-568q-71 0 -117 39q-46 40 -46 107v161q0 69 45 108q46 40 118 40h568z" />
    <glyph glyph-name="Gcedilla" unicode="&#x122;" horiz-adv-x="1913" 
d="M220 842v-422q0 -166 127 -293q130 -127 341 -127h829q170 3 288 109q118 105 118 255v397h-689l-83 -252h427v-89q0 -73 -31 -104q-28 -30 -112 -31h-659q-92 2 -151 52q-59 51 -59 137v321q0 86 58 138q59 53 145 53h1001l93 276h-1175q-214 0 -342 -125
q-126 -125 -126 -295zM995 -102l-175 -545h211l292 545h-328z" />
    <glyph glyph-name="gcedilla" unicode="&#x123;" horiz-adv-x="1603" 
d="M356 -200l-86 -248h986q145 0 226 81t81 261v1085h-245l-48 -122q-86 122 -224 122h-444q-162 0 -281 -110q-121 -109 -121 -258v-243q0 -146 121 -258q122 -110 284 -110h439q122 0 226 123q-22 -34 -23 -111v-112q0 -39 -31 -69q-31 -31 -83 -31h-777zM1247 719v-455
h-568q-71 0 -117 39q-46 40 -46 107v161q0 69 45 108q46 40 118 40h568zM712 1071h329v283h-169v50q0 26 20 46t54 20h88l48 148h-121q-122 0 -185 -60q-64 -60 -64 -184v-303z" />
    <glyph glyph-name="Hcircumflex" unicode="&#x124;" horiz-adv-x="1913" 
d="M1913 1262h-344v-472h-925v472h-344v-1262h344v509h925v-509h344v1262zM859 1364l230 245l258 -245h286l-355 425h-345l-353 -425h279z" />
    <glyph glyph-name="hcircumflex" unicode="&#x125;" horiz-adv-x="1483" 
d="M1187 0h316v613q0 148 -120 256q-119 110 -282 110h-305q-120 0 -223 -123q23 35 23 112v487l-316 -193v-1262h316v722h428q74 0 118 -41q45 -39 45 -105v-576zM645 1557l230 245l258 -245h286l-355 425h-345l-353 -425h279z" />
    <glyph glyph-name="Hbar" unicode="&#x126;" horiz-adv-x="1913" 
d="M438 921h925v-139h-925v139zM94 1262v-131h-206v-210h206v-921h344v501h925v-501h344v921h200v210h-200v131h-344v-131h-925v131h-344z" />
    <glyph glyph-name="hbar" unicode="&#x127;" horiz-adv-x="1483" 
d="M396 1084h364v138h-364v277l-316 -193v-84h-200v-138h200v-1084h316v722h428q74 0 118 -41q45 -39 45 -105v-576h316v613q0 148 -120 256q-119 110 -282 110h-305q-120 0 -223 -123q23 35 23 112v116z" />
    <glyph glyph-name="Itilde" unicode="&#x128;" horiz-adv-x="644" 
d="M296 1262h-344v-1262h344v1262zM643 1670h-216q-24 -85 -122 -85q-71 0 -184 54q-108 54 -196 54q-252 0 -321 -306h216q26 83 118 83q70 0 188 -53q124 -53 196 -53q255 0 321 306z" />
    <glyph glyph-name="itilde" unicode="&#x129;" horiz-adv-x="596" 
d="M235 979h-317v-979h317v979zM595 1387h-216q-24 -85 -122 -85q-71 0 -184 54q-108 54 -196 54q-252 0 -321 -306h216q26 83 118 83q70 0 188 -53q124 -53 196 -53q255 0 321 306z" />
    <glyph glyph-name="Imacron" unicode="&#x12a;" horiz-adv-x="644" 
d="M436 1262h-344v-1262h344v1262zM-116 1578v-214h761v214h-761z" />
    <glyph glyph-name="imacron" unicode="&#x12b;" horiz-adv-x="597" 
d="M375 979h-317v-979h317v979zM-164 1295v-214h761v214h-761z" />
    <glyph glyph-name="Ibreve" unicode="&#x12c;" horiz-adv-x="644" 
d="M376 1262h-344v-1262h344v1262zM9 1789h-245q16 -160 125 -284q129 -141 314 -141q186 0 315 141q110 119 125 284h-244q0 -78 -57 -138q-59 -59 -138 -59q-84 0 -139 58q-56 59 -56 139z" />
    <glyph glyph-name="ibreve" unicode="&#x12d;" horiz-adv-x="597" 
d="M315 979h-317v-979h317v979zM-39 1506h-245q16 -160 125 -284q129 -141 314 -141q186 0 315 141q110 119 125 284h-244q0 -78 -57 -138q-59 -59 -138 -59q-84 0 -139 58q-56 59 -56 139z" />
    <glyph glyph-name="Iogonek" unicode="&#x12e;" horiz-adv-x="644" 
d="M135 1262v-1262h87l-92 -63q-82 -54 -121 -109q-39 -54 -39 -141q0 -121 88 -200q89 -77 218 -77h121l77 213h-162q-47 1 -85 36q-35 38 -36 85q2 74 121 150l167 106v1262h-344z" />
    <glyph glyph-name="iogonek" unicode="&#x12f;" horiz-adv-x="597" 
d="M88 979v-979h60l-92 -63q-82 -54 -121 -109q-39 -54 -39 -141q0 -121 88 -200q89 -77 218 -77h121l77 213h-162q-47 1 -85 36q-35 38 -36 85q2 74 121 150l167 106v979h-317z" />
    <glyph glyph-name="Idot" unicode="&#x130;" horiz-adv-x="644" 
d="M637 1636h-329v-282h329v282zM644 1262h-344v-1262h344v1262z" />
    <glyph glyph-name="dotlessi" unicode="&#x131;" horiz-adv-x="597" 
d="M597 979h-317v-979h317v979z" />
    <glyph glyph-name="IJ" unicode="&#x132;" horiz-adv-x="1877" 
d="M644 1262h-344v-1262h344v1262zM1897 1262h-344v-829q0 -67 -41 -108q-40 -40 -122 -40h-458l-99 -285h659q172 3 287 109q118 105 118 257v896z" />
    <glyph glyph-name="ij" unicode="&#x133;" horiz-adv-x="1272" 
d="M597 1356h-317v-241h317v241zM597 979h-317v-979h317v979zM1272 1356h-316v-241h316v241zM720 -152l-83 -248h215q202 0 312 98q108 100 108 312v969h-316v-1020q0 -46 -33 -79q-32 -32 -90 -32h-113z" />
    <glyph glyph-name="Jcircumflex" unicode="&#x134;" horiz-adv-x="1250" 
d="M1048 1262h-344v-829q0 -67 -41 -108q-40 -40 -122 -40h-458l-99 -285h659q172 3 287 109q118 105 118 257v896zM623 1364l230 245l258 -245h286l-355 425h-345l-353 -425h279z" />
    <glyph glyph-name="jcircumflex" unicode="&#x135;" horiz-adv-x="675" 
d="M-154 -152l-83 -248h215q202 0 312 98q108 100 108 312v969h-316v-1020q0 -46 -33 -79q-32 -32 -90 -32h-113zM5 1081l230 245l258 -245h286l-355 425h-345l-353 -425h279z" />
    <glyph glyph-name="Kcedilla" unicode="&#x136;" horiz-adv-x="1659" 
d="M956 670l719 592h-474l-651 -543v543h-344v-1262h344v608l717 -608h476zM735 -102l-175 -545h211l292 545h-328z" />
    <glyph glyph-name="kcedilla" unicode="&#x137;" horiz-adv-x="1337" 
d="M941 519l482 460h-414l-410 -420v896l-319 -193v-1262h319v472l461 -472h417zM657 -102l-175 -545h211l292 545h-328z" />
    <glyph glyph-name="kgreenlandic" unicode="&#x138;" horiz-adv-x="1381" 
d="M1017 519l482 460h-432l-392 -420v420h-319v-979h319v472l443 -472h435z" />
    <glyph glyph-name="Lacute" unicode="&#x139;" horiz-adv-x="1542" 
d="M1574 285h-1025v977h-345v-1262h1273zM443 1788l-175 -424h217l303 424h-345z" />
    <glyph glyph-name="lacute" unicode="&#x13a;" horiz-adv-x="597" 
d="M597 1455l-317 -193v-1262h317v1455zM497 1981l-175 -424h217l303 424h-345z" />
    <glyph glyph-name="Lcedilla" unicode="&#x13b;" horiz-adv-x="1542" 
d="M1574 285h-1025v977h-345v-1262h1273zM727 -102l-175 -545h211l292 545h-328z" />
    <glyph glyph-name="lcedilla" unicode="&#x13c;" horiz-adv-x="597" 
d="M419 1455l-317 -193v-1262h317v1455zM99 -102l-175 -545h211l292 545h-328z" />
    <glyph glyph-name="Lcaron" unicode="&#x13d;" horiz-adv-x="1542" 
d="M1574 285h-1025v977h-345v-1262h1273zM1377 1312h-312v-283h169v-50q0 -26 -20 -46t-54 -20h-88l-48 -148h121q122 0 185 60q47 44 47 184v303z" />
    <glyph glyph-name="lcaron" unicode="&#x13e;" horiz-adv-x="850" 
d="M597 1455l-317 -193v-1262h317v1455zM1040 1505h-312v-283h169v-50q0 -26 -20 -46t-54 -20h-88l-48 -148h121q122 0 185 60q47 44 47 184v303z" />
    <glyph glyph-name="Ldot" unicode="&#x13f;" horiz-adv-x="1542" 
d="M1574 285h-1025v977h-345v-1262h1273zM1377 921h-329v-282h329v282z" />
    <glyph glyph-name="ldot" unicode="&#x140;" horiz-adv-x="850" 
d="M597 1455l-317 -193v-1262h317v1455zM1040 819h-329v-282h329v282z" />
    <glyph glyph-name="Lslash" unicode="&#x141;" horiz-adv-x="1763" 
d="M1021 1032l-281 -162v392h-345v-591l-135 -78v-190l135 79v-482h1274l96 285h-1025v395l281 162v190z" />
    <glyph glyph-name="lslash" unicode="&#x142;" horiz-adv-x="651" 
d="M651 979l-177 -101v577l-317 -193v-566l-177 -103v-190l177 103v-506h317v689l177 103v187z" />
    <glyph glyph-name="Nacute" unicode="&#x143;" horiz-adv-x="1895" 
d="M1895 0v1262h-348v-826l-900 826h-347v-1262h347v823l900 -823h348zM1103 1788l-175 -424h217l303 424h-345z" />
    <glyph glyph-name="nacute" unicode="&#x144;" horiz-adv-x="1483" 
d="M1187 0h316v613q0 148 -120 256q-119 110 -282 110h-305q-133 0 -223 -123l-47 123h-246v-979h316v722h428q74 0 118 -41q45 -39 45 -105v-576zM933 1505l-175 -424h217l303 424h-345z" />
    <glyph glyph-name="Ncedilla" unicode="&#x145;" horiz-adv-x="1895" 
d="M1895 0v1262h-348v-826l-900 826h-347v-1262h347v823l900 -823h348zM949 -102l-175 -545h211l292 545h-328z" />
    <glyph glyph-name="ncedilla" unicode="&#x146;" horiz-adv-x="1483" 
d="M1187 0h316v613q0 148 -120 256q-119 110 -282 110h-305q-133 0 -223 -123l-47 123h-246v-979h316v722h428q74 0 118 -41q45 -39 45 -105v-576zM731 -102l-175 -545h211l292 545h-328z" />
    <glyph glyph-name="Ncaron" unicode="&#x147;" horiz-adv-x="1895" 
d="M1895 0v1262h-348v-826l-900 826h-347v-1262h347v823l900 -823h348zM1117 1543l-259 246h-286l355 -425h345l353 425h-279z" />
    <glyph glyph-name="ncaron" unicode="&#x148;" horiz-adv-x="1483" 
d="M1187 0h316v613q0 148 -120 256q-119 110 -282 110h-305q-133 0 -223 -123l-47 123h-246v-979h316v722h428q74 0 118 -41q45 -39 45 -105v-576zM911 1260l-259 246h-286l355 -425h345l353 425h-279z" />
    <glyph glyph-name="napostrophe" unicode="&#x149;" horiz-adv-x="1708" 
d="M962 0h316v613q0 148 -120 256q-119 110 -282 110h-305q-133 0 -223 -123l-47 123h-246v-979h316v722h428q74 0 118 -41q45 -39 45 -105v-576zM183 1626h-312v-283h169v-50q0 -26 -20 -46t-54 -20h-88l-48 -148h121q122 0 185 60q47 44 47 184v303z" />
    <glyph glyph-name="Eng" unicode="&#x14a;" horiz-adv-x="1768" 
d="M1669 66v725q0 189 -155 329q-153 141 -363 141h-331q-171 0 -287 -158l-60 158h-257v-1261h347v988h549q96 0 152 -53q58 -49 58 -135v-843q0 -59 -42 -101t-116 -42h-184l-88 -262h236q264 0 402 126q139 130 139 388z" />
    <glyph glyph-name="eng" unicode="&#x14b;" horiz-adv-x="1459" 
d="M1479 -49v662q0 148 -120 256q-119 110 -282 110h-281q-133 0 -223 -123l-47 123h-246v-979h316v722h404q74 0 118 -41q45 -39 45 -105v-665q0 -46 -33 -79q-32 -32 -90 -32h-113l-83 -248h215q205 0 312 98q108 100 108 301z" />
    <glyph glyph-name="Omacron" unicode="&#x14c;" horiz-adv-x="1925" 
d="M220 842v-422q0 -166 127 -293q130 -127 341 -127h769q214 0 341 127q127 126 127 290v428q0 169 -126 292q-125 125 -342 125h-769q-214 0 -342 -125q-126 -125 -126 -295zM1369 285h-592q-90 0 -151 52q-59 50 -59 134v325q3 87 59 138q58 52 151 52h592q94 0 152 -52
q58 -50 59 -138v-322q0 -87 -59 -137q-57 -51 -152 -52zM692 1578v-214h761v214h-761z" />
    <glyph glyph-name="omacron" unicode="&#x14d;" horiz-adv-x="1563" 
d="M200 611v-243q0 -146 121 -258q122 -110 284 -110h553q162 0 284 110q121 109 121 256v247q0 148 -121 256q-119 110 -281 110h-559q-162 0 -281 -110q-121 -109 -121 -258zM516 412v159q0 57 45 102q45 46 118 46h405q75 0 118 -46q45 -43 45 -100v-163q0 -55 -45 -100
q-43 -46 -118 -46h-405q-72 0 -118 46q-45 46 -45 102zM502 1295v-214h761v214h-761z" />
    <glyph glyph-name="Obreve" unicode="&#x14e;" horiz-adv-x="1925" 
d="M220 842v-422q0 -166 127 -293q130 -127 341 -127h769q214 0 341 127q127 126 127 290v428q0 169 -126 292q-125 125 -342 125h-769q-214 0 -342 -125q-126 -125 -126 -295zM1369 285h-592q-90 0 -151 52q-59 50 -59 134v325q3 87 59 138q58 52 151 52h592q94 0 152 -52
q58 -50 59 -138v-322q0 -87 -59 -137q-57 -51 -152 -52zM877 1789h-245q16 -160 125 -284q129 -141 314 -141q186 0 315 141q110 119 125 284h-244q0 -78 -57 -138q-59 -59 -138 -59q-84 0 -139 58q-56 59 -56 139z" />
    <glyph glyph-name="obreve" unicode="&#x14f;" horiz-adv-x="1563" 
d="M200 611v-243q0 -146 121 -258q122 -110 284 -110h553q162 0 284 110q121 109 121 256v247q0 148 -121 256q-119 110 -281 110h-559q-162 0 -281 -110q-121 -109 -121 -258zM516 412v159q0 57 45 102q45 46 118 46h405q75 0 118 -46q45 -43 45 -100v-163q0 -55 -45 -100
q-43 -46 -118 -46h-405q-72 0 -118 46q-45 46 -45 102zM687 1506h-245q16 -160 125 -284q129 -141 314 -141q186 0 315 141q110 119 125 284h-244q0 -78 -57 -138q-59 -59 -138 -59q-84 0 -139 58q-56 59 -56 139z" />
    <glyph glyph-name="Odblacute" unicode="&#x150;" horiz-adv-x="1925" 
d="M220 842v-422q0 -166 127 -293q130 -127 341 -127h769q214 0 341 127q127 126 127 290v428q0 169 -126 292q-125 125 -342 125h-769q-214 0 -342 -125q-126 -125 -126 -295zM1369 285h-592q-90 0 -151 52q-59 50 -59 134v325q3 87 59 138q58 52 151 52h592q94 0 152 -52
q58 -50 59 -138v-322q0 -87 -59 -137q-57 -51 -152 -52zM929 1788l-175 -424h217l304 424h-346zM1343 1788l-174 -424h217l304 424h-347z" />
    <glyph glyph-name="odblacute" unicode="&#x151;" horiz-adv-x="1563" 
d="M200 611v-243q0 -146 121 -258q122 -110 284 -110h553q162 0 284 110q121 109 121 256v247q0 148 -121 256q-119 110 -281 110h-559q-162 0 -281 -110q-121 -109 -121 -258zM516 412v159q0 57 45 102q45 46 118 46h405q75 0 118 -46q45 -43 45 -100v-163q0 -55 -45 -100
q-43 -46 -118 -46h-405q-72 0 -118 46q-45 46 -45 102zM731 1505l-175 -424h217l304 424h-346zM1145 1505l-174 -424h217l306 424h-349z" />
    <glyph glyph-name="OE" unicode="&#x152;" horiz-adv-x="2471" 
d="M1078 285h-317q-90 0 -151 52q-59 50 -59 134v325q3 87 59 138q58 52 151 52h317q94 0 152 -52q58 -50 59 -138v-322q0 -87 -59 -137q-57 -51 -152 -52zM1370 0h1037l94 281h-851v226h685l86 257h-771v217h757l94 281h-1131v-63q-110 63 -260 63h-422q-214 0 -342 -125
q-126 -125 -126 -295v-422q0 -166 127 -293q130 -127 341 -127h422q154 0 260 64v-64z" />
    <glyph glyph-name="oe" unicode="&#x153;" horiz-adv-x="2204" 
d="M1908 599h-535v15q0 66 44 105q44 41 118 41h210q74 0 118 -41q45 -39 45 -108v-12zM516 412v159q0 57 45 102q45 46 118 46h223q75 0 118 -46q45 -43 45 -100v-163q0 -55 -45 -100q-43 -46 -118 -46h-223q-72 0 -118 46q-45 46 -45 102zM939 979h-337q-162 0 -281 -110
q-121 -109 -121 -258v-243q0 -146 121 -258q122 -110 284 -110h331q162 0 283 109q121 -109 284 -109h566l82 243h-616q-70 2 -117 40q-45 39 -45 104v26h841v198q0 149 -121 258q-116 110 -281 110h-312q-162 0 -280 -109q-118 109 -281 109z" />
    <glyph glyph-name="Racute" unicode="&#x154;" horiz-adv-x="1845" 
d="M1465 1262h-1165v-1262h347v981h764q61 0 98 -39q38 -38 38 -93q0 -54 -39 -93q-40 -40 -100 -40h-709l724 -716h472l-510 464h83q186 0 303 119q118 121 118 283q0 161 -118 279q-117 117 -306 117zM1013 1788l-175 -424h217l303 424h-345z" />
    <glyph glyph-name="racute" unicode="&#x155;" horiz-adv-x="1045" 
d="M525 979h-245v-979h316v717h500l89 262h-389q-133 0 -223 -123zM647 1505l-175 -424h217l303 424h-345z" />
    <glyph glyph-name="Rcedilla" unicode="&#x156;" horiz-adv-x="1845" 
d="M1465 1262h-1165v-1262h347v981h764q61 0 98 -39q38 -38 38 -93q0 -54 -39 -93q-40 -40 -100 -40h-709l724 -716h472l-510 464h83q186 0 303 119q118 121 118 283q0 161 -118 279q-117 117 -306 117zM841 -102l-175 -545h211l292 545h-328z" />
    <glyph glyph-name="rcedilla" unicode="&#x157;" horiz-adv-x="1045" 
d="M341 979h-245v-979h316v717h500l89 262h-389q-133 0 -223 -123zM87 -102l-175 -545h211l292 545h-328z" />
    <glyph glyph-name="Rcaron" unicode="&#x158;" horiz-adv-x="1845" 
d="M1465 1262h-1165v-1262h347v981h764q61 0 98 -39q38 -38 38 -93q0 -54 -39 -93q-40 -40 -100 -40h-709l724 -716h472l-510 464h83q186 0 303 119q118 121 118 283q0 161 -118 279q-117 117 -306 117zM1021 1543l-259 246h-286l355 -425h345l353 425h-279z" />
    <glyph glyph-name="rcaron" unicode="&#x159;" horiz-adv-x="1045" 
d="M451 979h-245v-979h316v717h500l89 262h-389q-133 0 -223 -123zM677 1260l-259 246h-286l355 -425h345l353 425h-279z" />
    <glyph glyph-name="Sacute" unicode="&#x15a;" horiz-adv-x="1737" 
d="M1021 1788l-175 -424h217l303 424h-345zM590 494h728q46 0 77 -33q32 -32 32 -77t-33 -78t-81 -33h-1022l-95 -273h1130q186 0 304 120q117 119 117 284q0 158 -117 277q-114 115 -304 115h-694q-42 0 -74 29q-28 31 -29 66q1 42 29 70q29 29 69 29h937l95 272h-1069
q-187 0 -296 -109q-114 -113 -114 -269q0 -160 114 -275t296 -115z" />
    <glyph glyph-name="sacute" unicode="&#x15b;" horiz-adv-x="1327" 
d="M808 1505l-175 -424h217l303 424h-345zM1248 523q-89 89 -233 89h-468q-33 0 -55 22q-21 22 -21 50q0 30 21 51t51 21h648l76 223h-785q-141 0 -232 -91q-90 -90 -90 -213t90 -213t232 -90h489q31 0 52 -22q22 -19 22 -52q0 -28 -22 -50t-56 -22h-723l-76 -226h847
q141 0 233 92q89 89 89 215q0 127 -89 216z" />
    <glyph glyph-name="Scircumflex" unicode="&#x15c;" horiz-adv-x="1737" 
d="M715 1364l230 245l258 -245h286l-355 425h-345l-353 -425h279zM590 494h728q46 0 77 -33q32 -32 32 -77t-33 -78t-81 -33h-1022l-95 -273h1130q186 0 304 120q117 119 117 284q0 158 -117 277q-114 115 -304 115h-694q-42 0 -74 29q-28 31 -29 66q1 42 29 70q29 29 69 29
h937l95 272h-1069q-187 0 -296 -109q-114 -113 -114 -269q0 -160 114 -275t296 -115z" />
    <glyph glyph-name="scircumflex" unicode="&#x15d;" horiz-adv-x="1327" 
d="M502 1081l230 245l258 -245h286l-355 425h-345l-353 -425h279zM1248 523q-89 89 -233 89h-468q-33 0 -55 22q-21 22 -21 50q0 30 21 51t51 21h648l76 223h-785q-141 0 -232 -91q-90 -90 -90 -213t90 -213t232 -90h489q31 0 52 -22q22 -19 22 -52q0 -28 -22 -50t-56 -22
h-723l-76 -226h847q141 0 233 92q89 89 89 215q0 127 -89 216z" />
    <glyph glyph-name="Scedilla" unicode="&#x15e;" horiz-adv-x="1737" 
d="M765 -102l-175 -545h211l292 545h-328zM590 494h728q46 0 77 -33q32 -32 32 -77t-33 -78t-81 -33h-1022l-95 -273h1130q186 0 304 120q117 119 117 284q0 158 -117 277q-114 115 -304 115h-694q-42 0 -74 29q-28 31 -29 66q1 42 29 70q29 29 69 29h937l95 272h-1069
q-187 0 -296 -109q-114 -113 -114 -269q0 -160 114 -275t296 -115z" />
    <glyph glyph-name="scedilla" unicode="&#x15f;" horiz-adv-x="1327" 
d="M576 -102l-175 -545h211l292 545h-328zM1248 523q-89 89 -233 89h-468q-33 0 -55 22q-21 22 -21 50q0 30 21 51t51 21h648l76 223h-785q-141 0 -232 -91q-90 -90 -90 -213t90 -213t232 -90h489q31 0 52 -22q22 -19 22 -52q0 -28 -22 -50t-56 -22h-723l-76 -226h847
q141 0 233 92q89 89 89 215q0 127 -89 216z" />
    <glyph glyph-name="Scaron" unicode="&#x160;" horiz-adv-x="1737" 
d="M981 1543l-259 246h-286l355 -425h345l353 425h-279zM590 494h728q46 0 77 -33q32 -32 32 -77t-33 -78t-81 -33h-1022l-95 -273h1130q186 0 304 120q117 119 117 284q0 158 -117 277q-114 115 -304 115h-694q-42 0 -74 29q-28 31 -29 66q1 42 29 70q29 29 69 29h937
l95 272h-1069q-187 0 -296 -109q-114 -113 -114 -269q0 -160 114 -275t296 -115z" />
    <glyph glyph-name="scaron" unicode="&#x161;" horiz-adv-x="1327" 
d="M760 1260l-259 246h-286l355 -425h345l353 425h-279zM1248 523q-89 89 -233 89h-468q-33 0 -55 22q-21 22 -21 50q0 30 21 51t51 21h648l76 223h-785q-141 0 -232 -91q-90 -90 -90 -213t90 -213t232 -90h489q31 0 52 -22q22 -19 22 -52q0 -28 -22 -50t-56 -22h-723
l-76 -226h847q141 0 233 92q89 89 89 215q0 127 -89 216z" />
    <glyph glyph-name="Tcedilla" unicode="&#x162;" horiz-adv-x="1651" 
d="M658 0h345v988h555l93 274h-1518l-93 -274h618v-988zM665 -102l-175 -545h211l292 545h-328z" />
    <glyph glyph-name="tcedilla" unicode="&#x163;" horiz-adv-x="969" 
d="M557 755h308l76 224h-384v347l-316 -189v-158h-125l-76 -224h201v-446q0 -147 81 -228q82 -81 250 -81h337l80 234h-315q-67 0 -93 29q-24 30 -24 84v408zM461 -102l-175 -545h211l292 545h-328z" />
    <glyph glyph-name="Tcaron" unicode="&#x164;" horiz-adv-x="1651" 
d="M863 1543l-259 246h-286l355 -425h345l353 425h-279zM658 0h345v988h555l93 274h-1518l-93 -274h618v-988z" />
    <glyph glyph-name="tcaron" unicode="&#x165;" horiz-adv-x="969" 
d="M557 755h308l76 224h-384v347l-316 -189v-158h-125l-76 -224h201v-446q0 -147 81 -228q82 -81 250 -81h337l80 234h-315q-67 0 -93 29q-24 30 -24 84v408zM1000 1613h-312v-283h169v-50q0 -26 -20 -46t-54 -20h-88l-48 -148h121q122 0 185 60q47 44 47 184v303z" />
    <glyph glyph-name="Tbar" unicode="&#x166;" horiz-adv-x="1651" 
d="M133 1262l-93 -274h618v-316h-300v-217h301l-1 -455h345v455h300v217h-300v316h555l93 274h-1518z" />
    <glyph glyph-name="tbar" unicode="&#x167;" horiz-adv-x="969" 
d="M116 979l-76 -224h201v-164h-201v-138h201v-144q0 -147 81 -228q82 -81 250 -81h337l80 234h-315q-67 0 -93 29q-24 30 -24 84v107l308 -1v138h-308v164h308l76 224h-384v347l-316 -189v-158h-125z" />
    <glyph glyph-name="Utilde" unicode="&#x168;" horiz-adv-x="1788" 
d="M1543 1670h-216q-24 -85 -122 -85q-71 0 -184 54q-108 54 -196 54q-252 0 -321 -306h216q26 83 118 83q70 0 188 -53q124 -53 196 -53q255 0 321 306zM1788 1262h-345v-791q0 -84 -59 -134q-58 -52 -151 -52h-416q-90 0 -151 52q-59 50 -59 134v791h-347v-842
q0 -166 127 -293q130 -127 341 -127h592q214 0 341 127t127 293v842z" />
    <glyph glyph-name="utilde" unicode="&#x169;" horiz-adv-x="1483" 
d="M556 979h-316v-611q0 -146 121 -258q122 -110 284 -110h300q136 0 226 123l46 -123h246v979h-316v-717h-428q-72 0 -118 40q-45 40 -45 108v569zM1371 1387h-216q-24 -85 -122 -85q-71 0 -184 54q-108 54 -196 54q-252 0 -321 -306h216q26 83 118 83q70 0 188 -53
q124 -53 196 -53q255 0 321 306z" />
    <glyph glyph-name="Umacron" unicode="&#x16a;" horiz-adv-x="1788" 
d="M644 1578v-214h761v214h-761zM1788 1262h-345v-791q0 -84 -59 -134q-58 -52 -151 -52h-416q-90 0 -151 52q-59 50 -59 134v791h-347v-842q0 -166 127 -293q130 -127 341 -127h592q214 0 341 127t127 293v842z" />
    <glyph glyph-name="umacron" unicode="&#x16b;" horiz-adv-x="1483" 
d="M556 979h-316v-611q0 -146 121 -258q122 -110 284 -110h300q136 0 226 123l46 -123h246v979h-316v-717h-428q-72 0 -118 40q-45 40 -45 108v569zM472 1295v-214h761v214h-761z" />
    <glyph glyph-name="Ubreve" unicode="&#x16c;" horiz-adv-x="1788" 
d="M829 1789h-245q16 -160 125 -284q129 -141 314 -141q186 0 315 141q110 119 125 284h-244q0 -78 -57 -138q-59 -59 -138 -59q-84 0 -139 58q-56 59 -56 139zM1788 1262h-345v-791q0 -84 -59 -134q-58 -52 -151 -52h-416q-90 0 -151 52q-59 50 -59 134v791h-347v-842
q0 -166 127 -293q130 -127 341 -127h592q214 0 341 127t127 293v842z" />
    <glyph glyph-name="ubreve" unicode="&#x16d;" horiz-adv-x="1483" 
d="M556 979h-316v-611q0 -146 121 -258q122 -110 284 -110h300q136 0 226 123l46 -123h246v979h-316v-717h-428q-72 0 -118 40q-45 40 -45 108v569zM657 1506h-245q16 -160 125 -284q129 -141 314 -141q186 0 315 141q110 119 125 284h-244q0 -78 -57 -138q-59 -59 -138 -59
q-84 0 -139 58q-56 59 -56 139z" />
    <glyph glyph-name="Uring" unicode="&#x16e;" horiz-adv-x="1788" 
d="M1788 1262h-345v-791q0 -84 -59 -134q-58 -52 -151 -52h-416q-90 0 -151 52q-59 50 -59 134v791h-347v-842q0 -166 127 -293q130 -127 341 -127h592q214 0 341 127t127 293v842zM648 1694v-20q0 -148 84 -229t264 -81h54q181 0 265 81t84 229v20q0 148 -84 228
q-85 82 -265 82h-54q-179 0 -264 -82q-84 -80 -84 -228zM877 1664v40q0 60 25 85q24 24 97 24h50q71 0 95 -24q27 -27 27 -85v-40q0 -56 -27 -84q-22 -24 -95 -24h-50q-75 0 -97 24q-25 25 -25 84z" />
    <glyph glyph-name="uring" unicode="&#x16f;" horiz-adv-x="1483" 
d="M556 979h-316v-611q0 -146 121 -258q122 -110 284 -110h300q136 0 226 123l46 -123h246v979h-316v-717h-428q-72 0 -118 40q-45 40 -45 108v569zM476 1412v-20q0 -148 84 -229t264 -81h54q181 0 265 81t84 229v20q0 148 -84 228q-85 82 -265 82h-54q-179 0 -264 -82
q-84 -80 -84 -228zM705 1382v40q0 60 25 85q24 24 97 24h50q71 0 95 -24q27 -27 27 -85v-40q0 -56 -27 -84q-22 -24 -95 -24h-50q-75 0 -97 24q-25 25 -25 84z" />
    <glyph glyph-name="Udblacute" unicode="&#x170;" horiz-adv-x="1788" 
d="M851 1788l-175 -424h217l304 424h-346zM1265 1788l-174 -424h217l304 424h-347zM1788 1262h-345v-791q0 -84 -59 -134q-58 -52 -151 -52h-416q-90 0 -151 52q-59 50 -59 134v791h-347v-842q0 -166 127 -293q130 -127 341 -127h592q214 0 341 127t127 293v842z" />
    <glyph glyph-name="udblacute" unicode="&#x171;" horiz-adv-x="1484" 
d="M556 979h-316v-611q0 -146 121 -258q122 -110 284 -110h300q136 0 226 123l46 -123h246v979h-316v-717h-428q-72 0 -118 40q-45 40 -45 108v569zM703 1505l-175 -424h217l304 424h-346zM1117 1505l-174 -424h217l304 424h-347z" />
    <glyph glyph-name="Uogonek" unicode="&#x172;" horiz-adv-x="1788" 
d="M1221 0l-26 -18q-82 -54 -121 -109q-39 -54 -39 -141q0 -121 88 -200q89 -77 218 -77h121l77 213h-162q-47 1 -85 36q-35 38 -36 85q2 74 121 150l167 106q67 32 117 82q127 127 127 293v842h-345v-791q0 -84 -59 -134q-58 -52 -151 -52h-416q-90 0 -151 52
q-59 50 -59 134v791h-347v-842q0 -166 127 -293q130 -127 341 -127h493z" />
    <glyph glyph-name="uogonek" unicode="&#x173;" horiz-adv-x="1483" 
d="M1217 0l-100 -63q-85 -54 -124 -109q-39 -54 -39 -141q0 -121 88 -200q89 -77 218 -77h121l77 213h-162q-47 1 -85 36q-35 38 -36 85q2 74 121 150l167 106v979h-316v-717h-428q-72 0 -118 40q-45 40 -45 108v569h-316v-611q0 -146 121 -258q122 -110 284 -110h300
q136 0 226 123z" />
    <glyph glyph-name="Wcircumflex" unicode="&#x174;" horiz-adv-x="2570" 
d="M1834 390l-372 840h-344l-373 -840l-372 872h-373l562 -1262h343l376 849l386 -849h344l559 1262h-363zM1038 1364l230 245l258 -245h286l-355 425h-345l-353 -425h279z" />
    <glyph glyph-name="wcircumflex" unicode="&#x175;" horiz-adv-x="2050" 
d="M778 1081l230 245l258 -245h286l-355 425h-345l-353 -425h279zM796 0l233 614l224 -614h398l399 979h-356l-253 -722l-258 701h-326l-242 -701l-270 722h-345l399 -979h397z" />
    <glyph glyph-name="Ycircumflex" unicode="&#x176;" horiz-adv-x="1834" 
d="M1089 438l745 824h-461l-456 -531l-455 531h-462l745 -824v-438h344v438zM670 1364l230 245l258 -245h286l-355 425h-345l-353 -425h279z" />
    <glyph glyph-name="ycircumflex" unicode="&#x177;" horiz-adv-x="1377" 
d="M681 -448l696 1427h-365l-338 -748l-304 748h-370l456 -979h107l-237 -448h355zM441 1081l230 245l258 -245h286l-355 425h-345l-353 -425h279z" />
    <glyph glyph-name="Ydieresis" unicode="&#x178;" horiz-adv-x="1834" 
d="M1089 438l745 824h-461l-456 -531l-455 531h-462l745 -824v-438h344v438zM866 1647h-329v-283h329v283zM1298 1647h-329v-283h329v283z" />
    <glyph glyph-name="Zacute" unicode="&#x179;" horiz-adv-x="1642" 
d="M1547 0l95 281h-914l845 752v229h-1298l-95 -281h852l-852 -752v-229h1367zM934 1788l-175 -424h217l303 424h-345z" />
    <glyph glyph-name="zacute" unicode="&#x17a;" horiz-adv-x="1272" 
d="M733 1505l-175 -424h217l303 424h-345zM1197 0l75 225h-651l595 571v183h-980l-76 -224h603l-598 -570v-185h1032z" />
    <glyph glyph-name="Zdot" unicode="&#x17b;" horiz-adv-x="1642" 
d="M1084 1636h-329v-282h329v282zM1547 0l95 281h-914l845 752v229h-1298l-95 -281h852l-852 -752v-229h1367z" />
    <glyph glyph-name="zdot" unicode="&#x17c;" horiz-adv-x="1272" 
d="M873 1354h-329v-283h329v283zM1197 0l75 225h-651l595 571v183h-980l-76 -224h603l-598 -570v-185h1032z" />
    <glyph glyph-name="Zcaron" unicode="&#x17d;" horiz-adv-x="1642" 
d="M1547 0l95 281h-914l845 752v229h-1298l-95 -281h852l-852 -752v-229h1367zM930 1543l-259 246h-286l355 -425h345l353 425h-279z" />
    <glyph glyph-name="zcaron" unicode="&#x17e;" horiz-adv-x="1272" 
d="M715 1260l-259 246h-286l355 -425h345l353 425h-279zM1197 0l75 225h-651l595 571v183h-980l-76 -224h603l-598 -570v-185h1032z" />
    <glyph glyph-name="longs" unicode="&#x17f;" horiz-adv-x="854" 
d="M961 1207l83 248h-349q-199 0 -307 -99q-108 -98 -108 -311v-1045h315v1096q0 46 33 78q33 33 90 33h243z" />
    <glyph glyph-name="Schwa" unicode="&#x18f;" horiz-adv-x="1915" 
d="M543 490h1012v-98q0 -44 -32 -76q-33 -33 -85 -33h-778q-52 0 -85 33q-32 32 -32 76v98zM386 1262l-106 -286h1135q62 0 101 -39t39 -91v-117h-1355v-312q0 -169 126 -292q125 -125 346 -125h765q214 0 342 125q126 123 126 295v422q0 166 -127 293q-130 127 -341 127
h-1051z" />
    <glyph glyph-name="florin" unicode="&#x192;" horiz-adv-x="1124" 
d="M541 755h267l109 224h-341l19 117q7 46 45 78q39 33 95 33h207l122 248h-325q-197 0 -322 -99q-124 -97 -157 -311l-11 -66h-127l-111 -224h203l-132 -845q-8 -47 -46 -78q-37 -33 -95 -33h-99l-122 -248h217q199 0 323 99q124 97 157 311z" />
    <glyph glyph-name="Ohorn" unicode="&#x1a0;" horiz-adv-x="2080" 
d="M1369 285h-592q-90 0 -151 52q-59 50 -59 134v325q3 87 59 138q58 52 151 52h592q94 0 152 -52q58 -50 59 -138v-322q0 -87 -59 -137q-57 -51 -152 -52zM1919 952q141 0 232 91q89 95 89 216v129h-268v-150q0 -28 -22 -50t-56 -22h-128q-120 96 -309 96h-769
q-214 0 -342 -125q-126 -125 -126 -295v-422q0 -166 127 -293q130 -127 341 -127h769q214 0 341 127q127 126 127 290v464q0 37 -6 71z" />
    <glyph glyph-name="ohorn" unicode="&#x1a1;" horiz-adv-x="1733" 
d="M516 412v159q0 57 45 102q45 46 118 46h405q75 0 118 -46q45 -43 45 -100v-163q0 -55 -45 -100q-43 -46 -118 -46h-405q-72 0 -118 46q-45 46 -45 102zM1563 649l-2 35q142 0 233 91q89 95 89 216v129h-268v-150q0 -28 -22 -50t-56 -22h-129q-106 81 -247 81h-559
q-162 0 -281 -110q-121 -109 -121 -258v-243q0 -146 121 -258q122 -110 284 -110h553q162 0 284 110q121 109 121 256v283z" />
    <glyph glyph-name="Uhorn" unicode="&#x1af;" horiz-adv-x="2057" 
d="M1788 1048h127q142 0 233 91q89 95 89 216v129h-268v-150q0 -28 -22 -50t-56 -22h-448v-791q0 -84 -59 -134q-58 -52 -151 -52h-416q-90 0 -151 52q-59 50 -59 134v791h-347v-842q0 -166 127 -293q130 -127 341 -127h592q214 0 341 127t127 293v628z" />
    <glyph glyph-name="uhorn" unicode="&#x1b0;" horiz-adv-x="1703" 
d="M556 979h-316v-611q0 -146 121 -258q122 -110 284 -110h300q136 0 226 123l46 -123h246v765h88q142 0 233 91q89 95 89 216v129h-268v-150q0 -28 -22 -50t-56 -22h-380v-717h-428q-72 0 -118 40q-45 40 -45 108v569z" />
    <glyph glyph-name="DZcaron" unicode="&#x1c4;" horiz-adv-x="3581" 
d="M3546 0l95 281h-932l863 752v229h-1298l-95 -281h861l-861 -752v-229h1367zM2929 1543l-259 246h-286l355 -425h345l353 425h-279zM300 1262v-1262h1211q215 0 342 127q126 126 126 290v428q0 169 -126 292q-125 125 -342 125h-1211zM645 285v700h778q93 0 152 -53
q59 -50 59 -138v-320q0 -86 -60 -137q-56 -50 -151 -52h-778z" />
    <glyph glyph-name="Dzcaron" unicode="&#x1c5;" horiz-adv-x="3216" 
d="M300 1262v-1262h1211q215 0 342 127q126 126 126 290v428q0 169 -126 292q-125 125 -342 125h-1211zM645 285v700h778q93 0 152 -53q59 -50 59 -138v-320q0 -86 -60 -137q-56 -50 -151 -52h-778zM2739 1260l-259 246h-286l355 -425h345l353 425h-279zM3201 0l75 225h-651
l595 571v183h-980l-76 -224h603l-598 -570v-185h1032z" />
    <glyph glyph-name="dzcaron" unicode="&#x1c6;" horiz-adv-x="2870" 
d="M1318 0h245v1455l-316 -193v-294q1 -78 23 -112q-102 123 -224 123h-444q-162 0 -281 -110q-121 -109 -121 -258v-243q0 -146 121 -258q122 -110 284 -110h439q136 0 226 122zM1247 719v-455h-568q-71 0 -117 39q-46 40 -46 107v161q0 69 45 108q46 40 118 40h568z
M2353 1260l-259 246h-286l355 -425h345l353 425h-279zM2815 0l75 225h-651l595 571v183h-980l-76 -224h603l-598 -570v-185h1032z" />
    <glyph glyph-name="LJ" unicode="&#x1c7;" horiz-adv-x="2752" 
d="M2772 1262h-344v-829q0 -67 -41 -108q-40 -40 -122 -40h-460l-97 -285h659q172 3 287 109q118 105 118 257v896zM1668 285h-1023v977h-345v-1262h1273z" />
    <glyph glyph-name="Lj" unicode="&#x1c8;" horiz-adv-x="2213" 
d="M1668 285h-1023v977h-345v-1262h1273zM2223 1356h-316v-241h316v241zM1671 -152l-83 -248h215q202 0 312 98q108 100 108 312v969h-316v-1020q0 -46 -33 -79q-32 -32 -90 -32h-113z" />
    <glyph glyph-name="lj" unicode="&#x1c9;" horiz-adv-x="1272" 
d="M1272 1356h-316v-241h316v241zM720 -152l-83 -248h215q202 0 312 98q108 100 108 312v969h-316v-1020q0 -46 -33 -79q-32 -32 -90 -32h-113zM597 1455l-317 -193v-1262h317v1455z" />
    <glyph glyph-name="NJ" unicode="&#x1ca;" horiz-adv-x="3079" 
d="M3099 1262h-344v-829q0 -67 -41 -108q-40 -40 -122 -40h-458l-99 -285h659q172 3 287 109q118 105 118 257v896zM1895 0v1262h-348v-826l-900 826h-347v-1262h347v823l900 -823h348z" />
    <glyph glyph-name="Nj" unicode="&#x1cb;" horiz-adv-x="2570" 
d="M1895 0v1262h-348v-826l-900 826h-347v-1262h347v823l900 -823h348zM2580 1356h-316v-241h316v241zM2028 -152l-83 -248h215q202 0 312 98q108 100 108 312v969h-316v-1020q0 -46 -33 -79q-32 -32 -90 -32h-113z" />
    <glyph glyph-name="nj" unicode="&#x1cc;" horiz-adv-x="2138" 
d="M1187 0h316v613q0 148 -120 256q-119 110 -282 110h-305q-133 0 -223 -123l-47 123h-246v-979h316v722h428q74 0 118 -41q45 -39 45 -105v-576zM2138 1356h-316v-241h316v241zM1586 -152l-83 -248h215q202 0 312 98q108 100 108 312v969h-316v-1020q0 -46 -33 -79
q-32 -32 -90 -32h-113z" />
    <glyph glyph-name="Acaron" unicode="&#x1cd;" horiz-adv-x="1892" 
d="M498 186h886l109 -186h399l-755 1262h-382l-755 -1262h390zM1246 419h-609l304 515zM965 1543l-259 246h-286l355 -425h345l353 425h-279z" />
    <glyph glyph-name="acaron" unicode="&#x1ce;" horiz-adv-x="1479" 
d="M1113 417v-193h-531q-42 0 -74 29q-28 31 -29 67q1 40 29 68q29 29 71 29h534zM497 0h455q105 0 180 104l40 -104h257v637q0 181 -81 261q-81 81 -226 81h-792l-75 -222h748q50 0 80 -31q30 -28 30 -68v-107q-67 82 -173 82h-443q-148 0 -242 -94q-95 -95 -95 -226
q0 -123 95 -218q98 -95 242 -95zM831 1260l-259 246h-286l355 -425h345l353 425h-279z" />
    <glyph glyph-name="Icaron" unicode="&#x1cf;" horiz-adv-x="644" 
d="M290 1262h-344v-1262h344v1262zM137 1543l-259 246h-286l355 -425h345l353 425h-279z" />
    <glyph glyph-name="icaron" unicode="&#x1d0;" horiz-adv-x="597" 
d="M229 979h-317v-979h317v979zM89 1260l-259 246h-286l355 -425h345l353 425h-279z" />
    <glyph glyph-name="Ocaron" unicode="&#x1d1;" horiz-adv-x="1925" 
d="M220 842v-422q0 -166 127 -293q130 -127 341 -127h769q214 0 341 127q127 126 127 290v428q0 169 -126 292q-125 125 -342 125h-769q-214 0 -342 -125q-126 -125 -126 -295zM1369 285h-592q-90 0 -151 52q-59 50 -59 134v325q3 87 59 138q58 52 151 52h592q94 0 152 -52
q58 -50 59 -138v-322q0 -87 -59 -137q-57 -51 -152 -52zM1091 1543l-259 246h-286l355 -425h345l353 425h-279z" />
    <glyph glyph-name="ocaron" unicode="&#x1d2;" horiz-adv-x="1563" 
d="M200 611v-243q0 -146 121 -258q122 -110 284 -110h553q162 0 284 110q121 109 121 256v247q0 148 -121 256q-119 110 -281 110h-559q-162 0 -281 -110q-121 -109 -121 -258zM516 412v159q0 57 45 102q45 46 118 46h405q75 0 118 -46q45 -43 45 -100v-163q0 -55 -45 -100
q-43 -46 -118 -46h-405q-72 0 -118 46q-45 46 -45 102zM898 1260l-259 246h-286l355 -425h345l353 425h-279z" />
    <glyph glyph-name="Ucaron" unicode="&#x1d3;" horiz-adv-x="1788" 
d="M1043 1543l-259 246h-286l355 -425h345l353 425h-279zM1788 1262h-345v-791q0 -84 -59 -134q-58 -52 -151 -52h-416q-90 0 -151 52q-59 50 -59 134v791h-347v-842q0 -166 127 -293q130 -127 341 -127h592q214 0 341 127t127 293v842z" />
    <glyph glyph-name="ucaron" unicode="&#x1d4;" horiz-adv-x="1483" 
d="M556 979h-316v-611q0 -146 121 -258q122 -110 284 -110h300q136 0 226 123l46 -123h246v979h-316v-717h-428q-72 0 -118 40q-45 40 -45 108v569zM871 1260l-259 246h-286l355 -425h345l353 425h-279z" />
    <glyph glyph-name="eturned" unicode="&#x1dd;" horiz-adv-x="1514" 
d="M466 380h717v-15q0 -66 -44 -105q-44 -41 -118 -41h-392q-74 0 -118 41q-45 39 -45 108v12zM305 979l-82 -243h798q70 -2 117 -40q45 -39 45 -104v-26h-1023v-198q0 -149 121 -258q116 -110 281 -110h530q162 0 281 110q121 109 121 258v243q0 146 -121 258
q-122 110 -284 110h-784z" />
    <glyph glyph-name="Gcaron" unicode="&#x1e6;" horiz-adv-x="1913" 
d="M220 842v-422q0 -166 127 -293q130 -127 341 -127h829q170 3 288 109q118 105 118 255v397h-689l-83 -252h427v-89q0 -73 -31 -104q-28 -30 -112 -31h-659q-92 2 -151 52q-59 51 -59 137v321q0 86 58 138q59 53 145 53h1001l93 276h-1175q-214 0 -342 -125
q-126 -125 -126 -295zM1091 1543l-259 246h-286l355 -425h345l353 425h-279z" />
    <glyph glyph-name="gcaron" unicode="&#x1e7;" horiz-adv-x="1603" 
d="M356 -200l-86 -248h986q145 0 226 81t81 261v1085h-245l-48 -122q-86 122 -224 122h-444q-162 0 -281 -110q-121 -109 -121 -258v-243q0 -146 121 -258q122 -110 284 -110h439q122 0 226 123q-22 -34 -23 -111v-112q0 -39 -31 -69q-31 -31 -83 -31h-777zM1247 719v-455
h-568q-71 0 -117 39q-46 40 -46 107v161q0 69 45 108q46 40 118 40h568zM901 1260l-259 246h-286l355 -425h345l353 425h-279z" />
    <glyph glyph-name="Kcaron" unicode="&#x1e8;" horiz-adv-x="1659" 
d="M956 670l719 592h-474l-651 -543v543h-344v-1262h344v608l717 -608h476zM861 1543l-259 246h-286l355 -425h345l353 425h-279z" />
    <glyph glyph-name="kcaron" unicode="&#x1e9;" horiz-adv-x="1349" 
d="M953 519l482 460h-414l-410 -420v896l-319 -193v-1262h319v472l461 -472h417zM825 1736l-259 246h-286l355 -425h345l353 425h-279z" />
    <glyph glyph-name="Oogonek" unicode="&#x1ea;" horiz-adv-x="1925" 
d="M1369 285h-592q-90 0 -151 52q-59 50 -59 134v325q3 87 59 138q58 52 151 52h592q94 0 152 -52q58 -50 59 -138v-322q0 -87 -59 -137q-57 -51 -152 -52zM1351 0l-38 -26q-82 -54 -121 -109q-39 -54 -39 -141q0 -121 88 -200q89 -77 218 -77h121l77 213h-162q-47 1 -85 36
q-35 38 -36 85q2 74 121 150l166 105q77 31 137 91q127 126 127 290v428q0 169 -126 292q-125 125 -342 125h-769q-214 0 -342 -125q-126 -125 -126 -295v-422q0 -166 127 -293q130 -127 341 -127h663z" />
    <glyph glyph-name="oogonek" unicode="&#x1eb;" horiz-adv-x="1563" 
d="M516 412v159q0 57 45 102q45 46 118 46h405q75 0 118 -46q45 -43 45 -100v-163q0 -55 -45 -100q-43 -46 -118 -46h-405q-72 0 -118 46q-45 46 -45 102zM1012 0l-51 -35q-82 -54 -121 -109q-39 -54 -39 -141q0 -121 88 -200q89 -77 218 -77h121l77 213h-162q-47 1 -85 36
q-35 38 -36 85q2 74 121 150l165 105q72 27 134 83q121 109 121 256v247q0 148 -121 256q-119 110 -281 110h-559q-162 0 -281 -110q-121 -109 -121 -258v-243q0 -146 121 -258q122 -110 284 -110h407z" />
    <glyph glyph-name="jcaron" unicode="&#x1f0;" horiz-adv-x="1093" 
d="M-62 -152l-83 -248h215q202 0 312 98q108 100 108 312v969h-316v-1020q0 -46 -33 -79q-32 -32 -90 -32h-113zM345 1260l-259 246h-286l355 -425h345l353 425h-279z" />
    <glyph glyph-name="DZ" unicode="&#x1f1;" horiz-adv-x="3581" 
d="M3546 0l95 281h-932l863 752v229h-1298l-95 -281h861l-861 -752v-229h1367zM300 1262v-1262h1211q215 0 342 127q126 126 126 290v428q0 169 -126 292q-125 125 -342 125h-1211zM645 285v700h778q93 0 152 -53q59 -50 59 -138v-320q0 -86 -60 -137q-56 -50 -151 -52h-778
z" />
    <glyph glyph-name="Dz" unicode="&#x1f2;" horiz-adv-x="3216" 
d="M300 1262v-1262h1211q215 0 342 127q126 126 126 290v428q0 169 -126 292q-125 125 -342 125h-1211zM645 285v700h778q93 0 152 -53q59 -50 59 -138v-320q0 -86 -60 -137q-56 -50 -151 -52h-778zM3201 0l75 225h-651l595 571v183h-980l-76 -224h603l-598 -570v-185h1032z
" />
    <glyph glyph-name="dz" unicode="&#x1f3;" horiz-adv-x="2870" 
d="M1318 0h245v1455l-316 -193v-294q1 -78 23 -112q-102 123 -224 123h-444q-162 0 -281 -110q-121 -109 -121 -258v-243q0 -146 121 -258q122 -110 284 -110h439q136 0 226 122zM1247 719v-455h-568q-71 0 -117 39q-46 40 -46 107v161q0 69 45 108q46 40 118 40h568z
M2815 0l75 225h-651l595 571v183h-980l-76 -224h603l-598 -570v-185h1032z" />
    <glyph glyph-name="Gacute" unicode="&#x1f4;" horiz-adv-x="1913" 
d="M220 842v-422q0 -166 127 -293q130 -127 341 -127h829q170 3 288 109q118 105 118 255v397h-689l-83 -252h427v-89q0 -73 -31 -104q-28 -30 -112 -31h-659q-92 2 -151 52q-59 51 -59 137v321q0 86 58 138q59 53 145 53h1001l93 276h-1175q-214 0 -342 -125
q-126 -125 -126 -295zM1089 1788l-175 -424h217l303 424h-345z" />
    <glyph glyph-name="gacute" unicode="&#x1f5;" horiz-adv-x="1603" 
d="M356 -200l-86 -248h986q145 0 226 81t81 261v1085h-245l-48 -122q-86 122 -224 122h-444q-162 0 -281 -110q-121 -109 -121 -258v-243q0 -146 121 -258q122 -110 284 -110h439q122 0 226 123q-22 -34 -23 -111v-112q0 -39 -31 -69q-31 -31 -83 -31h-777zM1247 719v-455
h-568q-71 0 -117 39q-46 40 -46 107v161q0 69 45 108q46 40 118 40h568zM917 1505l-175 -424h217l303 424h-345z" />
    <glyph glyph-name="Adblgrave" unicode="&#x200;" horiz-adv-x="1892" 
d="M498 186h886l109 -186h399l-755 1262h-382l-755 -1262h390zM1246 419h-609l304 515zM1077 1788h-346l304 -424h217zM663 1788h-347l304 -424h217z" />
    <glyph glyph-name="adblgrave" unicode="&#x201;" horiz-adv-x="1479" 
d="M1113 417v-193h-531q-42 0 -74 29q-28 31 -29 67q1 40 29 68q29 29 71 29h534zM497 0h455q105 0 180 104l40 -104h257v637q0 181 -81 261q-81 81 -226 81h-792l-75 -222h748q50 0 80 -31q30 -28 30 -68v-107q-67 82 -173 82h-443q-148 0 -242 -94q-95 -95 -95 -226
q0 -123 95 -218q98 -95 242 -95zM973 1505h-346l304 -424h217zM559 1505h-347l304 -424h217z" />
    <glyph glyph-name="Ainvertedbreve" unicode="&#x202;" horiz-adv-x="1892" 
d="M498 186h886l109 -186h399l-755 1262h-382l-755 -1262h390zM1246 419h-609l304 515zM1139 1363h245q-16 160 -125 284q-129 141 -314 141q-186 0 -315 -141q-110 -119 -125 -284h244q0 78 57 138q59 59 138 59q84 0 139 -58q56 -59 56 -139z" />
    <glyph glyph-name="ainvertedbreve" unicode="&#x203;" horiz-adv-x="1479" 
d="M1113 417v-193h-531q-42 0 -74 29q-28 31 -29 67q1 40 29 68q29 29 71 29h534zM497 0h455q105 0 180 104l40 -104h257v637q0 181 -81 261q-81 81 -226 81h-792l-75 -222h748q50 0 80 -31q30 -28 30 -68v-107q-67 82 -173 82h-443q-148 0 -242 -94q-95 -95 -95 -226
q0 -123 95 -218q98 -95 242 -95zM1005 1080h245q-16 160 -125 284q-129 141 -314 141q-186 0 -315 -141q-110 -119 -125 -284h244q0 78 57 138q59 59 138 59q84 0 139 -58q56 -59 56 -139z" />
    <glyph glyph-name="Edblgrave" unicode="&#x204;" horiz-adv-x="1668" 
d="M1658 764h-1014v217h1000l94 281h-1438v-1262h1344l94 281h-1094v226h928zM1204 1788h-346l304 -424h217zM790 1788h-347l304 -424h217z" />
    <glyph glyph-name="edblgrave" unicode="&#x205;" horiz-adv-x="1514" 
d="M1228 599h-717v15q0 66 44 105q44 41 118 41h392q74 0 118 -41q45 -39 45 -108v-12zM1389 0l82 243h-798q-70 2 -117 40q-45 39 -45 104v26h1023v198q0 149 -121 258q-116 110 -281 110h-530q-162 0 -281 -110q-121 -109 -121 -258v-243q0 -146 121 -258
q122 -110 284 -110h784zM1010 1505h-346l304 -424h217zM596 1505h-347l304 -424h217z" />
    <glyph glyph-name="Einvertedbreve" unicode="&#x206;" horiz-adv-x="1668" 
d="M1658 764h-1014v217h1000l94 281h-1438v-1262h1344l94 281h-1094v226h928zM1201 1363h245q-16 160 -125 284q-129 141 -314 141q-186 0 -315 -141q-110 -119 -125 -284h244q0 78 57 138q59 59 138 59q84 0 139 -58q56 -59 56 -139z" />
    <glyph glyph-name="einvertedbreve" unicode="&#x207;" horiz-adv-x="1514" 
d="M1054 1080h245q-16 160 -125 284q-129 141 -314 141q-186 0 -315 -141q-110 -119 -125 -284h244q0 78 57 138q59 59 138 59q84 0 139 -58q56 -59 56 -139zM1228 599h-717v15q0 66 44 105q44 41 118 41h392q74 0 118 -41q45 -39 45 -108v-12zM1389 0l82 243h-798
q-70 2 -117 40q-45 39 -45 104v26h1023v198q0 149 -121 258q-116 110 -281 110h-530q-162 0 -281 -110q-121 -109 -121 -258v-243q0 -146 121 -258q122 -110 284 -110h784z" />
    <glyph glyph-name="Idblgrave" unicode="&#x208;" horiz-adv-x="644" 
d="M204 1262h-344v-1262h344v1262zM181 1788h-346l304 -424h217zM-233 1788h-347l304 -424h217z" />
    <glyph glyph-name="idblgrave" unicode="&#x209;" horiz-adv-x="1216" 
d="M1045 979h-317v-979h317v979zM1041 1505h-346l304 -424h217zM627 1505h-347l304 -424h217z" />
    <glyph glyph-name="Iinvertedbreve" unicode="&#x20a;" horiz-adv-x="644" 
d="M376 1262h-344v-1262h344v1262zM398 1363h245q-16 160 -125 284q-129 141 -314 141q-186 0 -315 -141q-110 -119 -125 -284h244q0 78 57 138q59 59 138 59q84 0 139 -58q56 -59 56 -139z" />
    <glyph glyph-name="iinvertedbreve" unicode="&#x20b;" horiz-adv-x="1159" 
d="M874 979h-317v-979h317v979zM914 1080h245q-16 160 -125 284q-129 141 -314 141q-186 0 -315 -141q-110 -119 -125 -284h244q0 78 57 138q59 59 138 59q84 0 139 -58q56 -59 56 -139z" />
    <glyph glyph-name="Odblgrave" unicode="&#x20c;" horiz-adv-x="1925" 
d="M220 842v-422q0 -166 127 -293q130 -127 341 -127h769q214 0 341 127q127 126 127 290v428q0 169 -126 292q-125 125 -342 125h-769q-214 0 -342 -125q-126 -125 -126 -295zM1369 285h-592q-90 0 -151 52q-59 50 -59 134v325q3 87 59 138q58 52 151 52h592q94 0 152 -52
q58 -50 59 -138v-322q0 -87 -59 -137q-57 -51 -152 -52zM1221 1788h-346l304 -424h217zM807 1788h-347l304 -424h217z" />
    <glyph glyph-name="odblgrave" unicode="&#x20d;" horiz-adv-x="1563" 
d="M200 611v-243q0 -146 121 -258q122 -110 284 -110h553q162 0 284 110q121 109 121 256v247q0 148 -121 256q-119 110 -281 110h-559q-162 0 -281 -110q-121 -109 -121 -258zM516 412v159q0 57 45 102q45 46 118 46h405q75 0 118 -46q45 -43 45 -100v-163q0 -55 -45 -100
q-43 -46 -118 -46h-405q-72 0 -118 46q-45 46 -45 102zM1037 1505h-346l304 -424h217zM623 1505h-347l304 -424h217z" />
    <glyph glyph-name="Oinvertedbreve" unicode="&#x20e;" horiz-adv-x="1925" 
d="M1267 1363h245q-16 160 -125 284q-129 141 -314 141q-186 0 -315 -141q-110 -119 -125 -284h244q0 78 57 138q59 59 138 59q84 0 139 -58q56 -59 56 -139zM220 842v-422q0 -166 127 -293q130 -127 341 -127h769q214 0 341 127q127 126 127 290v428q0 169 -126 292
q-125 125 -342 125h-769q-214 0 -342 -125q-126 -125 -126 -295zM1369 285h-592q-90 0 -151 52q-59 50 -59 134v325q3 87 59 138q58 52 151 52h592q94 0 152 -52q58 -50 59 -138v-322q0 -87 -59 -137q-57 -51 -152 -52z" />
    <glyph glyph-name="oinvertedbreve" unicode="&#x20f;" horiz-adv-x="1563" 
d="M200 611v-243q0 -146 121 -258q122 -110 284 -110h553q162 0 284 110q121 109 121 256v247q0 148 -121 256q-119 110 -281 110h-559q-162 0 -281 -110q-121 -109 -121 -258zM516 412v159q0 57 45 102q45 46 118 46h405q75 0 118 -46q45 -43 45 -100v-163q0 -55 -45 -100
q-43 -46 -118 -46h-405q-72 0 -118 46q-45 46 -45 102zM1075 1080h245q-16 160 -125 284q-129 141 -314 141q-186 0 -315 -141q-110 -119 -125 -284h244q0 78 57 138q59 59 138 59q84 0 139 -58q56 -59 56 -139z" />
    <glyph glyph-name="Rdblgrave" unicode="&#x210;" horiz-adv-x="1845" 
d="M1465 1262h-1165v-1262h347v981h764q61 0 98 -39q38 -38 38 -93q0 -54 -39 -93q-40 -40 -100 -40h-709l724 -716h472l-510 464h83q186 0 303 119q118 121 118 283q0 161 -118 279q-117 117 -306 117zM1205 1788h-346l304 -424h217zM791 1788h-347l304 -424h217z" />
    <glyph glyph-name="rdblgrave" unicode="&#x211;" horiz-adv-x="1121" 
d="M449 979h-245v-979h316v717h500l89 262h-389q-133 0 -223 -123zM889 1505h-346l304 -424h217zM475 1505h-347l304 -424h217z" />
    <glyph glyph-name="Rinvertedbreve" unicode="&#x212;" horiz-adv-x="1845" 
d="M1465 1262h-1165v-1262h347v981h764q61 0 98 -39q38 -38 38 -93q0 -54 -39 -93q-40 -40 -100 -40h-709l724 -716h472l-510 464h83q186 0 303 119q118 121 118 283q0 161 -118 279q-117 117 -306 117zM1189 1363h245q-16 160 -125 284q-129 141 -314 141q-186 0 -315 -141
q-110 -119 -125 -284h244q0 78 57 138q59 59 138 59q84 0 139 -58q56 -59 56 -139z" />
    <glyph glyph-name="rinvertedbreve" unicode="&#x213;" horiz-adv-x="1045" 
d="M916 1080h245q-16 160 -125 284q-129 141 -314 141q-186 0 -315 -141q-110 -119 -125 -284h244q0 78 57 138q59 59 138 59q84 0 139 -58q56 -59 56 -139zM525 979h-245v-979h316v717h500l89 262h-389q-133 0 -223 -123z" />
    <glyph glyph-name="Udblgrave" unicode="&#x214;" horiz-adv-x="1788" 
d="M1179 1788h-346l304 -424h217zM765 1788h-347l304 -424h217zM1788 1262h-345v-791q0 -84 -59 -134q-58 -52 -151 -52h-416q-90 0 -151 52q-59 50 -59 134v791h-347v-842q0 -166 127 -293q130 -127 341 -127h592q214 0 341 127t127 293v842z" />
    <glyph glyph-name="udblgrave" unicode="&#x215;" horiz-adv-x="1483" 
d="M556 979h-316v-611q0 -146 121 -258q122 -110 284 -110h300q136 0 226 123l46 -123h246v979h-316v-717h-428q-72 0 -118 40q-45 40 -45 108v569zM1019 1505h-346l304 -424h217zM605 1505h-347l304 -424h217z" />
    <glyph glyph-name="Uinvertedbreve" unicode="&#x216;" horiz-adv-x="1788" 
d="M1208 1363h245q-16 160 -125 284q-129 141 -314 141q-186 0 -315 -141q-110 -119 -125 -284h244q0 78 57 138q59 59 138 59q84 0 139 -58q56 -59 56 -139zM1788 1262h-345v-791q0 -84 -59 -134q-58 -52 -151 -52h-416q-90 0 -151 52q-59 50 -59 134v791h-347v-842
q0 -166 127 -293q130 -127 341 -127h592q214 0 341 127t127 293v842z" />
    <glyph glyph-name="uinvertedbreve" unicode="&#x217;" horiz-adv-x="1483" 
d="M556 979h-316v-611q0 -146 121 -258q122 -110 284 -110h300q136 0 226 123l46 -123h246v979h-316v-717h-428q-72 0 -118 40q-45 40 -45 108v569zM1041 1080h245q-16 160 -125 284q-129 141 -314 141q-186 0 -315 -141q-110 -119 -125 -284h244q0 78 57 138q59 59 138 59
q84 0 139 -58q56 -59 56 -139z" />
    <glyph glyph-name="Scommaaccent" unicode="&#x218;" horiz-adv-x="1737" 
d="M1082 -90h-329v-283h169v-50q0 -26 -20 -46t-54 -20h-88l-48 -148h121q122 0 185 60q64 60 64 184v303zM590 494h728q46 0 77 -33q32 -32 32 -77t-33 -78t-81 -33h-1022l-95 -273h1130q186 0 304 120q117 119 117 284q0 158 -117 277q-114 115 -304 115h-694
q-42 0 -74 29q-28 31 -29 66q1 42 29 70q29 29 69 29h937l95 272h-1069q-187 0 -296 -109q-114 -113 -114 -269q0 -160 114 -275t296 -115z" />
    <glyph glyph-name="scommaaccent" unicode="&#x219;" horiz-adv-x="1327" 
d="M875 -90h-329v-283h169v-50q0 -26 -20 -46t-54 -20h-88l-48 -148h121q122 0 185 60q64 60 64 184v303zM1248 523q-89 89 -233 89h-468q-33 0 -55 22q-21 22 -21 50q0 30 21 51t51 21h648l76 223h-785q-141 0 -232 -91q-90 -90 -90 -213t90 -213t232 -90h489q31 0 52 -22
q22 -19 22 -52q0 -28 -22 -50t-56 -22h-723l-76 -226h847q141 0 233 92q89 89 89 215q0 127 -89 216z" />
    <glyph glyph-name="Tcommabelow" unicode="&#x21a;" horiz-adv-x="1651" 
d="M992 -90h-329v-283h169v-50q0 -26 -20 -46t-54 -20h-88l-48 -148h121q122 0 185 60q64 60 64 184v303zM658 0h345v988h555l93 274h-1518l-93 -274h618v-988z" />
    <glyph glyph-name="tcommabelow" unicode="&#x21b;" horiz-adv-x="969" 
d="M557 755h308l76 224h-384v347l-316 -189v-158h-125l-76 -224h201v-446q0 -147 81 -228q82 -81 250 -81h337l80 234h-315q-67 0 -93 29q-24 30 -24 84v408zM743 -90h-329v-283h169v-50q0 -26 -20 -46t-54 -20h-88l-48 -148h121q122 0 185 60q64 60 64 184v303z" />
    <glyph glyph-name="Hcaron" unicode="&#x21e;" horiz-adv-x="1913" 
d="M1913 1262h-344v-472h-925v472h-344v-1262h344v509h925v-509h344v1262zM1125 1543l-259 246h-286l355 -425h345l353 425h-279z" />
    <glyph glyph-name="hcaron" unicode="&#x21f;" horiz-adv-x="1483" 
d="M1187 0h316v613q0 148 -120 256q-119 110 -282 110h-305q-120 0 -223 -123q23 35 23 112v487l-316 -193v-1262h316v722h428q74 0 118 -41q45 -39 45 -105v-576zM839 1736l-259 246h-286l355 -425h345l353 425h-279z" />
    <glyph glyph-name="Adotabove" unicode="&#x226;" horiz-adv-x="1892" 
d="M498 186h886l109 -186h399l-755 1262h-382l-755 -1262h390zM1246 419h-609l304 515zM1111 1647h-329v-283h329v283z" />
    <glyph glyph-name="adotabove" unicode="&#x227;" horiz-adv-x="1479" 
d="M1113 417v-193h-531q-42 0 -74 29q-28 31 -29 67q1 40 29 68q29 29 71 29h534zM497 0h455q105 0 180 104l40 -104h257v637q0 181 -81 261q-81 81 -226 81h-792l-75 -222h748q50 0 80 -31q30 -28 30 -68v-107q-67 82 -173 82h-443q-148 0 -242 -94q-95 -95 -95 -226
q0 -123 95 -218q98 -95 242 -95zM971 1364h-329v-283h329v283z" />
    <glyph glyph-name="Ecedilla" unicode="&#x228;" horiz-adv-x="1668" 
d="M1658 764h-1014v217h1000l94 281h-1438v-1262h1344l94 281h-1094v226h928zM864 -102l-175 -545h211l292 545h-328z" />
    <glyph glyph-name="ecedilla" unicode="&#x229;" horiz-adv-x="1514" 
d="M1228 599h-717v15q0 66 44 105q44 41 118 41h392q74 0 118 -41q45 -39 45 -108v-12zM1389 0l82 243h-798q-70 2 -117 40q-45 39 -45 104v26h1023v198q0 149 -121 258q-116 110 -281 110h-530q-162 0 -281 -110q-121 -109 -121 -258v-243q0 -146 121 -258
q122 -110 284 -110h784zM736 -102l-175 -545h211l292 545h-328z" />
    <glyph glyph-name="Odotabove" unicode="&#x22e;" horiz-adv-x="1925" 
d="M220 842v-422q0 -166 127 -293q130 -127 341 -127h769q214 0 341 127q127 126 127 290v428q0 169 -126 292q-125 125 -342 125h-769q-214 0 -342 -125q-126 -125 -126 -295zM1369 285h-592q-90 0 -151 52q-59 50 -59 134v325q3 87 59 138q58 52 151 52h592q94 0 152 -52
q58 -50 59 -138v-322q0 -87 -59 -137q-57 -51 -152 -52zM1237 1647h-329v-283h329v283z" />
    <glyph glyph-name="odotabove" unicode="&#x22f;" horiz-adv-x="1563" 
d="M200 611v-243q0 -146 121 -258q122 -110 284 -110h553q162 0 284 110q121 109 121 256v247q0 148 -121 256q-119 110 -281 110h-559q-162 0 -281 -110q-121 -109 -121 -258zM516 412v159q0 57 45 102q45 46 118 46h405q75 0 118 -46q45 -43 45 -100v-163q0 -55 -45 -100
q-43 -46 -118 -46h-405q-72 0 -118 46q-45 46 -45 102zM1047 1364h-329v-283h329v283z" />
    <glyph glyph-name="Ymacron" unicode="&#x232;" horiz-adv-x="1834" 
d="M1089 438l745 824h-461l-456 -531l-455 531h-462l745 -824v-438h344v438zM537 1578v-214h761v214h-761z" />
    <glyph glyph-name="ymacron" unicode="&#x233;" horiz-adv-x="1377" 
d="M681 -448l696 1427h-365l-338 -748l-304 748h-370l456 -979h107l-237 -448h355zM308 1295v-214h761v214h-761z" />
    <glyph glyph-name="schwa" unicode="&#x259;" horiz-adv-x="1604" 
d="M566 380h717v-15q0 -66 -44 -105q-44 -41 -118 -41h-392q-74 0 -118 41q-45 39 -45 108v12zM405 979l-82 -243h798q70 -2 117 -40q45 -39 45 -104v-26h-1023v-198q0 -149 121 -258q116 -110 281 -110h530q162 0 281 110q121 109 121 258v243q0 146 -121 258
q-122 110 -284 110h-784z" />
    <glyph glyph-name="circumflex" unicode="&#x2c6;" horiz-adv-x="1313" 
d="M539 1073l230 245l258 -245h286l-355 425h-345l-353 -425h279z" />
    <glyph glyph-name="caron" unicode="&#x2c7;" horiz-adv-x="1313" 
d="M805 1252l-259 246h-286l355 -425h345l353 425h-279z" />
    <glyph glyph-name="firsttonechinese" unicode="&#x2c9;" horiz-adv-x="1021" 
d="M260 1437v-190h761v190h-761z" />
    <glyph glyph-name="breve" unicode="&#x2d8;" horiz-adv-x="1269" 
d="M635 1498h-245q16 -160 125 -284q129 -141 314 -141q186 0 315 141q110 119 125 284h-244q0 -78 -57 -138q-56 -58 -138 -59q-81 0 -139 58q-56 59 -56 136v3z" />
    <glyph glyph-name="dotaccent" unicode="&#x2d9;" horiz-adv-x="589" 
d="M589 1529h-329v-283h329v283z" />
    <glyph glyph-name="ring" unicode="&#x2da;" horiz-adv-x="1046" 
d="M260 1423v-21q0 -156 87 -244q90 -87 278 -87h56q190 0 277 87q88 88 88 244v21q0 157 -88 244q-87 87 -277 87h-56q-189 0 -278 -87q-87 -87 -87 -244zM489 1391v45q2 67 28 96q28 28 108 28h55q80 0 107 -28q29 -29 29 -96v-45q0 -65 -29 -94q-27 -29 -107 -29h-55
q-76 0 -108 29q-26 29 -28 94z" />
    <glyph glyph-name="ogonek" unicode="&#x2db;" horiz-adv-x="569" 
d="M569 -90h-257l-92 -63q-82 -54 -121 -109q-39 -54 -39 -141q0 -121 88 -200q89 -77 218 -77h121l77 213h-162q-47 1 -85 36q-35 38 -36 85q2 74 121 150z" />
    <glyph glyph-name="ogonek" unicode="&#x328;" horiz-adv-x="569" 
d="M569 -90h-257l-92 -63q-82 -54 -121 -109q-39 -54 -39 -141q0 -121 88 -200q89 -77 218 -77h121l77 213h-162q-47 1 -85 36q-35 38 -36 85q2 74 121 150z" />
    <glyph glyph-name="tilde" unicode="&#x2dc;" horiz-adv-x="1299" 
d="M1299 1439h-216q-24 -85 -122 -85q-71 0 -184 54q-108 54 -196 54q-252 0 -321 -306h216q27 84 120 84h2q74 0 185 -54q111 -52 195 -53q255 1 321 306z" />
    <glyph glyph-name="hungarumlaut" unicode="&#x2dd;" horiz-adv-x="1196" 
d="M435 1529l-175 -424h217l304 424h-346zM849 1529l-174 -424h217l304 424h-347z" />
    <glyph glyph-name="gravecmb" unicode="&#x300;" horiz-adv-x="580" 
d="M406 1497h-346l303 -424h217z" />
    <glyph glyph-name="acutecmb" unicode="&#x301;" horiz-adv-x="580" 
d="M235 1497l-175 -424h217l303 424h-345z" />
    <glyph glyph-name="circumflexcmb" unicode="&#x302;" horiz-adv-x="1113" 
d="M339 1073l230 245l258 -245h286l-355 425h-345l-353 -425h279z" />
    <glyph glyph-name="tildecmb" unicode="&#x303;" horiz-adv-x="1099" 
d="M1099 1439h-216q-24 -85 -122 -85q-71 0 -184 54q-108 54 -196 54q-252 0 -321 -306h216q26 83 118 83q70 0 188 -53q124 -53 196 -53q255 0 321 306z" />
    <glyph glyph-name="macroncmb" unicode="&#x304;" horiz-adv-x="821" 
d="M60 1461v-214h761v214h-761z" />
    <glyph glyph-name="brevecmb" unicode="&#x306;" horiz-adv-x="939" 
d="M305 1498h-245q16 -160 125 -284q129 -141 314 -141q186 0 315 141q110 119 125 284h-244q0 -78 -57 -138q-59 -59 -138 -59q-84 0 -139 58q-56 59 -56 139z" />
    <glyph glyph-name="dotaccentcmb" unicode="&#x307;" horiz-adv-x="389" 
d="M389 1529h-329v-283h329v283z" />
    <glyph glyph-name="dieresiscmb" unicode="&#x308;" horiz-adv-x="821" 
d="M389 1529h-329v-283h329v283zM821 1529h-329v-283h329v283z" />
    <glyph glyph-name="hookabovecomb" unicode="&#x309;" horiz-adv-x="648" 
d="M430 1159h39q84 0 130 46q49 49 49 130q0 63 -48 111q-50 50 -131 50h-369l-40 -119h320q23 0 37 -14q12 -12 12 -32q0 -23 -12 -35q-16 -16 -37 -16h-37q-80 0 -120 -43q-41 -44 -41 -120v-12h208v6q0 21 9 33q11 15 31 15z" />
    <glyph glyph-name="ringcmb" unicode="&#x30a;" horiz-adv-x="822" 
d="M122 1393v-18q0 -136 78 -214q82 -76 247 -76h50q169 0 248 76q78 77 78 214v18q0 139 -78 213q-83 77 -248 77h-50q-161 0 -247 -77q-78 -75 -78 -213zM347 1366v35q0 51 21 73q20 20 83 20h42q64 0 82 -20q23 -23 23 -73v-35q0 -49 -23 -72q-17 -20 -82 -20h-42
q-60 0 -83 20q-20 24 -21 72z" />
    <glyph glyph-name="hungarumlautcmb" unicode="&#x30b;" horiz-adv-x="996" 
d="M235 1529l-175 -424h217l304 424h-346zM649 1529l-174 -424h217l304 424h-347z" />
    <glyph glyph-name="caroncmb" unicode="&#x30c;" horiz-adv-x="1113" 
d="M605 1252l-259 246h-286l355 -425h345l353 425h-279z" />
    <glyph glyph-name="dblgravecmb" unicode="&#x30f;" horiz-adv-x="996" 
d="M821 1529h-346l304 -424h217zM407 1529h-347l304 -424h217z" />
    <glyph glyph-name="breveinvertedcmb" unicode="&#x311;" horiz-adv-x="939" 
d="M694 1072h245q-16 160 -125 284q-129 141 -314 141q-186 0 -315 -141q-110 -119 -125 -284h244q0 78 57 138q59 59 138 59q84 0 139 -58q56 -59 56 -139z" />
    <glyph glyph-name="horncmb" unicode="&#x31b;" horiz-adv-x="537" 
d="M537 1532h-268v-150q0 -28 -22 -50t-56 -22h-131v-238h155q142 0 233 91q89 95 89 216v153z" />
    <glyph glyph-name="Ddotbelow" unicode="&#x1e0c;" horiz-adv-x="1939" 
d="M300 1262v-1262h1211q215 0 342 127q126 126 126 290v428q0 169 -126 292q-125 125 -342 125h-1211zM645 285v700h778q93 0 152 -53q59 -50 59 -138v-320q0 -86 -60 -137q-56 -50 -151 -52h-778zM1228 -102h-329v-283h329v283z" />
    <glyph glyph-name="ddotbelow" unicode="&#x1e0d;" horiz-adv-x="1603" 
d="M1318 0h245v1455l-316 -193v-294q1 -78 23 -112q-102 123 -224 123h-444q-162 0 -281 -110q-121 -109 -121 -258v-243q0 -146 121 -258q122 -110 284 -110h439q136 0 226 122zM1247 719v-455h-568q-71 0 -117 39q-46 40 -46 107v161q0 69 45 108q46 40 118 40h568z
M1043 -102h-329v-283h329v283z" />
    <glyph glyph-name="Hdotbelow" unicode="&#x1e24;" horiz-adv-x="1913" 
d="M1261 -102h-329v-283h329v283zM1913 1262h-344v-472h-925v472h-344v-1262h344v509h925v-509h344v1262z" />
    <glyph glyph-name="hdotbelow" unicode="&#x1e25;" horiz-adv-x="1483" 
d="M1049 -102h-329v-283h329v283zM1187 0h316v613q0 148 -120 256q-119 110 -282 110h-305q-120 0 -223 -123q23 35 23 112v487l-316 -193v-1262h316v722h428q74 0 118 -41q45 -39 45 -105v-576z" />
    <glyph glyph-name="Rdotbelow" unicode="&#x1e5a;" horiz-adv-x="1845" 
d="M1465 1262h-1165v-1262h347v981h764q61 0 98 -39q38 -38 38 -93q0 -54 -39 -93q-40 -40 -100 -40h-709l724 -716h472l-510 464h83q186 0 303 119q118 121 118 283q0 161 -118 279q-117 117 -306 117zM1158 -102h-329v-283h329v283z" />
    <glyph glyph-name="rdotbelow" unicode="&#x1e5b;" horiz-adv-x="1048" 
d="M522 979h-245v-979h316v717h500l89 262h-389q-133 0 -223 -123zM603 -102h-329v-283h329v283z" />
    <glyph glyph-name="Sdotbelow" unicode="&#x1e62;" horiz-adv-x="1737" 
d="M1101 -102h-329v-283h329v283zM590 494h728q46 0 77 -33q32 -32 32 -77t-33 -78t-81 -33h-1022l-95 -273h1130q186 0 304 120q117 119 117 284q0 158 -117 277q-114 115 -304 115h-694q-42 0 -74 29q-28 31 -29 66q1 42 29 70q29 29 69 29h937l95 272h-1069
q-187 0 -296 -109q-114 -113 -114 -269q0 -160 114 -275t296 -115z" />
    <glyph glyph-name="sdotbelow" unicode="&#x1e63;" horiz-adv-x="1327" 
d="M892 -102h-329v-283h329v283zM1248 523q-89 89 -233 89h-468q-33 0 -55 22q-21 22 -21 50q0 30 21 51t51 21h648l76 223h-785q-141 0 -232 -91q-90 -90 -90 -213t90 -213t232 -90h489q31 0 52 -22q22 -19 22 -52q0 -28 -22 -50t-56 -22h-723l-76 -226h847q141 0 233 92
q89 89 89 215q0 127 -89 216z" />
    <glyph glyph-name="Tdotbelow" unicode="&#x1e6c;" horiz-adv-x="1653" 
d="M997 -102h-329v-283h329v283zM660 0h345v981h553l95 281h-1518l-95 -281h620v-981z" />
    <glyph glyph-name="tdotbelow" unicode="&#x1e6d;" horiz-adv-x="969" 
d="M762 -102h-329v-283h329v283zM557 755h308l76 224h-384v347l-316 -189v-158h-125l-76 -224h201v-446q0 -147 81 -228q82 -81 250 -81h337l80 234h-315q-67 0 -93 29q-24 30 -24 84v408z" />
    <glyph glyph-name="Wgrave" unicode="&#x1e80;" horiz-adv-x="2570" 
d="M1834 390l-372 840h-344l-373 -840l-372 872h-373l562 -1262h343l376 849l386 -849h344l559 1262h-363zM1134 1364h217l-175 424h-345z" />
    <glyph glyph-name="wgrave" unicode="&#x1e81;" horiz-adv-x="2050" 
d="M932 1505h-346l303 -424h217zM796 0l233 614l224 -614h398l399 979h-356l-253 -722l-258 701h-326l-242 -701l-270 722h-345l399 -979h397z" />
    <glyph glyph-name="Wacute" unicode="&#x1e82;" horiz-adv-x="2570" 
d="M1834 390l-372 840h-344l-373 -840l-372 872h-373l562 -1262h343l376 849l386 -849h344l559 1262h-363zM1384 1788l-175 -424h217l303 424h-345z" />
    <glyph glyph-name="wacute" unicode="&#x1e83;" horiz-adv-x="2050" 
d="M1145 1081l303 424h-346l-174 -424h217zM796 0l233 614l224 -614h398l399 979h-356l-253 -722l-258 701h-326l-242 -701l-270 722h-345l399 -979h397z" />
    <glyph glyph-name="Wdieresis" unicode="&#x1e84;" horiz-adv-x="2570" 
d="M1834 390l-372 840h-344l-373 -840l-372 872h-373l562 -1262h343l376 849l386 -849h344l559 1262h-363zM1229 1647h-329v-283h329v283zM1661 1647h-329v-283h329v283z" />
    <glyph glyph-name="wdieresis" unicode="&#x1e85;" horiz-adv-x="2050" 
d="M963 1364h-329v-283h329v283zM1395 1364h-329v-283h329v283zM796 0l233 614l224 -614h398l399 979h-356l-253 -722l-258 701h-326l-242 -701l-270 722h-345l399 -979h397z" />
    <glyph glyph-name="Zdotbelow" unicode="&#x1e92;" horiz-adv-x="1642" 
d="M1035 -102h-329v-283h329v283zM1547 0l95 281h-914l845 752v229h-1298l-95 -281h852l-852 -752v-229h1367z" />
    <glyph glyph-name="zdotbelow" unicode="&#x1e93;" horiz-adv-x="1272" 
d="M878 -102h-329v-283h329v283zM1197 0l75 225h-651l595 571v183h-980l-76 -224h603l-598 -570v-185h1032z" />
    <glyph glyph-name="uni1E9E" unicode="&#x1e9e;" horiz-adv-x="1864" 
d="M1220 990l-310 -405h494q68 0 101 -33t33 -88v-68q0 -56 -33 -89t-101 -33h-593l-90 -274h779q173 0 280 104q104 104 104 238v147q0 137 -103 239q-91 91 -281 91h-48l337 443h-1114q-199 0 -307 -99q-108 -97 -108 -311v-852h345v879q0 47 33 78q33 33 90 33h492z" />
    <glyph glyph-name="Adotbelow" unicode="&#x1ea0;" horiz-adv-x="1892" 
d="M498 186h886l109 -186h399l-755 1262h-382l-755 -1262h390zM1246 419h-609l304 515zM1105 -102h-329v-283h329v283z" />
    <glyph glyph-name="adotbelow" unicode="&#x1ea1;" horiz-adv-x="1479" 
d="M1113 417v-193h-531q-42 0 -74 29q-28 31 -29 67q1 40 29 68q29 29 71 29h534zM497 0h455q105 0 180 104l40 -104h257v637q0 181 -81 261q-81 81 -226 81h-792l-75 -222h748q50 0 80 -31q30 -28 30 -68v-107q-67 82 -173 82h-443q-148 0 -242 -94q-95 -95 -95 -226
q0 -123 95 -218q98 -95 242 -95zM990 -102h-329v-283h329v283z" />
    <glyph glyph-name="Ahookabove" unicode="&#x1ea2;" horiz-adv-x="1892" 
d="M498 186h886l109 -186h399l-755 1262h-382l-755 -1262h390zM1246 419h-609l304 515zM1041 1377h39q84 0 130 46q49 49 49 130q0 63 -48 111q-50 50 -131 50h-369l-40 -119h320q23 0 37 -14q12 -12 12 -32q0 -23 -12 -35q-16 -16 -37 -16h-37q-80 0 -120 -43
q-41 -44 -41 -120v-12h208v6q0 21 9 33q10 15 31 15z" />
    <glyph glyph-name="ahookabove" unicode="&#x1ea3;" horiz-adv-x="1479" 
d="M1113 417v-193h-531q-42 0 -74 29q-28 31 -29 67q1 40 29 68q29 29 71 29h534zM497 0h455q105 0 180 104l40 -104h257v637q0 181 -81 261q-81 81 -226 81h-792l-75 -222h748q50 0 80 -31q30 -28 30 -68v-107q-67 82 -173 82h-443q-148 0 -242 -94q-95 -95 -95 -226
q0 -123 95 -218q98 -95 242 -95zM891 1115h39q84 0 130 46q49 49 49 130q0 63 -48 111q-50 50 -131 50h-369l-40 -119h320q23 0 37 -14q12 -12 12 -32q0 -23 -12 -35q-16 -16 -37 -16h-37q-80 0 -120 -43q-41 -44 -41 -120v-12h208v6q0 21 9 33q10 15 31 15z" />
    <glyph glyph-name="Acircumflexacute" unicode="&#x1ea4;" horiz-adv-x="1892" 
d="M498 186h886l109 -186h399l-755 1262h-382l-755 -1262h390zM1246 419h-609l304 515zM927 1503l198 -179h304l-313 341h-345l-311 -341h297zM853 1731h217l243 304h-345z" />
    <glyph glyph-name="acircumflexacute" unicode="&#x1ea5;" horiz-adv-x="1479" 
d="M1113 417v-193h-531q-42 0 -74 29q-28 31 -29 67q1 40 29 68q29 29 71 29h534zM497 0h455q105 0 180 104l40 -104h257v637q0 181 -81 261q-81 81 -226 81h-792l-75 -222h748q50 0 80 -31q30 -28 30 -68v-107q-67 82 -173 82h-443q-148 0 -242 -94q-95 -95 -95 -226
q0 -123 95 -218q98 -95 242 -95zM577 1067l230 245l258 -245h286l-355 425h-345l-353 -425h279zM900 2001l-175 -424h217l303 424h-345z" />
    <glyph glyph-name="Acircumflexgrave" unicode="&#x1ea6;" horiz-adv-x="1892" 
d="M498 186h886l109 -186h399l-755 1262h-382l-755 -1262h390zM1246 419h-609l304 515zM927 1503l198 -179h304l-313 341h-345l-311 -341h297zM1031 1731l-115 304h-345l243 -304h217z" />
    <glyph glyph-name="acircumflexgrave" unicode="&#x1ea7;" horiz-adv-x="1479" 
d="M1113 417v-193h-531q-42 0 -74 29q-28 31 -29 67q1 40 29 68q29 29 71 29h534zM497 0h455q105 0 180 104l40 -104h257v637q0 181 -81 261q-81 81 -226 81h-792l-75 -222h748q50 0 80 -31q30 -28 30 -68v-107q-67 82 -173 82h-443q-148 0 -242 -94q-95 -95 -95 -226
q0 -123 95 -218q98 -95 242 -95zM577 1067l230 245l258 -245h286l-355 425h-345l-353 -425h279zM710 1577h217l-175 424h-345z" />
    <glyph glyph-name="Acircumflexhookabove" unicode="&#x1ea8;" horiz-adv-x="1892" 
d="M1061 1709h39q84 0 130 46q49 49 49 130q0 63 -48 111q-50 50 -131 50h-369l-40 -119h320q23 0 37 -14q12 -12 12 -32q0 -23 -12 -35q-16 -16 -37 -16h-37q-80 0 -120 -43q-41 -44 -41 -120v-12h208v6q0 21 9 33q10 15 31 15zM932 1446l218 -173h304l-333 335h-345
l-331 -335h297zM498 182h886l109 -182h399l-755 1234h-382l-755 -1234h390zM1246 411h-609l304 504z" />
    <glyph glyph-name="acircumflexhookabove" unicode="&#x1ea9;" horiz-adv-x="1479" 
d="M1113 417v-193h-531q-42 0 -74 29q-28 31 -29 67q1 40 29 68q29 29 71 29h534zM497 0h455q105 0 180 104l40 -104h257v637q0 181 -81 261q-81 81 -226 81h-792l-75 -222h748q50 0 80 -31q30 -28 30 -68v-107q-67 82 -173 82h-443q-148 0 -242 -94q-95 -95 -95 -226
q0 -123 95 -218q98 -95 242 -95zM577 1067l230 245l258 -245h286l-355 425h-345l-353 -425h279zM936 1634h39q84 0 130 46q49 49 49 130q0 63 -48 111q-50 50 -131 50h-369l-40 -119h320q23 0 37 -14q12 -12 12 -32q0 -23 -12 -35q-16 -16 -37 -16h-37q-80 0 -120 -43
q-41 -44 -41 -120v-12h208v6q0 21 9 33q11 15 31 15z" />
    <glyph glyph-name="Acircumflextilde" unicode="&#x1eaa;" horiz-adv-x="1892" 
d="M1435 2012h-199q-22 -85 -112 -85q-70 0 -170 54q-99 54 -180 54q-232 0 -295 -306h199q24 83 108 83q69 0 173 -53t180 -53q236 0 296 306zM498 186h886l109 -186h399l-755 1262h-382l-755 -1262h390zM1246 419h-609l304 515zM932 1495l198 -179h304l-313 341h-345
l-311 -341h297z" />
    <glyph glyph-name="acircumflextilde" unicode="&#x1eab;" horiz-adv-x="1479" 
d="M1113 417v-193h-531q-42 0 -74 29q-28 31 -29 67q1 40 29 68q29 29 71 29h534zM497 0h455q105 0 180 104l40 -104h257v637q0 181 -81 261q-81 81 -226 81h-792l-75 -222h748q50 0 80 -31q30 -28 30 -68v-107q-67 82 -173 82h-443q-148 0 -242 -94q-95 -95 -95 -226
q0 -123 95 -218q98 -95 242 -95zM577 1067l230 245l258 -245h286l-355 425h-345l-353 -425h279zM1326 1853h-199q-22 -85 -112 -85q-69 0 -170 54q-99 54 -192 54q-115 0 -183 -75.5t-100 -230.5h199q24 83 108 83q69 0 173 -53t180 -53q236 0 296 306z" />
    <glyph glyph-name="Acircumflexdotbelow" unicode="&#x1eac;" horiz-adv-x="1892" 
d="M498 186h886l109 -186h399l-755 1262h-382l-755 -1262h390zM1246 419h-609l304 515zM932 1537l198 -179h304l-313 341h-345l-311 -341h297zM1105 -102h-329v-283h329v283z" />
    <glyph glyph-name="acircumflexdotbelow" unicode="&#x1ead;" horiz-adv-x="1469" 
d="M1113 417v-193h-531q-42 0 -74 29q-28 31 -29 67q1 40 29 68q29 29 71 29h534zM497 0h455q105 0 180 104l40 -104h257v637q0 181 -81 261q-81 81 -226 81h-792l-75 -222h748q50 0 80 -31q30 -28 30 -68v-107q-67 82 -173 82h-443q-148 0 -242 -94q-95 -95 -95 -226
q0 -123 95 -218q98 -95 242 -95zM577 1067l230 245l258 -245h286l-355 425h-345l-353 -425h279zM990 -102h-329v-283h329v283z" />
    <glyph glyph-name="Abreveacute" unicode="&#x1eae;" horiz-adv-x="1892" 
d="M498 186h886l109 -186h399l-755 1262h-382l-755 -1262h390zM1246 419h-609l304 515zM751 1750h-245q16 -160 125 -284q129 -141 314 -141q186 0 315 141q110 119 125 284h-244q0 -78 -57 -138q-59 -59 -138 -59q-84 0 -139 58q-56 59 -56 139zM823 1731h217l243 304h-345
z" />
    <glyph glyph-name="abreveacute" unicode="&#x1eaf;" horiz-adv-x="1479" 
d="M1113 417v-193h-531q-42 0 -74 29q-28 31 -29 67q1 40 29 68q29 29 71 29h534zM497 0h455q105 0 180 104l40 -104h257v637q0 181 -81 261q-81 81 -226 81h-792l-75 -222h748q50 0 80 -31q30 -28 30 -68v-107q-67 82 -173 82h-443q-148 0 -242 -94q-95 -95 -95 -226
q0 -123 95 -218q98 -95 242 -95zM632 1506h-245q16 -160 125 -284q129 -141 314 -141q186 0 315 141q110 119 125 284h-244q0 -78 -57 -138q-59 -59 -138 -59q-84 0 -139 58q-56 59 -56 139zM876 1920l-175 -424h217l303 424h-345z" />
    <glyph glyph-name="Abrevegrave" unicode="&#x1eb0;" horiz-adv-x="1892" 
d="M498 186h886l109 -186h399l-755 1262h-382l-755 -1262h390zM1246 419h-609l304 515zM751 1750h-245q16 -160 125 -284q129 -141 314 -141q186 0 315 141q110 119 125 284h-244q0 -78 -57 -138q-59 -59 -138 -59q-84 0 -139 58q-56 59 -56 139zM1073 1731l-115 304h-345
l243 -304h217z" />
    <glyph glyph-name="abrevegrave" unicode="&#x1eb1;" horiz-adv-x="1479" 
d="M1113 417v-193h-531q-42 0 -74 29q-28 31 -29 67q1 40 29 68q29 29 71 29h534zM497 0h455q105 0 180 104l40 -104h257v637q0 181 -81 261q-81 81 -226 81h-792l-75 -222h748q50 0 80 -31q30 -28 30 -68v-107q-67 82 -173 82h-443q-148 0 -242 -94q-95 -95 -95 -226
q0 -123 95 -218q98 -95 242 -95zM632 1506h-245q16 -160 125 -284q129 -141 314 -141q186 0 315 141q110 119 125 284h-244q0 -78 -57 -138q-59 -59 -138 -59q-84 0 -139 58q-56 59 -56 139zM734 1496h217l-175 424h-345z" />
    <glyph glyph-name="Abrevehookabove" unicode="&#x1eb2;" horiz-adv-x="1892" 
d="M498 182h886l109 -182h399l-755 1234h-382l-755 -1234h390zM1246 411h-609l304 504zM755 1699h-240q16 -158 122 -273q126 -135 308 -135q183 0 309 135q107 113 122 273h-239q0 -74 -56 -133q-59 -56 -135 -56q-82 0 -136 55q-55 55 -55 134zM1030 1728h36q77 0 121 44
q46 46 46 120q0 60 -44 104q-47 47 -123 47h-345l-37 -111h299q21 0 35 -14q11 -11 11 -29q0 -22 -11 -33q-14 -14 -35 -14h-34q-75 0 -113 -41q-37 -40 -37 -111v-11h193v5q0 18 9 31t29 13z" />
    <glyph glyph-name="abrevehookabove" unicode="&#x1eb3;" horiz-adv-x="1479" 
d="M1113 417v-193h-531q-42 0 -74 29q-28 31 -29 67q1 40 29 68q29 29 71 29h534zM497 0h455q105 0 180 104l40 -104h257v637q0 181 -81 261q-81 81 -226 81h-792l-75 -222h748q50 0 80 -31q30 -28 30 -68v-107q-67 82 -173 82h-443q-148 0 -242 -94q-95 -95 -95 -226
q0 -123 95 -218q98 -95 242 -95zM636 1498h-245q16 -160 125 -284q129 -141 314 -141q186 0 315 141q110 119 125 284h-244q0 -78 -57 -138q-59 -59 -138 -59q-84 0 -139 58q-56 59 -56 139zM926 1570h39q84 0 130 46q49 49 49 130q0 63 -48 111q-50 50 -131 50h-369
l-40 -119h320q23 0 37 -14q12 -12 12 -32q0 -23 -12 -35q-16 -16 -37 -16h-37q-80 0 -120 -43q-41 -44 -41 -120v-12h208v6q0 21 9 33q11 15 31 15z" />
    <glyph glyph-name="Abrevetilde" unicode="&#x1eb4;" horiz-adv-x="1892" 
d="M1400 2022h-189q-23 -81 -106 -81q-65 0 -161 51q-94 51 -172 51q-220 0 -280 -291h189q26 80 103 80q62 0 164 -51q108 -50 171 -50q224 0 281 291zM755 1699h-240q16 -158 122 -273q126 -135 308 -135q183 0 309 135q107 113 122 273h-239q0 -74 -56 -133
q-59 -56 -135 -56q-82 0 -136 55q-55 55 -55 134zM498 182h886l109 -182h399l-755 1234h-382l-755 -1234h390zM1246 411h-609l304 504z" />
    <glyph glyph-name="abrevetilde" unicode="&#x1eb5;" horiz-adv-x="1479" 
d="M1113 417v-193h-531q-42 0 -74 29q-28 31 -29 67q1 40 29 68q29 29 71 29h534zM497 0h455q105 0 180 104l40 -104h257v637q0 181 -81 261q-81 81 -226 81h-792l-75 -222h748q50 0 80 -31q30 -28 30 -68v-107q-67 82 -173 82h-443q-148 0 -242 -94q-95 -95 -95 -226
q0 -123 95 -218q98 -95 242 -95zM632 1506h-245q16 -160 125 -284q129 -141 314 -141q186 0 315 141q110 119 125 284h-244q0 -78 -57 -138q-59 -59 -138 -59q-84 0 -139 58q-56 59 -56 139zM1302 1901h-199q-22 -85 -112 -85q-69 0 -170 54q-99 54 -180 54
q-232 0 -295 -306h199q24 83 108 83q69 0 173 -53t180 -53q236 0 296 306z" />
    <glyph glyph-name="Abrevedotbelow" unicode="&#x1eb6;" horiz-adv-x="1892" 
d="M498 186h886l109 -186h399l-755 1262h-382l-755 -1262h390zM1246 419h-609l304 515zM1105 -102h-329v-283h329v283zM751 1750h-245q16 -160 125 -284q129 -141 314 -141q186 0 315 141q110 119 125 284h-244q0 -78 -57 -138q-59 -59 -138 -59q-84 0 -139 58
q-56 59 -56 139z" />
    <glyph glyph-name="abrevedotbelow" unicode="&#x1eb7;" horiz-adv-x="1479" 
d="M1113 417v-193h-531q-42 0 -74 29q-28 31 -29 67q1 40 29 68q29 29 71 29h534zM497 0h455q105 0 180 104l40 -104h257v637q0 181 -81 261q-81 81 -226 81h-792l-75 -222h748q50 0 80 -31q30 -28 30 -68v-107q-67 82 -173 82h-443q-148 0 -242 -94q-95 -95 -95 -226
q0 -123 95 -218q98 -95 242 -95zM990 -102h-329v-283h329v283zM632 1506h-245q16 -160 125 -284q129 -141 314 -141q186 0 315 141q110 119 125 284h-244q0 -78 -57 -138q-59 -59 -138 -59q-84 0 -139 58q-56 59 -56 139z" />
    <glyph glyph-name="Edotbelow" unicode="&#x1eb8;" horiz-adv-x="1668" 
d="M1185 -102h-330v-282h330v282zM1658 764h-1014v217h1000l94 281h-1438v-1262h1344l94 281h-1094v226h928z" />
    <glyph glyph-name="edotbelow" unicode="&#x1eb9;" horiz-adv-x="1514" 
d="M1044 -102h-329v-283h329v283zM1228 599h-717v15q0 66 44 105q44 41 118 41h392q74 0 118 -41q45 -39 45 -108v-12zM1389 0l82 243h-798q-70 2 -117 40q-45 39 -45 104v26h1023v198q0 149 -121 258q-116 110 -281 110h-530q-162 0 -281 -110q-121 -109 -121 -258v-243
q0 -146 121 -258q122 -110 284 -110h784z" />
    <glyph glyph-name="Ehookabove" unicode="&#x1eba;" horiz-adv-x="1668" 
d="M1658 764h-1014v217h1000l94 281h-1438v-1262h1344l94 281h-1094v226h928zM1088 1377h39q84 0 130 46q49 49 49 130q0 63 -48 111q-50 50 -131 50h-369l-40 -119h320q23 0 37 -14q12 -12 12 -32q0 -23 -12 -35q-16 -16 -37 -16h-37q-80 0 -120 -43q-41 -44 -41 -120v-12
h208v6q0 21 9 33q11 15 31 15z" />
    <glyph glyph-name="ehookabove" unicode="&#x1ebb;" horiz-adv-x="1514" 
d="M1228 599h-717v15q0 66 44 105q44 41 118 41h392q74 0 118 -41q45 -39 45 -108v-12zM1389 0l82 243h-798q-70 2 -117 40q-45 39 -45 104v26h1023v198q0 149 -121 258q-116 110 -281 110h-530q-162 0 -281 -110q-121 -109 -121 -258v-243q0 -146 121 -258
q122 -110 284 -110h784zM947 1115h39q84 0 130 46q49 49 49 130q0 63 -48 111q-50 50 -131 50h-369l-40 -119h320q23 0 37 -14q12 -12 12 -32q0 -23 -12 -35q-16 -16 -37 -16h-37q-80 0 -120 -43q-41 -44 -41 -120v-12h208v6q0 21 9 33q10 15 31 15z" />
    <glyph glyph-name="Etilde" unicode="&#x1ebc;" horiz-adv-x="1668" 
d="M1658 764h-1014v217h1000l94 281h-1438v-1262h1344l94 281h-1094v226h928zM1533 1670h-216q-24 -85 -122 -85q-71 0 -184 54q-108 54 -196 54q-252 0 -321 -306h216q26 83 118 83q70 0 188 -53q124 -53 196 -53q255 0 321 306z" />
    <glyph glyph-name="etilde" unicode="&#x1ebd;" horiz-adv-x="1514" 
d="M1228 599h-717v15q0 66 44 105q44 41 118 41h392q74 0 118 -41q45 -39 45 -108v-12zM1389 0l82 243h-798q-70 2 -117 40q-45 39 -45 104v26h1023v198q0 149 -121 258q-116 110 -281 110h-530q-162 0 -281 -110q-121 -109 -121 -258v-243q0 -146 121 -258
q122 -110 284 -110h784zM1383 1387h-216q-24 -85 -122 -85q-71 0 -184 54q-108 54 -196 54q-252 0 -321 -306h216q26 83 118 83q70 0 188 -53q124 -53 196 -53q255 0 321 306z" />
    <glyph glyph-name="Ecircumflexacute" unicode="&#x1ebe;" horiz-adv-x="1668" 
d="M1658 764h-1014v217h1000l94 281h-1438v-1262h1344l94 281h-1094v226h928zM974 1503l198 -179h304l-313 341h-345l-311 -341h297zM872 1731h217l243 304h-345z" />
    <glyph glyph-name="ecircumflexacute" unicode="&#x1ebf;" horiz-adv-x="1514" 
d="M1228 599h-717v15q0 66 44 105q44 41 118 41h392q74 0 118 -41q45 -39 45 -108v-12zM1389 0l82 243h-798q-70 2 -117 40q-45 39 -45 104v26h1023v198q0 149 -121 258q-116 110 -281 110h-530q-162 0 -281 -110q-121 -109 -121 -258v-243q0 -146 121 -258
q122 -110 284 -110h784zM611 1061l230 245l258 -245h286l-355 425h-345l-353 -425h279zM934 2001l-175 -424h217l303 424h-345z" />
    <glyph glyph-name="Ecircumflexgrave" unicode="&#x1ec0;" horiz-adv-x="1668" 
d="M1658 764h-1014v217h1000l94 281h-1438v-1262h1344l94 281h-1094v226h928zM974 1503l198 -179h304l-313 341h-345l-311 -341h297zM1100 1731l-115 304h-345l243 -304h217z" />
    <glyph glyph-name="ecircumflexgrave" unicode="&#x1ec1;" horiz-adv-x="1514" 
d="M1228 599h-717v15q0 66 44 105q44 41 118 41h392q74 0 118 -41q45 -39 45 -108v-12zM1389 0l82 243h-798q-70 2 -117 40q-45 39 -45 104v26h1023v198q0 149 -121 258q-116 110 -281 110h-530q-162 0 -281 -110q-121 -109 -121 -258v-243q0 -146 121 -258
q122 -110 284 -110h784zM611 1061l230 245l258 -245h286l-355 425h-345l-353 -425h279zM744 1577h217l-175 424h-345z" />
    <glyph glyph-name="Ecircumflexhookabove" unicode="&#x1ec2;" horiz-adv-x="1668" 
d="M1116 1709h39q84 0 130 46q49 49 49 130q0 63 -48 111q-50 50 -131 50h-369l-40 -119h320q23 0 37 -14q12 -12 12 -32q0 -23 -12 -35q-16 -16 -37 -16h-37q-80 0 -120 -43q-41 -44 -41 -120v-12h208v6q0 21 9 33q11 15 31 15zM995 1438l206 -137h304l-321 303h-345
l-319 -303h297zM1658 756h-1014v209h1000l94 281h-1438v-1246h1344l94 281h-1094v218h928z" />
    <glyph glyph-name="ecircumflexhookabove" unicode="&#x1ec3;" horiz-adv-x="1514" 
d="M1228 599h-717v15q0 66 44 105q44 41 118 41h392q74 0 118 -41q45 -39 45 -108v-12zM1389 0l82 243h-798q-70 2 -117 40q-45 39 -45 104v26h1023v198q0 149 -121 258q-116 110 -281 110h-530q-162 0 -281 -110q-121 -109 -121 -258v-243q0 -146 121 -258
q122 -110 284 -110h784zM611 1061l230 245l258 -245h286l-355 425h-345l-353 -425h279zM971 1615h39q84 0 130 46q49 49 49 130q0 63 -48 111q-50 50 -131 50h-369l-40 -119h320q23 0 37 -14q12 -12 12 -32q0 -23 -12 -35q-16 -16 -37 -16h-37q-80 0 -120 -43
q-41 -44 -41 -120v-12h208v6q0 21 9 33q10 15 31 15z" />
    <glyph glyph-name="Ecircumflextilde" unicode="&#x1ec4;" horiz-adv-x="1668" 
d="M1658 764h-1014v217h1000l94 281h-1438v-1262h1344l94 281h-1094v226h928zM1482 2012h-199q-22 -85 -112 -85q-69 0 -170 54q-99 54 -180 54q-232 0 -295 -306h199q24 83 108 83q69 0 173 -53t180 -53q236 0 296 306zM979 1495l198 -179h304l-313 341h-345l-311 -341h297
z" />
    <glyph glyph-name="ecircumflextilde" unicode="&#x1ec5;" horiz-adv-x="1514" 
d="M1228 599h-717v15q0 66 44 105q44 41 118 41h392q74 0 118 -41q45 -39 45 -108v-12zM1389 0l82 243h-798q-70 2 -117 40q-45 39 -45 104v26h1023v198q0 149 -121 258q-116 110 -281 110h-530q-162 0 -281 -110q-121 -109 -121 -258v-243q0 -146 121 -258
q122 -110 284 -110h784zM605 1061l230 245l258 -245h286l-355 425h-345l-353 -425h279zM1354 1847h-199q-22 -85 -112 -85q-69 0 -170 54q-99 54 -180 54q-232 0 -295 -306h199q24 83 108 83q69 0 173 -53t180 -53q236 0 296 306z" />
    <glyph glyph-name="Ecircumflexdotbelow" unicode="&#x1ec6;" horiz-adv-x="1668" 
d="M1185 -102h-330v-282h330v282zM1658 764h-1014v217h1000l94 281h-1438v-1262h1344l94 281h-1094v226h928zM747 1364l230 245l258 -245h286l-355 425h-345l-353 -425h279z" />
    <glyph glyph-name="ecircumflexdotbelow" unicode="&#x1ec7;" horiz-adv-x="1514" 
d="M1228 599h-717v15q0 66 44 105q44 41 118 41h392q74 0 118 -41q45 -39 45 -108v-12zM1389 0l82 243h-798q-70 2 -117 40q-45 39 -45 104v26h1023v198q0 149 -121 258q-116 110 -281 110h-530q-162 0 -281 -110q-121 -109 -121 -258v-243q0 -146 121 -258
q122 -110 284 -110h784zM605 1061l230 245l258 -245h286l-355 425h-345l-353 -425h279zM1048 -102h-329v-283h329v283z" />
    <glyph glyph-name="Ihookabove" unicode="&#x1ec8;" horiz-adv-x="644" 
d="M560 1262h-344v-1262h344v1262zM502 1377h39q84 0 130 46q49 49 49 130q0 63 -48 111q-50 50 -131 50h-369l-40 -119h320q23 0 37 -14q12 -12 12 -32q0 -23 -12 -35q-16 -16 -37 -16h-37q-80 0 -120 -43q-41 -44 -41 -120v-12h208v6q0 21 9 33q11 15 31 15z" />
    <glyph glyph-name="ihookabove" unicode="&#x1ec9;" horiz-adv-x="597" 
d="M503 979h-317v-979h317v979zM462 1130h39q84 0 130 46q49 49 49 130q0 63 -48 111q-50 50 -131 50h-369l-40 -119h320q23 0 37 -14q12 -12 12 -32q0 -23 -12 -35q-16 -16 -37 -16h-37q-80 0 -120 -43q-41 -44 -41 -120v-12h208v6q0 21 9 33q11 15 31 15z" />
    <glyph glyph-name="Idotbelow" unicode="&#x1eca;" horiz-adv-x="644" 
d="M644 1262h-344v-1262h344v1262zM637 -102h-329v-283h329v283z" />
    <glyph glyph-name="idotbelow" unicode="&#x1ecb;" horiz-adv-x="609" 
d="M603 979h-317v-979h317v979zM609 -102h-329v-283h329v283z" />
    <glyph glyph-name="Odotbelow" unicode="&#x1ecc;" horiz-adv-x="1925" 
d="M220 842v-422q0 -166 127 -293q130 -127 341 -127h769q214 0 341 127q127 126 127 290v428q0 169 -126 292q-125 125 -342 125h-769q-214 0 -342 -125q-126 -125 -126 -295zM1369 285h-592q-90 0 -151 52q-59 50 -59 134v325q3 87 59 138q58 52 151 52h592q94 0 152 -52
q58 -50 59 -138v-322q0 -87 -59 -137q-57 -51 -152 -52zM1240 -102h-329v-283h329v283z" />
    <glyph glyph-name="odotbelow" unicode="&#x1ecd;" horiz-adv-x="1563" 
d="M200 611v-243q0 -146 121 -258q122 -110 284 -110h553q162 0 284 110q121 109 121 256v247q0 148 -121 256q-119 110 -281 110h-559q-162 0 -281 -110q-121 -109 -121 -258zM516 412v159q0 57 45 102q45 46 118 46h405q75 0 118 -46q45 -43 45 -100v-163q0 -55 -45 -100
q-43 -46 -118 -46h-405q-72 0 -118 46q-45 46 -45 102zM1043 -102h-329v-283h329v283z" />
    <glyph glyph-name="Ohookabove" unicode="&#x1ece;" horiz-adv-x="1925" 
d="M220 842v-422q0 -166 127 -293q130 -127 341 -127h769q214 0 341 127q127 126 127 290v428q0 169 -126 292q-125 125 -342 125h-769q-214 0 -342 -125q-126 -125 -126 -295zM1369 285h-592q-90 0 -151 52q-59 50 -59 134v325q3 87 59 138q58 52 151 52h592q94 0 152 -52
q58 -50 59 -138v-322q0 -87 -59 -137q-57 -51 -152 -52zM1178 1377h39q84 0 130 46q49 49 49 130q0 63 -48 111q-50 50 -131 50h-369l-40 -119h320q23 0 37 -14q12 -12 12 -32q0 -23 -12 -35q-16 -16 -37 -16h-37q-80 0 -120 -43q-41 -44 -41 -120v-12h208v6q0 21 9 33
q11 15 31 15z" />
    <glyph glyph-name="ohookabove" unicode="&#x1ecf;" horiz-adv-x="1563" 
d="M200 611v-243q0 -146 121 -258q122 -110 284 -110h553q162 0 284 110q121 109 121 256v247q0 148 -121 256q-119 110 -281 110h-559q-162 0 -281 -110q-121 -109 -121 -258zM516 412v159q0 57 45 102q45 46 118 46h405q75 0 118 -46q45 -43 45 -100v-163q0 -55 -45 -100
q-43 -46 -118 -46h-405q-72 0 -118 46q-45 46 -45 102zM976 1115h39q84 0 130 46q49 49 49 130q0 63 -48 111q-50 50 -131 50h-369l-40 -119h320q23 0 37 -14q12 -12 12 -32q0 -23 -12 -35q-16 -16 -37 -16h-37q-80 0 -120 -43q-41 -44 -41 -120v-12h208v6q0 21 9 33
q11 15 31 15z" />
    <glyph glyph-name="Ocircumflexacute" unicode="&#x1ed0;" horiz-adv-x="1925" 
d="M220 842v-422q0 -166 127 -293q130 -127 341 -127h769q214 0 341 127q127 126 127 290v428q0 169 -126 292q-125 125 -342 125h-769q-214 0 -342 -125q-126 -125 -126 -295zM1369 285h-592q-90 0 -151 52q-59 50 -59 134v325q3 87 59 138q58 52 151 52h592q94 0 152 -52
q58 -50 59 -138v-322q0 -87 -59 -137q-57 -51 -152 -52zM1054 1503l198 -179h304l-313 341h-345l-311 -341h297zM980 1731h217l243 304h-345z" />
    <glyph glyph-name="ocircumflexacute" unicode="&#x1ed1;" horiz-adv-x="1563" 
d="M200 611v-243q0 -146 121 -258q122 -110 284 -110h553q162 0 284 110q121 109 121 256v247q0 148 -121 256q-119 110 -281 110h-559q-162 0 -281 -110q-121 -109 -121 -258zM516 412v159q0 57 45 102q45 46 118 46h405q75 0 118 -46q45 -43 45 -100v-163q0 -55 -45 -100
q-43 -46 -118 -46h-405q-72 0 -118 46q-45 46 -45 102zM624 1061l230 245l258 -245h286l-355 425h-345l-353 -425h279zM947 2001l-175 -424h217l303 424h-345z" />
    <glyph glyph-name="Ocircumflexgrave" unicode="&#x1ed2;" horiz-adv-x="1925" 
d="M220 842v-422q0 -166 127 -293q130 -127 341 -127h769q214 0 341 127q127 126 127 290v428q0 169 -126 292q-125 125 -342 125h-769q-214 0 -342 -125q-126 -125 -126 -295zM1369 285h-592q-90 0 -151 52q-59 50 -59 134v325q3 87 59 138q58 52 151 52h592q94 0 152 -52
q58 -50 59 -138v-322q0 -87 -59 -137q-57 -51 -152 -52zM1054 1503l198 -179h304l-313 341h-345l-311 -341h297zM1188 1731l-115 304h-345l243 -304h217z" />
    <glyph glyph-name="ocircumflexgrave" unicode="&#x1ed3;" horiz-adv-x="1563" 
d="M200 611v-243q0 -146 121 -258q122 -110 284 -110h553q162 0 284 110q121 109 121 256v247q0 148 -121 256q-119 110 -281 110h-559q-162 0 -281 -110q-121 -109 -121 -258zM516 412v159q0 57 45 102q45 46 118 46h405q75 0 118 -46q45 -43 45 -100v-163q0 -55 -45 -100
q-43 -46 -118 -46h-405q-72 0 -118 46q-45 46 -45 102zM630 1061l230 245l258 -245h286l-355 425h-345l-353 -425h279zM763 1577h217l-175 424h-345z" />
    <glyph glyph-name="Ocircumflexhookabove" unicode="&#x1ed4;" horiz-adv-x="1925" 
d="M220 842v-422q0 -166 127 -293q130 -127 341 -127h769q214 0 341 127q127 126 127 290v428q0 169 -126 292q-125 125 -342 125h-769q-214 0 -342 -125q-126 -125 -126 -295zM1369 285h-592q-90 0 -151 52q-59 50 -59 134v325q3 87 59 138q58 52 151 52h592q94 0 152 -52
q58 -50 59 -138v-322q0 -87 -59 -137q-57 -51 -152 -52zM1178 1709h39q84 0 130 46q49 49 49 130q0 63 -48 111q-50 50 -131 50h-369l-40 -119h320q23 0 37 -14q12 -12 12 -32q0 -23 -12 -35q-16 -16 -37 -16h-37q-80 0 -120 -43q-41 -44 -41 -120v-12h208v6q0 21 9 33
q11 15 31 15zM1057 1438l206 -137h304l-321 303h-345l-319 -303h297z" />
    <glyph glyph-name="ocircumflexhookabove" unicode="&#x1ed5;" horiz-adv-x="1563" 
d="M624 1061l230 245l258 -245h286l-355 425h-345l-353 -425h279zM972 1615h39q84 0 130 46q49 49 49 130q0 63 -48 111q-50 50 -131 50h-369l-40 -119h320q23 0 37 -14q12 -12 12 -32q0 -23 -12 -35q-16 -16 -37 -16h-37q-80 0 -120 -43q-41 -44 -41 -120v-12h208v6
q0 21 9 33q10 15 31 15zM200 611v-243q0 -146 121 -258q122 -110 284 -110h553q162 0 284 110q121 109 121 256v247q0 148 -121 256q-119 110 -281 110h-559q-162 0 -281 -110q-121 -109 -121 -258zM516 412v159q0 57 45 102q45 46 118 46h405q75 0 118 -46q45 -43 45 -100
v-163q0 -55 -45 -100q-43 -46 -118 -46h-405q-72 0 -118 46q-45 46 -45 102z" />
    <glyph glyph-name="Ocircumflextilde" unicode="&#x1ed6;" horiz-adv-x="1925" 
d="M220 842v-422q0 -166 127 -293q130 -127 341 -127h769q214 0 341 127q127 126 127 290v428q0 169 -126 292q-125 125 -342 125h-769q-214 0 -342 -125q-126 -125 -126 -295zM1369 285h-592q-90 0 -151 52q-59 50 -59 134v325q3 87 59 138q58 52 151 52h592q94 0 152 -52
q58 -50 59 -138v-322q0 -87 -59 -137q-57 -51 -152 -52zM1562 2012h-199q-22 -85 -112 -85q-69 0 -170 54q-99 54 -180 54q-232 0 -295 -306h199q24 83 108 83q69 0 173 -53t180 -53q236 0 296 306zM1059 1495l198 -179h304l-313 341h-345l-311 -341h297z" />
    <glyph glyph-name="ocircumflextilde" unicode="&#x1ed7;" horiz-adv-x="1563" 
d="M200 611v-243q0 -146 121 -258q122 -110 284 -110h553q162 0 284 110q121 109 121 256v247q0 148 -121 256q-119 110 -281 110h-559q-162 0 -281 -110q-121 -109 -121 -258zM516 412v159q0 57 45 102q45 46 118 46h405q75 0 118 -46q45 -43 45 -100v-163q0 -55 -45 -100
q-43 -46 -118 -46h-405q-72 0 -118 46q-45 46 -45 102zM624 1061l230 245l258 -245h286l-355 425h-345l-353 -425h279zM1373 1847h-199q-22 -85 -112 -85q-69 0 -170 54q-99 54 -180 54q-232 0 -295 -306h199q24 83 108 83q69 0 173 -53t180 -53q236 0 296 306z" />
    <glyph glyph-name="Ocircumflexdotbelow" unicode="&#x1ed8;" horiz-adv-x="1925" 
d="M220 842v-422q0 -166 127 -293q130 -127 341 -127h769q214 0 341 127q127 126 127 290v428q0 169 -126 292q-125 125 -342 125h-769q-214 0 -342 -125q-126 -125 -126 -295zM1369 285h-592q-90 0 -151 52q-59 50 -59 134v325q3 87 59 138q58 52 151 52h592q94 0 152 -52
q58 -50 59 -138v-322q0 -87 -59 -137q-57 -51 -152 -52zM1240 -102h-329v-283h329v283zM825 1364l230 245l258 -245h286l-355 425h-345l-353 -425h279z" />
    <glyph glyph-name="ocircumflexdotbelow" unicode="&#x1ed9;" horiz-adv-x="1563" 
d="M200 611v-243q0 -146 121 -258q122 -110 284 -110h553q162 0 284 110q121 109 121 256v247q0 148 -121 256q-119 110 -281 110h-559q-162 0 -281 -110q-121 -109 -121 -258zM516 412v159q0 57 45 102q45 46 118 46h405q75 0 118 -46q45 -43 45 -100v-163q0 -55 -45 -100
q-43 -46 -118 -46h-405q-72 0 -118 46q-45 46 -45 102zM624 1061l230 245l258 -245h286l-355 425h-345l-353 -425h279zM1043 -102h-329v-283h329v283z" />
    <glyph glyph-name="Ohornacute" unicode="&#x1eda;" horiz-adv-x="2080" 
d="M1369 285h-592q-90 0 -151 52q-59 50 -59 134v325q3 87 59 138q58 52 151 52h592q94 0 152 -52q58 -50 59 -138v-322q0 -87 -59 -137q-57 -51 -152 -52zM1919 952q141 0 232 91q89 95 89 216v129h-268v-150q0 -28 -22 -50t-56 -22h-128q-120 96 -309 96h-769
q-214 0 -342 -125q-126 -125 -126 -295v-422q0 -166 127 -293q130 -127 341 -127h769q214 0 341 127q127 126 127 290v464q0 37 -6 71zM1095 1788l-175 -424h217l303 424h-345z" />
    <glyph glyph-name="ohornacute" unicode="&#x1edb;" horiz-adv-x="1733" 
d="M516 412v159q0 57 45 102q45 46 118 46h405q75 0 118 -46q45 -43 45 -100v-163q0 -55 -45 -100q-43 -46 -118 -46h-405q-72 0 -118 46q-45 46 -45 102zM1563 649l-2 35q142 0 233 91q89 95 89 216v129h-268v-150q0 -28 -22 -50t-56 -22h-129q-106 81 -247 81h-559
q-162 0 -281 -110q-121 -109 -121 -258v-243q0 -146 121 -258q122 -110 284 -110h553q162 0 284 110q121 109 121 256v283zM947 1505l-175 -424h217l303 424h-345z" />
    <glyph glyph-name="Ohorngrave" unicode="&#x1edc;" horiz-adv-x="2080" 
d="M1369 285h-592q-90 0 -151 52q-59 50 -59 134v325q3 87 59 138q58 52 151 52h592q94 0 152 -52q58 -50 59 -138v-322q0 -87 -59 -137q-57 -51 -152 -52zM1919 952q141 0 232 91q89 95 89 216v129h-268v-150q0 -28 -22 -50t-56 -22h-128q-120 96 -309 96h-769
q-214 0 -342 -125q-126 -125 -126 -295v-422q0 -166 127 -293q130 -127 341 -127h769q214 0 341 127q127 126 127 290v464q0 37 -6 71zM1032 1788h-346l303 -424h217z" />
    <glyph glyph-name="ohorngrave" unicode="&#x1edd;" horiz-adv-x="1733" 
d="M516 412v159q0 57 45 102q45 46 118 46h405q75 0 118 -46q45 -43 45 -100v-163q0 -55 -45 -100q-43 -46 -118 -46h-405q-72 0 -118 46q-45 46 -45 102zM1563 649l-2 35q142 0 233 91q89 95 89 216v129h-268v-150q0 -28 -22 -50t-56 -22h-129q-106 81 -247 81h-559
q-162 0 -281 -110q-121 -109 -121 -258v-243q0 -146 121 -258q122 -110 284 -110h553q162 0 284 110q121 109 121 256v283zM842 1505h-346l303 -424h217z" />
    <glyph glyph-name="Ohornhookabove" unicode="&#x1ede;" horiz-adv-x="2080" 
d="M1369 285h-592q-90 0 -151 52q-59 50 -59 134v325q3 87 59 138q58 52 151 52h592q94 0 152 -52q58 -50 59 -138v-322q0 -87 -59 -137q-57 -51 -152 -52zM1919 952q141 0 232 91q89 95 89 216v129h-268v-150q0 -28 -22 -50t-56 -22h-128q-120 96 -309 96h-769
q-214 0 -342 -125q-126 -125 -126 -295v-422q0 -166 127 -293q130 -127 341 -127h769q214 0 341 127q127 126 127 290v464q0 37 -6 71zM1178 1377h39q84 0 130 46q49 49 49 130q0 63 -48 111q-50 50 -131 50h-369l-40 -119h320q23 0 37 -14q12 -12 12 -32q0 -23 -12 -35
q-16 -16 -37 -16h-37q-80 0 -120 -43q-41 -44 -41 -120v-12h208v6q0 21 9 33q11 15 31 15z" />
    <glyph glyph-name="ohornhookabove" unicode="&#x1edf;" horiz-adv-x="1733" 
d="M516 412v159q0 57 45 102q45 46 118 46h405q75 0 118 -46q45 -43 45 -100v-163q0 -55 -45 -100q-43 -46 -118 -46h-405q-72 0 -118 46q-45 46 -45 102zM1563 649l-2 35q142 0 233 91q89 95 89 216v129h-268v-150q0 -28 -22 -50t-56 -22h-129q-106 81 -247 81h-559
q-162 0 -281 -110q-121 -109 -121 -258v-243q0 -146 121 -258q122 -110 284 -110h553q162 0 284 110q121 109 121 256v283zM976 1115h39q84 0 130 46q49 49 49 130q0 63 -48 111q-50 50 -131 50h-369l-40 -119h320q23 0 37 -14q12 -12 12 -32q0 -23 -12 -35q-16 -16 -37 -16
h-37q-80 0 -120 -43q-41 -44 -41 -120v-12h208v6q0 21 9 33q11 15 31 15z" />
    <glyph glyph-name="Ohorntilde" unicode="&#x1ee0;" horiz-adv-x="2080" 
d="M1369 285h-592q-90 0 -151 52q-59 50 -59 134v325q3 87 59 138q58 52 151 52h592q94 0 152 -52q58 -50 59 -138v-322q0 -87 -59 -137q-57 -51 -152 -52zM1919 952q141 0 232 91q89 95 89 216v129h-268v-150q0 -28 -22 -50t-56 -22h-128q-120 96 -309 96h-769
q-214 0 -342 -125q-126 -125 -126 -295v-422q0 -166 127 -293q130 -127 341 -127h769q214 0 341 127q127 126 127 290v464q0 37 -6 71zM1591 1670h-216q-24 -85 -122 -85q-71 0 -184 54q-108 54 -196 54q-252 0 -321 -306h216q26 83 118 83q70 0 188 -53q124 -53 196 -53
q255 0 321 306z" />
    <glyph glyph-name="ohorntilde" unicode="&#x1ee1;" horiz-adv-x="1733" 
d="M516 412v159q0 57 45 102q45 46 118 46h405q75 0 118 -46q45 -43 45 -100v-163q0 -55 -45 -100q-43 -46 -118 -46h-405q-72 0 -118 46q-45 46 -45 102zM1563 643l-2 35q142 0 233 91q89 95 89 216v135h-268v-150q0 -28 -22 -50t-56 -22h-129q-106 81 -247 81h-559
q-162 0 -281 -110q-121 -109 -121 -258v-243q0 -146 121 -258q122 -110 284 -110h553q162 0 284 110q121 109 121 256v277zM1401 1387h-216q-24 -85 -122 -85q-71 0 -184 54q-108 54 -196 54q-252 0 -321 -306h216q26 83 118 83q70 0 188 -53q124 -53 196 -53q255 0 321 306
z" />
    <glyph glyph-name="Ohorndotbelow" unicode="&#x1ee2;" horiz-adv-x="2080" 
d="M1369 285h-592q-90 0 -151 52q-59 50 -59 134v325q3 87 59 138q58 52 151 52h592q94 0 152 -52q58 -50 59 -138v-322q0 -87 -59 -137q-57 -51 -152 -52zM1919 952q141 0 232 91q89 95 89 216v129h-268v-150q0 -28 -22 -50t-56 -22h-128q-120 96 -309 96h-769
q-214 0 -342 -125q-126 -125 -126 -295v-422q0 -166 127 -293q130 -127 341 -127h769q214 0 341 127q127 126 127 290v464q0 37 -6 71zM1252 -102h-329v-283h329v283z" />
    <glyph glyph-name="ohorndotbelow" unicode="&#x1ee3;" horiz-adv-x="1733" 
d="M516 412v159q0 57 45 102q45 46 118 46h405q75 0 118 -46q45 -43 45 -100v-163q0 -55 -45 -100q-43 -46 -118 -46h-405q-72 0 -118 46q-45 46 -45 102zM1563 649l-2 35q142 0 233 91q89 95 89 216v129h-268v-150q0 -28 -22 -50t-56 -22h-129q-106 81 -247 81h-559
q-162 0 -281 -110q-121 -109 -121 -258v-243q0 -146 121 -258q122 -110 284 -110h553q162 0 284 110q121 109 121 256v283zM1043 -102h-329v-283h329v283z" />
    <glyph glyph-name="Udotbelow" unicode="&#x1ee4;" horiz-adv-x="1788" 
d="M1189 -102h-329v-283h329v283zM1788 1262h-345v-791q0 -84 -59 -134q-58 -52 -151 -52h-416q-90 0 -151 52q-59 50 -59 134v791h-347v-842q0 -166 127 -293q130 -127 341 -127h592q214 0 341 127t127 293v842z" />
    <glyph glyph-name="udotbelow" unicode="&#x1ee5;" horiz-adv-x="1483" 
d="M556 979h-316v-611q0 -146 121 -258q122 -110 284 -110h300q136 0 226 123l46 -123h246v979h-316v-717h-428q-72 0 -118 40q-45 40 -45 108v569zM1013 -96h-329v-283h329v283z" />
    <glyph glyph-name="Uhookabove" unicode="&#x1ee6;" horiz-adv-x="1788" 
d="M1100 1377h39q84 0 130 46q49 49 49 130q0 63 -48 111q-50 50 -131 50h-369l-40 -119h320q23 0 37 -14q12 -12 12 -32q0 -23 -12 -35q-16 -16 -37 -16h-37q-80 0 -120 -43q-41 -44 -41 -120v-12h208v6q0 21 9 33q11 15 31 15zM1788 1262h-345v-791q0 -84 -59 -134
q-58 -52 -151 -52h-416q-90 0 -151 52q-59 50 -59 134v791h-347v-842q0 -166 127 -293q130 -127 341 -127h592q214 0 341 127t127 293v842z" />
    <glyph glyph-name="uhookabove" unicode="&#x1ee7;" horiz-adv-x="1483" 
d="M556 979h-316v-611q0 -146 121 -258q122 -110 284 -110h300q136 0 226 123l46 -123h246v979h-316v-717h-428q-72 0 -118 40q-45 40 -45 108v569zM934 1115h39q84 0 130 46q49 49 49 130q0 63 -48 111q-50 50 -131 50h-369l-40 -119h320q23 0 37 -14q12 -12 12 -32
q0 -23 -12 -35q-16 -16 -37 -16h-37q-80 0 -120 -43q-41 -44 -41 -120v-12h208v6q0 21 9 33q11 15 31 15z" />
    <glyph glyph-name="Uhornacute" unicode="&#x1ee8;" horiz-adv-x="2057" 
d="M1788 1048h127q142 0 233 91q89 95 89 216v129h-268v-150q0 -28 -22 -50t-56 -22h-448v-791q0 -84 -59 -134q-58 -52 -151 -52h-416q-90 0 -151 52q-59 50 -59 134v791h-347v-842q0 -166 127 -293q130 -127 341 -127h592q214 0 341 127t127 293v628zM1047 1788l-175 -424
h217l303 424h-345z" />
    <glyph glyph-name="uhornacute" unicode="&#x1ee9;" horiz-adv-x="1703" 
d="M556 979h-316v-611q0 -146 121 -258q122 -110 284 -110h300q136 0 226 123l46 -123h246v765h88q142 0 233 91q89 95 89 216v129h-268v-150q0 -28 -22 -50t-56 -22h-380v-717h-428q-72 0 -118 40q-45 40 -45 108v569zM893 1505l-175 -424h217l303 424h-345z" />
    <glyph glyph-name="Uhorngrave" unicode="&#x1eea;" horiz-adv-x="2057" 
d="M1788 1048h127q142 0 233 91q89 95 89 216v129h-268v-150q0 -28 -22 -50t-56 -22h-448v-791q0 -84 -59 -134q-58 -52 -151 -52h-416q-90 0 -151 52q-59 50 -59 134v791h-347v-842q0 -166 127 -293q130 -127 341 -127h592q214 0 341 127t127 293v628zM1002 1788h-346
l303 -424h217z" />
    <glyph glyph-name="uhorngrave" unicode="&#x1eeb;" horiz-adv-x="1703" 
d="M556 979h-316v-611q0 -146 121 -258q122 -110 284 -110h300q136 0 226 123l46 -123h246v765h88q142 0 233 91q89 95 89 216v129h-268v-150q0 -28 -22 -50t-56 -22h-380v-717h-428q-72 0 -118 40q-45 40 -45 108v569zM824 1505h-346l303 -424h217z" />
    <glyph glyph-name="Uhornhookabove" unicode="&#x1eec;" horiz-adv-x="2057" 
d="M1788 1048h127q142 0 233 91q89 95 89 216v129h-268v-150q0 -28 -22 -50t-56 -22h-448v-791q0 -84 -59 -134q-58 -52 -151 -52h-416q-90 0 -151 52q-59 50 -59 134v791h-347v-842q0 -166 127 -293q130 -127 341 -127h592q214 0 341 127t127 293v628zM1100 1377h39
q84 0 130 46q49 49 49 130q0 63 -48 111q-50 50 -131 50h-369l-40 -119h320q23 0 37 -14q12 -12 12 -32q0 -23 -12 -35q-16 -16 -37 -16h-37q-80 0 -120 -43q-41 -44 -41 -120v-12h208v6q0 21 9 33q11 15 31 15z" />
    <glyph glyph-name="uhornhookabove" unicode="&#x1eed;" horiz-adv-x="1703" 
d="M556 979h-316v-611q0 -146 121 -258q122 -110 284 -110h300q136 0 226 123l46 -123h246v765h88q142 0 233 91q89 95 89 216v129h-268v-150q0 -28 -22 -50t-56 -22h-380v-717h-428q-72 0 -118 40q-45 40 -45 108v569zM934 1115h39q84 0 130 46q49 49 49 130q0 63 -48 111
q-50 50 -131 50h-369l-40 -119h320q23 0 37 -14q12 -12 12 -32q0 -23 -12 -35q-16 -16 -37 -16h-37q-80 0 -120 -43q-41 -44 -41 -120v-12h208v6q0 21 9 33q11 15 31 15z" />
    <glyph glyph-name="Uhorntilde" unicode="&#x1eee;" horiz-adv-x="2057" 
d="M1788 1048h127q142 0 233 91q89 95 89 216v129h-268v-150q0 -28 -22 -50t-56 -22h-448v-791q0 -84 -59 -134q-58 -52 -151 -52h-416q-90 0 -151 52q-59 50 -59 134v791h-347v-842q0 -166 127 -293q130 -127 341 -127h592q214 0 341 127t127 293v628zM1564 1670h-216
q-24 -85 -122 -85q-72 0 -184 54q-108 54 -196 54q-252 0 -321 -306h216q26 83 118 83q70 0 188 -53q124 -53 196 -53q255 0 321 306z" />
    <glyph glyph-name="uhorntilde" unicode="&#x1eef;" horiz-adv-x="1703" 
d="M556 979h-316v-611q0 -146 121 -258q122 -110 284 -110h300q136 0 226 123l46 -123h246v759h88q142 0 233 91q89 95 89 216v135h-268v-150q0 -28 -22 -50t-56 -22h-380v-717h-428q-72 0 -118 40q-45 40 -45 108v569zM1371 1387h-216q-24 -85 -122 -85q-71 0 -184 54
q-108 54 -196 54q-252 0 -321 -306h216q26 83 118 83q70 0 188 -53q124 -53 196 -53q255 0 321 306z" />
    <glyph glyph-name="Uhorndotbelow" unicode="&#x1ef0;" horiz-adv-x="2057" 
d="M1788 1048h127q142 0 233 91q89 95 89 216v129h-268v-150q0 -28 -22 -50t-56 -22h-448v-791q0 -84 -59 -134q-58 -52 -151 -52h-416q-90 0 -151 52q-59 50 -59 134v791h-347v-842q0 -166 127 -293q130 -127 341 -127h592q214 0 341 127t127 293v628zM1189 -102h-329v-283
h329v283z" />
    <glyph glyph-name="uhorndotbelow" unicode="&#x1ef1;" horiz-adv-x="1703" 
d="M556 979h-316v-611q0 -146 121 -258q122 -110 284 -110h300q136 0 226 123l46 -123h246v765h88q142 0 233 91q89 95 89 216v129h-268v-150q0 -28 -22 -50t-56 -22h-380v-717h-428q-72 0 -118 40q-45 40 -45 108v569zM1013 -96h-329v-283h329v283z" />
    <glyph glyph-name="Ygrave" unicode="&#x1ef2;" horiz-adv-x="1834" 
d="M1089 438l745 824h-461l-456 -531l-455 531h-462l745 -824v-438h344v438zM1047 1364l-175 424h-345l303 -424h217z" />
    <glyph glyph-name="ygrave" unicode="&#x1ef3;" horiz-adv-x="1377" 
d="M681 -448l696 1427h-365l-338 -748l-304 748h-370l456 -979h107l-237 -448h355zM597 1081h217l-175 424h-345z" />
    <glyph glyph-name="Ydotbelow" unicode="&#x1ef4;" horiz-adv-x="1834" 
d="M1089 438l745 824h-461l-456 -531l-455 531h-462l745 -824v-438h344v438zM1086 -102h-330v-282h330v282z" />
    <glyph glyph-name="ydotbelow" unicode="&#x1ef5;" horiz-adv-x="1377" 
d="M681 -448l696 1427h-365l-338 -748l-304 748h-370l456 -979h107l-237 -448h355zM1238 -102h-330v-282h330v282z" />
    <glyph glyph-name="Yhookabove" unicode="&#x1ef6;" horiz-adv-x="1834" 
d="M1089 438l745 824h-461l-456 -531l-455 531h-462l745 -824v-438h344v438zM992 1377h39q84 0 130 46q49 49 49 130q0 63 -48 111q-50 50 -131 50h-369l-40 -119h320q23 0 37 -14q12 -12 12 -32q0 -23 -12 -35q-16 -16 -37 -16h-37q-80 0 -120 -43q-41 -44 -41 -120v-12
h208v6q0 21 9 33q11 15 31 15z" />
    <glyph glyph-name="yhookabove" unicode="&#x1ef7;" horiz-adv-x="1377" 
d="M681 -448l696 1427h-365l-338 -748l-304 748h-370l456 -979h107l-237 -448h355zM780 1115h39q84 0 130 46q49 49 49 130q0 63 -48 111q-50 50 -131 50h-369l-40 -119h320q23 0 37 -14q12 -12 12 -32q0 -23 -12 -35q-16 -16 -37 -16h-37q-80 0 -120 -43q-41 -44 -41 -120
v-12h208v6q0 21 9 33q11 15 31 15z" />
    <glyph glyph-name="Ytilde" unicode="&#x1ef8;" horiz-adv-x="1834" 
d="M1089 438l745 824h-461l-456 -531l-455 531h-462l745 -824v-438h344v438zM1462 1670h-216q-24 -85 -122 -85q-72 0 -184 54q-108 54 -196 54q-252 0 -321 -306h216q26 83 118 83q70 0 188 -53q124 -53 196 -53q255 0 321 306z" />
    <glyph glyph-name="ytilde" unicode="&#x1ef9;" horiz-adv-x="1377" 
d="M681 -448l696 1427h-365l-338 -748l-304 748h-370l456 -979h107l-237 -448h355zM1218 1387h-216q-24 -85 -122 -85q-72 0 -184 54q-108 54 -196 54q-252 0 -321 -306h216q26 83 118 83q70 0 188 -53q124 -53 196 -53q255 0 321 306z" />
    <glyph glyph-name="endash" unicode="&#x2013;" horiz-adv-x="1519" 
d="M296 620v-262h1223v262h-1223z" />
    <glyph glyph-name="emdash" unicode="&#x2014;" horiz-adv-x="2137" 
d="M294 619v-262h1843v262h-1843z" />
    <glyph glyph-name="quoteleft" unicode="&#x2018;" horiz-adv-x="813" 
d="M324 981h329v283h-169v50q0 26 20 46t54 20h88l48 148h-121q-122 0 -185 -60q-64 -60 -64 -184v-303z" />
    <glyph glyph-name="quoteright" unicode="&#x2019;" horiz-adv-x="813" 
d="M694 1529h-329v-283h169v-50q0 -26 -20 -46t-54 -20h-88l-48 -148h121q122 0 185 60q64 60 64 184v303z" />
    <glyph glyph-name="quotesinglbase" unicode="&#x201a;" horiz-adv-x="842" 
d="M752 283h-329v-283h169v-50q0 -26 -20 -46t-54 -20h-88l-48 -148h121q122 0 185 60q64 60 64 184v303z" />
    <glyph glyph-name="quoteleftreversed" unicode="&#x201b;" horiz-adv-x="694" 
d="M324 1529v-303q0 -124 64 -184q63 -60 185 -60h121l-48 148h-88q-34 0 -54 20t-20 46v50h169v283h-329z" />
    <glyph glyph-name="quotedblleft" unicode="&#x201c;" horiz-adv-x="1228" 
d="M739 981h329v283h-169v50q0 26 20 46t54 20h88l48 148h-121q-122 0 -185 -60q-64 -60 -64 -184v-303zM324 981h329v283h-169v50q0 26 20 46t54 20h88l48 148h-121q-122 0 -185 -60q-64 -60 -64 -184v-303z" />
    <glyph glyph-name="quotedblright" unicode="&#x201d;" horiz-adv-x="1228" 
d="M694 1529h-329v-283h169v-50q0 -26 -20 -46t-54 -20h-88l-48 -148h121q122 0 185 60q64 60 64 184v303zM1109 1529h-329v-283h169v-50q0 -26 -20 -46t-54 -20h-88l-48 -148h121q122 0 185 60q64 60 64 184v303z" />
    <glyph glyph-name="quotedblbase" unicode="&#x201e;" horiz-adv-x="1228" 
d="M694 283h-329v-283h169v-50q0 -26 -20 -46t-54 -20h-88l-48 -148h121q122 0 185 60q64 60 64 184v303zM1109 283h-329v-283h169v-50q0 -26 -20 -46t-54 -20h-88l-48 -148h121q122 0 185 60q64 60 64 184v303z" />
    <glyph glyph-name="uni201F" unicode="&#x201f;" horiz-adv-x="1228" 
d="M857 1529v-303q0 -124 64 -184q63 -60 185 -60h121l-48 148h-88q-34 0 -54 20t-20 46v50h169v283h-329zM442 1529v-303q0 -124 64 -184q63 -60 185 -60h121l-48 148h-88q-34 0 -54 20t-20 46v50h169v283h-329z" />
    <glyph glyph-name="dagger" unicode="&#x2020;" horiz-adv-x="1334" 
d="M977 616h357v260h-357v386h-260v-386h-357v-260h357v-1065h260v1065z" />
    <glyph glyph-name="daggerdbl" unicode="&#x2021;" horiz-adv-x="1334" 
d="M977 -450v386h357v260h-357v420h357v260h-357v386h-260v-386h-357v-260h357v-420h-357v-260h357v-386h260z" />
    <glyph glyph-name="bullet" unicode="&#x2022;" horiz-adv-x="966" 
d="M397 855q-97 -91 -97 -224q0 -130 97 -224q97 -93 235 -93q137 0 236 93q98 93 98 224q0 132 -98 224q-98 93 -236 93t-235 -93z" />
    <glyph glyph-name="ellipsis" unicode="&#x2026;" horiz-adv-x="2821" 
d="M773 283h-329v-283h329v283zM2773 283h-329v-283h329v283zM1773 283h-329v-283h329v283z" />
    <glyph glyph-name="perthousand" unicode="&#x2030;" horiz-adv-x="2939" 
d="M1774 1262h-270l-952 -1262h270zM240 964v-80q0 -140 79 -219q84 -78 255 -78h89q172 0 253 78q80 80 80 219v80q0 143 -80 220q-81 78 -253 78h-89q-171 0 -255 -78q-79 -78 -79 -220zM458 886v91q0 57 25 85q26 26 99 26h72q74 0 98 -26q26 -26 26 -85v-91
q0 -59 -26 -85q-23 -26 -98 -26h-72q-70 0 -99 26q-25 31 -25 85zM1318 377v-80q0 -140 79 -219q84 -78 255 -78h89q172 0 253 78q80 80 80 219v80q0 143 -80 220q-81 78 -253 78h-89q-171 0 -255 -78q-79 -78 -79 -220zM1536 287v91q0 57 25 85q26 26 99 26h72q74 0 98 -26
q26 -26 26 -85v-91q0 -59 -26 -85q-23 -26 -98 -26h-72q-70 0 -99 26q-25 31 -25 85zM2183 377v-80q0 -140 79 -219q84 -78 255 -78h89q172 0 253 78q80 80 80 219v80q0 143 -80 220q-81 78 -253 78h-89q-171 0 -255 -78q-79 -78 -79 -220zM2401 287v91q0 57 25 85
q26 26 99 26h72q74 0 98 -26q26 -26 26 -85v-91q0 -59 -26 -85q-23 -26 -98 -26h-72q-70 0 -99 26q-25 31 -25 85z" />
    <glyph glyph-name="guilsinglleft" unicode="&#x2039;" horiz-adv-x="752" 
d="M650 927l-410 -351v-172l410 -352l102 182l-282 255l282 256z" />
    <glyph glyph-name="guilsinglright" unicode="&#x203a;" horiz-adv-x="752" 
d="M752 404v172l-410 351l-102 -182l282 -256l-282 -255l102 -182z" />
    <glyph glyph-name="fraction" unicode="&#x2044;" horiz-adv-x="1462" 
d="M1462 1262h-270l-952 -1262h270z" />
    <glyph glyph-name="zerosuperior" unicode="&#x2070;" horiz-adv-x="1491" 
d="M540 965v-201q0 -138 89 -218q88 -79 239 -79h369q148 -1 239 79q89 80 89 217v203q0 136 -89 216t-236 80h-374q-148 0 -237 -80q-89 -81 -89 -217zM1172 679h-237q-53 0 -94 32q-38 32 -38 85v137q0 54 35 86q38 32 97 32h237q56 0 94 -32q37 -31 37 -86v-135
q0 -55 -38 -87t-93 -32z" />
    <glyph glyph-name="foursuperior" unicode="&#x2074;" horiz-adv-x="1367" 
d="M1273 782v480h-355l-570 -454v-214h659v-127h266v127h130v188h-130zM633 782l374 298v-298h-374z" />
    <glyph glyph-name="fivesuperior" unicode="&#x2075;" horiz-adv-x="1357" 
d="M673 962v103h630l68 197h-948v-492h637q26 0 44 -18q17 -17 17 -41q0 -23 -17 -40t-44 -17h-596l-62 -187h745q119 0 191 72q71 71 71 166q0 111 -73 184t-189 73h-474z" />
    <glyph glyph-name="sixsuperior" unicode="&#x2076;" horiz-adv-x="1369" 
d="M908 648h-343q-34 0 -53 19q-20 20 -20 47v65h416q30 0 50 -20q19 -19 19 -47q0 -26 -19 -45q-18 -18 -50 -19zM492 950v10q0 57 26 83q27 27 97 27h503l68 192h-657q-135 0 -214 -79t-79 -186v-265q0 -105 80 -185t215 -80h459q114 0 186 74q73 73 73 171t-73 168
q-70 70 -186 70h-498z" />
    <glyph glyph-name="sevensuperior" unicode="&#x2077;" horiz-adv-x="1182" 
d="M808 1064l-478 -597h329l505 657v138h-912l-68 -198h624z" />
    <glyph glyph-name="eightsuperior" unicode="&#x2078;" horiz-adv-x="1305" 
d="M1040 1262h-506q-104 0 -167 -63t-63 -150q0 -91 63 -153q13 -13 32 -27q-23 -11 -47 -35q-64 -61 -64 -149q0 -89 64 -153q65 -65 166 -65h537q101 0 166 65q62 65 62 153q0 84 -62 149q-24 24 -47 36l32 26q62 65 62 153q0 85 -62 150q-64 63 -166 63zM918 954h-265
q-33 0 -53 20t-20 50q0 27 20 47q19 19 53 19h265q33 0 52 -19q18 -17 20 -47q-2 -32 -20 -50q-23 -20 -52 -20zM935 642h-298q-36 0 -59 23q-22 22 -22 53q0 33 22 52q22 22 59 22h298q37 0 59 -22q21 -21 21 -52q0 -32 -21 -53q-23 -23 -59 -23z" />
    <glyph glyph-name="ninesuperior" unicode="&#x2079;" horiz-adv-x="1347" 
d="M725 1081h343q34 0 53 -19q20 -20 20 -47v-65h-416q-30 0 -50 20q-19 19 -19 47q0 26 19 45q18 18 50 19zM1141 779v-10q0 -57 -26 -83q-27 -27 -97 -27h-503l-68 -192h657q135 0 214 79t79 186v265q0 105 -80 185t-215 80h-459q-114 0 -186 -74q-73 -73 -73 -171
t73 -168q70 -70 186 -70h498z" />
    <glyph glyph-name="plussuperior" unicode="&#x207a;" horiz-adv-x="1022" 
d="M779 757h260v208h-260v211h-224v-211h-261v-208h261v-205h224v205z" />
    <glyph glyph-name="uni207B" unicode="&#x207b;" horiz-adv-x="1015" 
d="M294 965v-208h745v208h-745z" />
    <glyph glyph-name="equalsuperior" unicode="&#x207c;" horiz-adv-x="1052" 
d="M294 1125v-208h745v208h-745zM294 805v-208h745v208h-745z" />
    <glyph glyph-name="parenleftsuperior" unicode="&#x207d;" horiz-adv-x="743" 
d="M699 184v216h-24q-57 0 -95 32q-37 31 -37 85v415q0 53 37 87q35 32 95 32h24v211h-118q-136 0 -215 -79q-80 -78 -80 -186v-548q0 -105 80 -185t215 -80h118z" />
    <glyph glyph-name="parenrightsuperior" unicode="&#x207e;" horiz-adv-x="697" 
d="M284 184h118q135 0 215 80t80 185v548q0 108 -80 186q-79 79 -215 79h-118v-211h24q60 0 95 -32q37 -34 37 -87v-415q0 -54 -37 -85q-38 -32 -95 -32h-24v-216z" />
    <glyph glyph-name="zeroinferior" unicode="&#x2080;" horiz-adv-x="1491" 
d="M250 498v-201q0 -138 89 -218q88 -79 239 -79h369q148 -1 239 79q89 80 89 217v203q0 136 -89 216t-236 80h-374q-148 0 -237 -80q-89 -81 -89 -217zM882 212h-237q-53 0 -94 32q-38 32 -38 85v137q0 54 35 86q38 32 97 32h237q56 0 94 -32q37 -31 37 -86v-135
q0 -55 -38 -87t-93 -32z" />
    <glyph glyph-name="oneinferior" unicode="&#x2081;" horiz-adv-x="868" 
d="M270 483l199 61v-544h275v795h-189l-359 -106z" />
    <glyph glyph-name="twoinferior" unicode="&#x2082;" horiz-adv-x="1339" 
d="M736 300h370q116 0 189 73t73 184q0 95 -71 166q-72 72 -191 72h-632l-63 -187h608q27 0 44 -17t17 -40q0 -24 -17 -41q-18 -18 -44 -18h-373q-104 0 -184 -71q-77 -71 -80 -175v-246h936l66 193h-722v36q1 31 22 50q21 21 52 21z" />
    <glyph glyph-name="threeinferior" unicode="&#x2083;" horiz-adv-x="1264" 
d="M330 795l-63 -187h575q30 0 49 -19t19 -45t-19 -45q-17 -17 -49 -19h-294l-52 -153h371q32 0 51 -19t19 -45q0 -27 -19 -46t-51 -20h-544l-67 -197h740q100 0 165 65t65 151q0 88 -63 151q-20 20 -48 35q18 13 32 27q63 63 63 152q0 88 -64 151q-63 63 -166 63h-650z" />
    <glyph glyph-name="fourinferior" unicode="&#x2084;" horiz-adv-x="1367" 
d="M1273 315v480h-355l-570 -454v-214h659v-127h266v127h130v188h-130zM633 315l374 298v-298h-374z" />
    <glyph glyph-name="fiveinferior" unicode="&#x2085;" horiz-adv-x="1357" 
d="M673 495v103h630l68 197h-948v-492h637q26 0 44 -18q17 -17 17 -41q0 -23 -17 -40t-44 -17h-596l-62 -187h745q119 0 191 72q71 71 71 166q0 111 -73 184t-189 73h-474z" />
    <glyph glyph-name="sixinferior" unicode="&#x2086;" horiz-adv-x="1369" 
d="M1112 181h-343q-34 0 -53 19q-20 20 -20 47v65h416q30 0 50 -20q19 -19 19 -47q0 -26 -19 -45q-18 -18 -50 -19zM696 483v10q0 57 26 83q27 27 97 27h503l68 192h-657q-135 0 -214 -79t-79 -186v-265q0 -105 80 -185t215 -80h459q114 0 186 74q73 73 73 171t-73 168
q-70 70 -186 70h-498z" />
    <glyph glyph-name="seveninferior" unicode="&#x2087;" horiz-adv-x="1182" 
d="M808 597l-478 -597h329l505 657v138h-912l-68 -198h624z" />
    <glyph glyph-name="eightinferior" unicode="&#x2088;" horiz-adv-x="1360" 
d="M1156 795h-506q-104 0 -167 -63t-63 -150q0 -92 63 -153q13 -13 32 -27q-23 -10 -47 -35q-64 -61 -64 -149q0 -89 64 -153q65 -65 166 -65h537q101 0 166 65q62 65 62 153q0 84 -62 149q-24 24 -47 36l32 26q62 65 62 153q0 85 -62 150q-64 63 -166 63zM1034 487h-265
q-33 0 -53 20t-20 50q0 27 20 47q19 19 53 19h265q33 0 52 -19q18 -17 20 -47q-2 -32 -20 -50q-23 -20 -52 -20zM1051 175h-298q-36 0 -59 23q-22 22 -22 53q0 33 22 52q22 22 59 22h298q37 0 59 -22q21 -21 21 -52q0 -32 -21 -53q-23 -23 -59 -23z" />
    <glyph glyph-name="nineinferior" unicode="&#x2089;" horiz-adv-x="1347" 
d="M679 614h343q34 0 53 -19q20 -20 20 -47v-65h-416q-30 0 -50 20q-19 19 -19 47q0 26 19 45q18 18 50 19zM1095 312v-10q0 -57 -26 -83q-27 -27 -97 -27h-503l-68 -192h657q135 0 214 79t79 186v265q0 105 -80 185t-215 80h-459q-114 0 -186 -74q-73 -73 -73 -171t73 -168
q70 -70 186 -70h498z" />
    <glyph glyph-name="plus.sinf" unicode="&#x208a;" horiz-adv-x="1474" 
d="M779 290h260v208h-260v211h-224v-211h-261v-208h261v-205h224v205z" />
    <glyph glyph-name="minus.sinf" unicode="&#x208b;" horiz-adv-x="1474" 
d="M294 498v-208h745v208h-745z" />
    <glyph glyph-name="equals.sinf" unicode="&#x208c;" horiz-adv-x="1474" 
d="M294 658v-208h745v208h-745zM294 338v-208h745v208h-745z" />
    <glyph glyph-name="parenleftinferior" unicode="&#x208d;" horiz-adv-x="1474" 
d="M699 -283v216h-24q-57 0 -95 32q-37 31 -37 85v415q0 53 37 87q35 32 95 32h24v211h-118q-136 0 -215 -79q-80 -78 -80 -186v-548q0 -105 80 -185t215 -80h118z" />
    <glyph glyph-name="parenrightinferior" unicode="&#x208e;" horiz-adv-x="1474" 
d="M284 -283h118q135 0 215 80t80 185v548q0 108 -80 186q-79 79 -215 79h-118v-211h24q60 0 95 -32q37 -34 37 -87v-415q0 -54 -37 -85q-38 -32 -95 -32h-24v-216z" />
    <glyph glyph-name="Euro" unicode="&#x20ac;" horiz-adv-x="1773" 
d="M142 684h202v-105h-150l-52 -156h202q0 -170 127 -296q127 -127 341 -127h851l91 269h-864q-92 2 -151 52q-46 40 -56 102h618l52 156h-673v105h621l52 156h-671q9 64 56 108q62 53 152 53h776l88 261h-942q-214 0 -342 -125q-126 -125 -126 -297h-150z" />
    <glyph glyph-name="trademark" unicode="&#x2122;" horiz-adv-x="2604" 
d="M1923 435l253 400v-412h275v839h-271l-363 -578l-362 578h-278v-839h270v412l253 -400h223zM442 423h277v614h346l59 225h-1010l-60 -225h388v-614z" />
    <glyph glyph-name="approxequal" unicode="&#x2248;" horiz-adv-x="1335" 
d="M1336 575h-227q-25 -99 -129 -99q-74 0 -193 62q-115 64 -207 64q-132 0 -218 -78q-84 -77 -120 -256h227q28 97 125 97q82 0 198 -62q122 -62 206 -62q134 0 220 78q81 73 118 256zM1336 995h-227q-25 -99 -129 -99q-74 0 -193 62q-115 64 -207 64q-132 0 -218 -78
q-84 -77 -120 -256h227q28 97 125 97q82 0 198 -62q122 -62 206 -62q134 0 220 78q81 73 118 256z" />
    <glyph glyph-name="lessequal" unicode="&#x2264;" horiz-adv-x="1336" 
d="M240 928v-317l1096 -411v324l-778 247l778 245v324zM1336 -78v260h-1096v-260h1096z" />
    <glyph glyph-name="greaterequal" unicode="&#x2265;" horiz-adv-x="1336" 
d="M240 200l1096 411v317l-1096 412v-324l778 -245l-778 -247v-324zM1336 -78v260h-1096v-260h1096z" />
    <glyph glyph-name="uniE000" unicode="&#xe000;" horiz-adv-x="2719" 
d="M2443 417v-193h-531q-42 0 -74 29q-28 31 -29 67q1 40 29 68q29 29 71 29h534zM1827 633q-148 0 -242 -94q-95 -95 -95 -226q0 -123 95 -218q98 -95 242 -95h455q105 0 180 104l40 -104h257v637q0 181 -81 261q-81 81 -226 81h-1850q-162 0 -281 -110
q-121 -109 -121 -258v-243q0 -146 121 -258q122 -110 284 -110h660l85 252h-672q-70 0 -117 39q-46 40 -46 108v209q0 69 45 108q46 40 118 40h1655q50 0 80 -31q30 -29 30 -68v-106q-67 82 -173 82h-443z" />
    <glyph glyph-name="uniE001" unicode="&#xe001;" horiz-adv-x="2913" 
d="M1262 718l88 261h-748q-162 0 -281 -110q-121 -109 -121 -258v-243q0 -146 121 -258q122 -110 284 -110h1903q162 0 284 110q121 109 121 256v247q0 148 -121 256q-119 110 -281 110h-645v476l-316 -193v-543h884q75 0 118 -40q45 -39 45 -105v-164q0 -68 -46 -107
q-43 -39 -117 -39h-1755q-71 0 -117 39q-46 40 -46 108v159q0 69 45 108q46 40 118 40h583z" />
    <glyph glyph-name="uniE002" unicode="&#xe002;" horiz-adv-x="2247" 
d="M2241 730l84 249h-377v117q0 46 33 78q33 33 90 33h243l83 248h-349q-199 0 -307 -99q-108 -98 -108 -311v-66h-1031q-162 0 -281 -110q-121 -109 -121 -258v-243q0 -146 121 -258q122 -110 284 -110h657l88 263h-671q-71 0 -117 39q-46 40 -46 108v172q0 69 45 108
q46 40 118 40h954v-730h315v730h293z" />
    <glyph glyph-name="uniE003" unicode="&#xe003;" horiz-adv-x="2793" 
d="M1350 979h-748q-162 0 -281 -110q-121 -109 -121 -258v-243q0 -146 121 -258q122 -110 284 -110h1261v722h428q74 0 118 -41q45 -39 45 -105v-576h316v613q0 148 -120 256q-119 110 -282 110h-305q-120 0 -223 -123q23 35 23 112v487l-316 -193v-999h-871q-71 0 -117 39
q-46 40 -46 108v160q0 69 45 108q46 40 118 40h583z" />
    <glyph glyph-name="uniE004" unicode="&#xe004;" horiz-adv-x="1907" 
d="M1867 1356h-317v-241h317v241zM1550 718v-718h317v979h-1265q-162 0 -281 -110q-121 -109 -121 -258v-243q0 -146 121 -258q122 -110 284 -110h657l88 263h-671q-71 0 -117 39q-46 40 -46 108v160q0 69 45 108q46 40 118 40h871z" />
    <glyph glyph-name="uniE005" unicode="&#xe005;" horiz-adv-x="1936" 
d="M1896 1356h-316v-241h316v241zM1350 263h-671q-71 0 -117 39q-46 40 -46 108v160q0 69 45 108q46 40 118 40h901v-759q0 -46 -33 -79q-32 -32 -90 -32h-113l-83 -248h215q202 0 312 98q108 100 108 312v969h-1294q-162 0 -281 -110q-121 -109 -121 -258v-243
q0 -146 121 -258q122 -110 284 -110h657z" />
    <glyph glyph-name="uniE006" unicode="&#xe006;" horiz-adv-x="2355" 
d="M1550 718v-718h316v717h500l89 262h-389q-133 0 -223 -123l-48 123h-1193q-162 0 -281 -110q-121 -109 -121 -258v-243q0 -146 121 -258q122 -110 284 -110h657l88 263h-671q-71 0 -117 39q-46 40 -46 108v160q0 69 45 108q46 40 118 40h871z" />
    <glyph glyph-name="uniE007" unicode="&#xe007;" horiz-adv-x="2603" 
d="M1326 979h-724q-162 0 -281 -110q-121 -109 -121 -258v-243q0 -146 121 -258q122 -110 284 -110h1706q141 0 233 92q89 89 89 215q0 127 -89 216t-233 89h-468q-33 0 -55 22q-21 23 -21 50q0 30 21 51t51 21h648l76 223h-785q-143 0 -232 -89q-90 -90 -90 -213
q0 -121 90 -211t232 -90h489q31 0 52 -22q22 -19 22 -52q0 -28 -22 -50t-56 -22h-1587q-70 0 -117 39q-46 40 -46 108v216q0 69 45 108q46 40 118 40h571z" />
    <glyph glyph-name="uniE008" unicode="&#xe008;" horiz-adv-x="2289" 
d="M1957 1326l-316 -189v-158h-1039q-162 0 -281 -110q-121 -109 -121 -258v-243q0 -146 121 -258q122 -110 284 -110h657l88 263h-671q-71 0 -117 39q-46 40 -46 108v160q0 69 45 108q46 40 118 40h962v-409q0 -147 81 -228q82 -81 250 -81h337l80 234h-315q-67 0 -93 29
q-24 30 -24 84v371h296l88 261h-384v347z" />
    <glyph glyph-name="uniE009" unicode="&#xe009;" horiz-adv-x="2697" 
d="M1542 718l334 -718h107l-237 -448h355l696 1427h-365l-338 -748l-304 748h-1188q-162 0 -281 -110q-121 -109 -121 -258v-243q0 -146 121 -258q122 -110 284 -110h657l88 263h-671q-71 0 -117 39q-46 40 -46 108v160q0 69 45 108q46 40 118 40h863z" />
    <glyph glyph-name="uniE00A" unicode="&#xe00a;" horiz-adv-x="3117" 
d="M1228 599h-717v15q0 66 44 105q44 41 118 41h392q74 0 118 -41q45 -39 45 -108v-12zM1754 719h884q75 0 118 -40q45 -39 45 -105v-175q0 -68 -46 -107q-43 -39 -117 -39h-1965q-70 2 -117 40q-45 39 -45 104v16h1023v198q0 149 -121 258q-116 110 -281 110h-530
q-162 0 -281 -110q-121 -109 -121 -258v-243q0 -146 121 -258q122 -110 284 -110h2107q162 0 284 110q121 109 121 256v247q0 148 -121 256q-119 110 -281 110h-645v476l-316 -193v-543z" />
    <glyph glyph-name="uniE00B" unicode="&#xe00b;" horiz-adv-x="2830" 
d="M1184 599h-673v15q0 66 44 105q44 41 118 41h348q74 0 118 -41q45 -39 45 -108v-12zM1490 413v198q0 149 -121 258q-116 110 -281 110h-486q-162 0 -281 -110q-121 -109 -121 -258v-243q0 -146 121 -258q122 -110 284 -110h1933q141 0 233 92q89 89 89 215q0 127 -89 216
t-233 89h-501q-33 0 -55 22q-21 23 -21 50q0 30 21 51t51 21h681l76 223h-818q-141 0 -232 -91q-90 -90 -90 -213t90 -213t232 -90h522q31 0 52 -22q22 -19 22 -52q0 -28 -22 -50t-56 -22h-1817q-70 2 -117 40q-45 39 -45 104v43h979z" />
    <glyph glyph-name="uniE00C" unicode="&#xe00c;" horiz-adv-x="2897" 
d="M1228 599h-717v15q0 66 44 105q44 41 118 41h392q74 0 118 -41q45 -39 45 -108v-12zM1730 244l-1057 -1q-70 2 -117 40q-45 39 -45 104v26h1023v198q0 149 -121 258q-116 110 -281 110h-530q-162 0 -281 -110q-121 -109 -121 -258v-243q0 -146 121 -258
q122 -110 284 -110h1308l341 352l339 -352h404l-506 509l452 470h-404l-285 -312l-287 312h-403l450 -470z" />
    <glyph glyph-name="uniE00D" unicode="&#xe00d;" horiz-adv-x="2540" 
d="M1413 264v455h568q75 0 118 -40q45 -39 45 -105v-164q0 -68 -46 -107q-44 -39 -117 -39h-568zM681 1333h416v-1333h245l48 122q92 -122 225 -122h440q162 0 284 110q121 109 121 256v247q0 148 -121 256q-119 110 -281 110h-445q-119 0 -223 -123q23 35 23 112v613h-755
q-199 0 -307 -99q-108 -98 -108 -311v-192h-127l-76 -224h203v-755h315v755h303l74 224h-377v243q0 46 33 78q33 33 90 33z" />
    <glyph glyph-name="uniE00E" unicode="&#xe00e;" horiz-adv-x="3456" 
d="M2329 264v455h568q75 0 118 -40q45 -39 45 -105v-164q0 -68 -46 -107q-44 -39 -117 -39h-568zM1474 979v243q0 46 33 78q33 33 90 33h416v-1333h245l48 122q92 -122 225 -122h440q162 0 284 110q121 109 121 256v247q0 148 -121 256q-119 110 -281 110h-445
q-119 0 -223 -123q23 35 23 112v613h-755q-199 0 -307 -99q-108 -98 -108 -311v-192h-601v117q0 46 33 78q33 33 90 33h243l83 248h-349q-199 0 -307 -99q-108 -98 -108 -311v-66h-127l-76 -224h203v-755h315v755h601v-755h315v755h302l74 224h-376z" />
    <glyph glyph-name="uniE00F" unicode="&#xe00f;" horiz-adv-x="2430" 
d="M558 755h303l74 224h-377v243q0 46 33 78q33 33 90 33h416v-1333h316v722h428q74 0 118 -41q45 -39 45 -105v-576h316v613q0 148 -120 256q-119 110 -282 110h-305q-119 0 -223 -123q23 35 23 112v613h-755q-199 0 -307 -99q-108 -98 -108 -311v-192h-127l-76 -224h203
v-755h315v755z" />
    <glyph glyph-name="uniE010" unicode="&#xe010;" horiz-adv-x="3346" 
d="M2329 1581h-755q-199 0 -307 -99q-108 -98 -108 -311v-192h-601v117q0 46 33 78q33 33 90 33h243l83 248h-349q-199 0 -307 -99q-108 -98 -108 -311v-66h-127l-76 -224h203v-755h315v755h601v-755h315v755h302l74 224h-376v243q0 46 33 78q33 33 90 33h416v-1333h316v722
h428q74 0 118 -41q45 -39 45 -105v-576h316v613q0 148 -120 256q-119 110 -282 110h-305q-119 0 -223 -123q23 35 23 112v613z" />
    <glyph glyph-name="uniE011" unicode="&#xe011;" horiz-adv-x="1612" 
d="M924 1207l83 248h-349q-199 0 -307 -99q-108 -98 -108 -311v-66h-127l-76 -224h203v-755h315v755h618v-796q0 -46 -33 -79q-32 -32 -90 -32h-113l-83 -248h215q202 0 312 98q108 100 108 312v969h-934v117q0 46 33 78q33 33 90 33h243z" />
    <glyph glyph-name="uniE012" unicode="&#xe012;" horiz-adv-x="2274" 
d="M558 1222q0 46 33 78q33 33 90 33h416v-1333h319v472l461 -472h417l-536 519l482 460h-414l-410 -420v1022v0h-758q-199 0 -307 -99q-108 -98 -108 -311v-192h-127l-76 -224h203v-755h315v755h303l74 224h-377v243z" />
    <glyph glyph-name="uniE013" unicode="&#xe013;" horiz-adv-x="3190" 
d="M924 1207l83 248h-349q-199 0 -307 -99q-108 -98 -108 -311v-66h-127l-76 -224h203v-755h315v755h601v-755h315v755h302l74 224h-376v243q0 46 33 78q33 33 90 33h416v-1333h319v472l461 -472h417l-536 519l482 460h-414l-410 -420v1022v0h-758q-199 0 -307 -99
q-108 -98 -108 -311v-192h-601v117q0 46 33 78q33 33 90 33h243z" />
    <glyph glyph-name="uniE014" unicode="&#xe014;" horiz-adv-x="1982" 
d="M1097 755v-755h316v717h500l89 262h-389q-133 0 -223 -123l-48 123h-784v117q0 46 33 78q33 33 90 33h243l83 248h-349q-199 0 -307 -99q-108 -98 -108 -311v-66h-127l-76 -224h203v-755h315v755h539z" />
    <glyph glyph-name="uniE015" unicode="&#xe015;" horiz-adv-x="2898" 
d="M2013 755v-755h316v717h500l89 262h-389q-133 0 -223 -123l-48 123h-784v243q0 46 33 78q33 33 90 33h243l83 248h-349q-199 0 -307 -99q-108 -98 -108 -311v-192h-601v117q0 46 33 78q33 33 90 33h243l83 248h-349q-199 0 -307 -99q-108 -98 -108 -311v-66h-127
l-76 -224h203v-755h315v755h601v-755h315v755h539z" />
    <glyph glyph-name="uniE016" unicode="&#xe016;" horiz-adv-x="1906" 
d="M1494 1326l-316 -189v-158h-620v117q0 46 33 78q33 33 90 33h243l83 248h-349q-199 0 -307 -99q-108 -98 -108 -311v-66h-127l-76 -224h203v-755h315v755h620v-446q0 -147 81 -228q83 -81 250 -81h337l80 234h-315q-67 0 -93 29q-24 30 -24 84v408h308l76 224h-384v347z
" />
    <glyph glyph-name="uniE017" unicode="&#xe017;" horiz-adv-x="2802" 
d="M2370 1326l-316 -189v-158h-620v243q0 46 33 78q33 33 90 33h243l83 248h-349q-199 0 -307 -99q-108 -98 -108 -311v-191l-601 -1v117q0 46 33 78q33 33 90 33h243l83 248h-349q-199 0 -307 -99q-108 -98 -108 -311v-66h-127l-76 -224h203v-755h315v755h601v-755h315v755
h620v-446q0 -147 81 -228q83 -81 250 -81h337l80 234h-315q-67 0 -93 29q-24 30 -24 84v408h308l76 224h-384v347z" />
    <glyph glyph-name="uniE018" unicode="&#xe018;" horiz-adv-x="3244" 
d="M1494 1326l-316 -189v-158h-620v117q0 46 33 78q33 33 90 33h243l83 248h-349q-199 0 -307 -99q-108 -98 -108 -311v-66h-127l-76 -224h203v-755h315v755h620v-446q0 -147 81 -228q83 -81 250 -81h337l80 234h-315q-67 0 -93 29q-24 30 -24 84v408h498l351 -755h107
l-237 -448h355l696 1427h-365l-338 -748l-304 748h-763v347z" />
    <glyph glyph-name="uniE019" unicode="&#xe019;" horiz-adv-x="2768" 
d="M270 387q-48 -16 -75 -43q-52 -52 -52 -126q1 -75 53 -127q25 -25 55 -37q-14 0 -56 -15q-61 -23 -92 -57q-73 -79 -73 -176q0 -105 75 -180q76 -75 193 -76h692q158 0 260 102q101 101 101 242t-96 237q-99 99 -265 99h-520q-29 0 -44 15q-18 18 -18 40q0 23 18 41
q15 15 44 15h490q151 0 245 94t94 228q0 112 -84 196q-27 27 -42 35h210l76 223h-309q-106 0 -161 -138h-550q-135 0 -230 -92q-94 -91 -94 -227q0 -86 42 -158q44 -69 113 -115zM907 -240h-454q-49 1 -79 30q-27 30 -29 75q2 43 29 70q31 31 79 31h454q51 0 79 -31
q31 -28 31 -70q0 -44 -31 -75q-27 -29 -79 -30zM875 562h-336q-46 2 -78 31q-26 29 -28 72q2 43 28 69q31 31 78 31h336q47 0 75 -31q31 -28 31 -69t-31 -72q-30 -30 -75 -31zM1654 387q-48 -16 -75 -43q-52 -52 -52 -126q1 -75 53 -127q25 -25 55 -37q-14 0 -56 -15
q-61 -23 -92 -57q-73 -79 -73 -176q0 -105 75 -180q76 -75 193 -76h716q158 0 260 102q101 101 101 242t-96 237q-99 99 -265 99h-544q-29 0 -44 15q-18 18 -18 40q0 23 18 41q15 15 44 15h490q151 0 245 94t94 228q0 112 -84 196q-27 27 -42 35h210l76 223h-309
q-106 0 -161 -138h-550q-135 0 -230 -92q-94 -91 -94 -227q0 -86 42 -158q44 -69 113 -115zM2315 -240h-478q-49 1 -79 30q-27 30 -29 75q2 43 29 70q31 31 79 31h478q51 0 79 -31q31 -28 31 -70q0 -44 -31 -75q-27 -29 -79 -30zM2259 562h-336q-46 2 -78 31q-26 29 -28 72
q2 43 28 69q31 31 78 31h336q47 0 75 -31q31 -28 31 -69t-31 -72q-30 -30 -75 -31z" />
    <glyph glyph-name="uniE01A" unicode="&#xe01a;" horiz-adv-x="2609" 
d="M1411 979h-402l-410 -420v896l-319 -193v-1262h319v472l461 -472h1297q141 0 233 92q89 89 89 215q0 127 -89 216t-233 89h-468q-33 0 -55 22q-21 23 -21 50q0 30 21 51t51 21h648l76 223h-785q-141 0 -232 -91q-90 -90 -90 -213t90 -213t232 -90h489q31 0 52 -22
q22 -19 22 -52q0 -28 -22 -50t-56 -22h-1065l-312 302z" />
    <glyph glyph-name="uniE01B" unicode="&#xe01b;" horiz-adv-x="2218" 
d="M1926 1326l-316 -189v-158h-522l-489 -420v896l-319 -193v-1262h319v472l461 -472h417l-548 531l287 224h394v-446q0 -147 81 -228q83 -81 250 -81h337l80 234h-315q-67 0 -93 29q-24 30 -24 84v408h308l76 224h-384v347z" />
    <glyph glyph-name="uniE01C" unicode="&#xe01c;" horiz-adv-x="3242" 
d="M1477 0l-554 537l440 336l368 -873h397l233 614l224 -614h398l399 979h-356l-253 -722l-258 701h-326l-242 -701l-270 722h-554l-524 -420v896l-319 -193v-1262h319v472l461 -472h417z" />
    <glyph glyph-name="uniE01D" unicode="&#xe01d;" horiz-adv-x="2550" 
d="M1363 873l406 -873h107l-237 -448h355l696 1427h-365l-338 -748l-304 748h-560l-524 -420v896l-319 -193v-1262h319v472l461 -472h417l-554 537z" />
    <glyph glyph-name="uniE01E" unicode="&#xe01e;" horiz-adv-x="3076" 
d="M2129 979h-1527q-162 0 -281 -110q-121 -109 -121 -258v-243q0 -146 121 -258q122 -110 284 -110h642v-449l316 189v526h-884q-71 0 -118 41q-45 41 -45 108v160q0 67 46 107t117 40h1134v-354q0 -146 121 -258q122 -110 284 -110h300q136 0 226 123l46 -123h246v979
h-316v-717h-428q-72 0 -118 40q-45 40 -45 108v569z" />
    <glyph glyph-name="uniE01F" unicode="&#xe01f;" horiz-adv-x="2796" 
d="M2440 417v-193h-531q-42 0 -74 29q-28 31 -29 67q2 40 29 68q29 29 71 29h534zM1337 307q0 127 -89 216t-233 89h-468q-33 0 -55 22q-21 22 -21 50q0 30 21 51t51 21h1787q50 0 80 -31q30 -29 30 -68v-106q-67 82 -173 82h-443q-148 0 -242 -94q-95 -95 -95 -226
q0 -123 95 -218q98 -95 242 -95h455q105 0 180 104l40 -104h257v637q0 181 -81 261q-81 81 -226 81h-1967q-141 0 -232 -91q-90 -90 -90 -213t90 -213t232 -90h489q31 0 52 -22q22 -19 22 -52q0 -28 -22 -50t-56 -22h-723l-76 -226h847q141 0 233 92q89 89 89 215z" />
    <glyph glyph-name="uniE020" unicode="&#xe020;" horiz-adv-x="2234" 
d="M2281 1207l83 248h-349q-199 0 -307 -99q-108 -98 -108 -311v-66h-1118q-141 0 -232 -91q-90 -90 -90 -213t90 -213t232 -90h489q31 0 52 -22q22 -19 22 -52q0 -28 -22 -50t-56 -22h-723l-76 -226h847q141 0 233 92q89 89 89 215q0 127 -89 216t-233 89h-468
q-33 0 -55 22q-21 22 -21 50q0 30 21 51t51 21h1057v-756h315v756h303l74 223h-377v117q0 46 33 78q33 33 90 33h243z" />
    <glyph glyph-name="uniE021" unicode="&#xe021;" horiz-adv-x="1934" 
d="M1874 1356h-317v-241h317v241zM1557 756v-756h317v979h-1392q-141 0 -232 -91q-90 -90 -90 -213t90 -213t232 -90h489q31 0 52 -22q22 -19 22 -52q0 -28 -22 -50t-56 -22h-723l-76 -226h847q141 0 233 92q89 89 89 215q0 127 -89 216t-233 89h-468q-33 0 -55 22
q-21 22 -21 50q0 30 21 51t51 21h1014z" />
    <glyph glyph-name="uniE022" unicode="&#xe022;" horiz-adv-x="2012" 
d="M1952 1356h-316v-241h316v241zM1952 10v969h-1470q-141 0 -232 -91q-90 -90 -90 -213t90 -213t232 -90h489q31 0 52 -22q22 -19 22 -52q0 -28 -22 -50t-56 -22h-723l-76 -226h847q141 0 233 92q89 89 89 215q0 127 -89 216t-233 89h-468q-33 0 -55 22q-21 22 -21 50
q0 30 21 51t51 21h1093v-797q0 -46 -33 -79q-32 -32 -90 -32h-113l-83 -248h215q202 0 312 98q108 100 108 312z" />
    <glyph glyph-name="uniE023" unicode="&#xe023;" horiz-adv-x="2930" 
d="M1547 260v-709l316 189v260h642q162 0 284 110q121 112 121 258v243q0 149 -121 258q-119 110 -281 110h-2026q-141 0 -232 -91q-90 -90 -90 -213t90 -213t232 -90h489q31 0 52 -22q22 -19 22 -52q0 -28 -22 -50t-56 -22h-723l-76 -226h847q143 0 233 90q89 89 89 215
q0 125 -89 214t-233 89h-468q-33 0 -55 22q-21 22 -21 50q0 30 21 51t51 21h1894q71 0 117 -40t46 -107v-196q0 -67 -45 -108q-47 -41 -118 -41h-890z" />
    <glyph glyph-name="uniE024" unicode="&#xe024;" horiz-adv-x="3312" 
d="M2525 958h-326l-242 -701l-270 722h-1205q-141 0 -232 -91q-90 -90 -90 -213t90 -213t232 -90h489q31 0 52 -22q22 -19 22 -52q0 -28 -22 -50t-56 -22h-723l-76 -226h847q141 0 233 92q89 89 89 215q0 127 -89 216t-233 89h-468q-33 0 -55 22q-21 22 -21 50q0 30 21 51
t51 21h890l308 -756h397l233 614l224 -614h398l399 979h-356l-253 -722z" />
    <glyph glyph-name="uniE025" unicode="&#xe025;" horiz-adv-x="2639" 
d="M1447 756l351 -756h107l-237 -448h355l696 1427h-365l-338 -748l-304 748h-1230q-141 0 -232 -91q-90 -90 -90 -213t90 -213t232 -90h489q31 0 52 -22q22 -19 22 -52q0 -28 -22 -50t-56 -22h-723l-76 -226h847q141 0 233 92q89 89 89 215q0 127 -89 216t-233 89h-468
q-33 0 -55 22q-21 22 -21 50q0 30 21 51t51 21h904z" />
    <glyph glyph-name="uniE026" unicode="&#xe026;" horiz-adv-x="3255" 
d="M3189 756l74 223h-377v117q0 46 33 78q33 33 90 33h243l83 248h-349q-199 0 -307 -99q-108 -98 -108 -311v-66h-667v347l-316 -189v-158h-1106q-141 0 -232 -91q-90 -90 -90 -213t90 -213t232 -90h489q31 0 52 -22q22 -19 22 -52q0 -28 -22 -50t-56 -22h-723l-76 -226
h847q141 0 233 92q89 89 89 215q0 127 -89 216t-233 89h-468q-33 0 -55 22q-21 22 -21 50q0 30 21 51t51 21h1045v-447q0 -147 81 -228q83 -81 250 -81h334l80 234h-312q-67 0 -93 29q-24 30 -24 84v409h667v-756h315v756h303z" />
    <glyph glyph-name="uniE027" unicode="&#xe027;" horiz-adv-x="2949" 
d="M1904 756h620v-756h315v979h-935v347l-316 -189v-158h-1106q-141 0 -232 -91q-90 -90 -90 -213t90 -213t232 -90h489q31 0 52 -22q22 -19 22 -52q0 -28 -22 -50t-56 -22h-723l-76 -226h847q141 0 233 92q89 89 89 215q0 127 -89 216t-233 89h-468q-33 0 -55 22
q-21 22 -21 50q0 30 21 51t51 21h1045v-447q0 -147 81 -228q83 -81 250 -81h334l80 234h-312q-67 0 -93 29q-24 30 -24 84v409zM2839 1356h-317v-241h317v241z" />
    <glyph glyph-name="uniE028" unicode="&#xe028;" horiz-adv-x="3697" 
d="M3412 979l-338 -748l-304 748h-866v347l-316 -189v-158h-1106q-141 0 -232 -91q-90 -90 -90 -213t90 -213t232 -90h489q31 0 52 -22q22 -19 22 -52q0 -28 -22 -50t-56 -22h-723l-76 -226h847q141 0 233 92q89 89 89 215q0 127 -89 216t-233 89h-468q-33 0 -55 22
q-21 22 -21 50q0 30 21 51t51 21h1045v-447q0 -147 81 -228q83 -81 250 -81h401l80 234h-379q-67 0 -93 29q-24 30 -24 84v409h602l350 -756h107l-237 -448h355l696 1427h-365z" />
    <glyph glyph-name="uniE029" unicode="&#xe029;" horiz-adv-x="3795" 
d="M3439 417v-193h-531q-42 0 -74 29q-28 31 -29 67q1 41 29 68q29 29 71 29h534zM3755 637q0 181 -81 261q-81 81 -226 81h-1544v347l-316 -189v-158h-1106q-141 0 -232 -91q-90 -90 -90 -213t90 -213t232 -90h489q31 0 52 -22q22 -19 22 -52q0 -28 -22 -50t-56 -22h-723
l-76 -226h847q141 0 233 92q89 89 89 215q0 127 -89 216t-233 89h-468q-33 0 -55 22q-21 22 -21 50q0 30 21 51t51 21h1045v-447q0 -147 81 -228q83 -81 250 -81h407l80 234h-385q-67 0 -93 29q-24 30 -24 84v409h1425q50 0 80 -31q30 -29 30 -68v-106q-67 82 -173 82h-443
q-148 0 -242 -94q-95 -95 -95 -226q0 -123 95 -218q98 -95 242 -95h455q105 0 180 104l40 -104h257v637z" />
    <glyph glyph-name="uniE02A" unicode="&#xe02a;" horiz-adv-x="2508" 
d="M2092 417v-193h-531q-42 0 -74 29q-28 31 -29 67q2 40 29 68q29 29 71 29h534zM115 979l-75 -223h201v-447q0 -147 81 -228q82 -81 250 -81h407l80 234h-385q-67 0 -93 29q-24 30 -24 84v409h1425q50 0 80 -31q30 -29 30 -68v-106q-67 82 -173 82h-443q-148 0 -242 -94
q-95 -95 -95 -226q0 -123 95 -218q98 -95 242 -95h455q105 0 180 104l40 -104h257v637q0 181 -81 261q-81 81 -226 81h-1544v347l-316 -189v-158h-126z" />
    <glyph glyph-name="uniE02B" unicode="&#xe02b;" horiz-adv-x="1943" 
d="M1839 755l76 224h-384v347l-316 -189v-158h-658v347l-316 -189v-158h-125l-76 -224h201v-446q0 -147 81 -228q82 -81 250 -81h392l80 234h-370q-67 0 -93 29q-24 30 -24 84v408h658v-446q0 -147 81 -228q82 -81 250 -81h337l80 234h-315q-67 0 -93 29q-24 30 -24 84v408
h308z" />
    <glyph glyph-name="uniE02C" unicode="&#xe02c;" horiz-adv-x="1918" 
d="M1224 0h315v755h303l74 224h-377v117q0 46 33 78q33 33 90 33h243l83 248h-349q-199 0 -307 -99q-108 -98 -108 -311v-66h-667v347l-316 -189v-158h-125l-76 -224h201v-446q0 -147 81 -228q82 -81 250 -81h337l80 234h-315q-67 0 -93 29q-24 30 -24 84v408h667v-755z" />
    <glyph glyph-name="uniE02D" unicode="&#xe02d;" horiz-adv-x="1614" 
d="M1494 1356h-317v-241h317v241zM1494 979h-937v347l-316 -189v-158h-125l-76 -224h201v-446q0 -147 81 -228q82 -81 250 -81h337l80 234h-315q-67 0 -93 29q-24 30 -24 84v408h620v-755h317v979z" />
    <glyph glyph-name="uniE02E" unicode="&#xe02e;" horiz-adv-x="3019" 
d="M989 234h-315q-67 0 -93 29q-24 30 -24 84v408h524l307 -755h397l233 614l224 -614h398l399 979h-356l-253 -722l-258 701h-326l-242 -701l-270 722h-777v347l-316 -189v-158h-125l-76 -224h201v-446q0 -147 81 -228q82 -81 250 -81h337z" />
    <glyph glyph-name="uniE02F" unicode="&#xe02f;" horiz-adv-x="2346" 
d="M1552 0l-237 -448h355l696 1427h-365l-338 -748l-304 748h-802v347l-316 -189v-158h-125l-76 -224h201v-446q0 -147 81 -228q82 -81 250 -81h337l80 234h-315q-67 0 -93 29q-24 30 -24 84v408h537l351 -755h107z" />
    <glyph glyph-name="uniE030" unicode="&#xe030;" horiz-adv-x="2236" 
d="M1069 185v-185h1032l75 225h-651l595 571v183h-1563v347l-316 -189v-158h-125l-76 -224h201v-446q0 -147 81 -228q82 -81 250 -81h337l80 234h-315q-67 0 -93 29q-24 30 -24 84v408h1110z" />
    <glyph glyph-name="uniE031" unicode="&#xe031;" horiz-adv-x="2014" 
d="M1129 0h316v717h500l89 262h-389q-133 0 -223 -123l-48 123h-817v347l-316 -189v-158h-125l-76 -224h201v-446q0 -147 81 -228q82 -81 250 -81h337l80 234h-315q-67 0 -93 29q-24 30 -24 84v408h572v-755z" />
    <glyph glyph-name="uniE032" unicode="&#xe032;" horiz-adv-x="3081" 
d="M2348 979h-817v0v347l-316 -189v-158h-658v347l-316 -189v-158h-125l-76 -224h201v-446q0 -147 81 -228q82 -81 250 -81h392l80 234h-370q-67 0 -93 29q-24 30 -24 84v408h658v-446q0 -147 81 -228q82 -81 250 -81h337l80 234h-315q-67 0 -93 29q-24 30 -24 84v408h572
v-755h316v717h500l89 262h-389q-133 0 -223 -123z" />
    <glyph glyph-name="uniE033" unicode="&#xe033;" horiz-adv-x="2892" 
d="M2198 755v-755h315v755h303l74 224h-377v117q0 46 33 78q33 33 90 33h243l83 248h-349q-199 0 -307 -99q-108 -98 -108 -311v-66h-667v347l-316 -189v-158h-658v347l-316 -189v-158h-125l-76 -224h201v-446q0 -147 81 -228q82 -81 250 -81h392l80 234h-370q-67 0 -93 29
q-24 30 -24 84v408h658v-446q0 -147 81 -228q82 -81 250 -81h337l80 234h-315q-67 0 -93 29q-24 30 -24 84v408h667z" />
    <glyph glyph-name="uniE034" unicode="&#xe034;" horiz-adv-x="3321" 
d="M3341 979h-365l-338 -748l-304 748h-802v347l-316 -189v-158h-659v347l-316 -189v-158h-125l-76 -224h201v-446q0 -147 81 -228q82 -81 250 -81h392l80 234h-370q-67 0 -93 29q-24 30 -24 84v408h659v-446q0 -147 81 -228q83 -81 250 -81h337l80 234h-315q-67 0 -93 29
q-24 30 -24 84v408h537l351 -755h107l-237 -448h355z" />
    <glyph glyph-name="uniE035" unicode="&#xe035;" horiz-adv-x="2334" 
d="M2238 755l74 224h-377v117q0 46 33 78q33 33 90 33h243l83 248h-349q-199 0 -307 -99q-108 -98 -108 -311v-66h-681l-240 -312l-242 312h-403l405 -470l-459 -509h403l296 352l294 -352h404l-461 509l213 246h471v-755h315v755h303z" />
    <glyph glyph-name="uniE036" unicode="&#xe036;" horiz-adv-x="2366" 
d="M1618 309q0 -147 81 -228q83 -81 250 -81h337l80 234h-315q-67 0 -93 29q-24 30 -24 84v408h308l76 224h-384v347l-316 -189v-158h-679l-240 -312l-242 312h-403l405 -470l-459 -509h403l296 352l294 -352h404l-461 509l213 246h469v-446z" />
    <glyph glyph-name="uniE037" unicode="&#xe037;" horiz-adv-x="3572" 
d="M1246 419h-609l304 515zM2926 419h-609l304 515zM1786 178l-649 1084h-382l-755 -1262h390l108 186h886l109 -186h577l108 186h886l109 -186h399l-755 1262h-382z" />
    <glyph glyph-name="uniE038" unicode="&#xe038;" horiz-adv-x="3553" 
d="M2217 800h-345v-800h1211q215 0 342 127q126 126 126 290v428q0 169 -126 292q-125 125 -342 125h-2487q-214 0 -342 -125q-126 -125 -126 -295v-422q0 -166 127 -293q130 -127 341 -127h949l93 285h-954q-92 2 -151 52q-59 51 -59 137v320q0 86 58 138q62 53 152 53
h2311q93 0 152 -53q59 -50 59 -138v-320q0 -86 -60 -137q-56 -50 -151 -52h-778v515z" />
    <glyph glyph-name="uniE039" unicode="&#xe039;" horiz-adv-x="3282" 
d="M3177 764h-1358v-257h1272zM1545 0l93 285h-954q-92 2 -151 52q-59 51 -59 137v320q0 86 58 138q62 53 152 53h2480l93 277h-2661q-214 0 -342 -125q-126 -125 -126 -295v-422q0 -166 127 -293q130 -127 341 -127h949zM1819 285v-285h1344l94 285h-1438z" />
    <glyph glyph-name="uniE03A" unicode="&#xe03a;" horiz-adv-x="3324" 
d="M1814 676v-676h345v394h746q203 0 333 130q128 131 128 308q0 175 -128 303q-127 127 -333 127h-2309q-214 0 -342 -125q-126 -125 -126 -295v-422q0 -166 127 -293q130 -127 341 -127h949l93 285h-954q-92 2 -151 52q-59 51 -59 137v318q0 86 58 138q62 53 152 53h2182
q72 0 115 -45q45 -45 45 -107q0 -63 -45 -109q-46 -46 -118 -46h-1049z" />
    <glyph glyph-name="uniE03B" unicode="&#xe03b;" horiz-adv-x="3390" 
d="M1796 0h343v438h656q94 0 152 -52q58 -50 59 -138v-248h345v233q0 169 -126 292l-27 25q12 10 36 34q117 118 117 283q0 161 -117 278t-306 117h-2332q-214 0 -342 -125q-126 -125 -126 -295v-422q0 -166 127 -293q130 -127 341 -127h949l93 285h-954q-92 2 -151 52
q-59 51 -59 137v318q0 86 58 138q62 53 152 53h2175q65 0 106 -41t41 -99q0 -59 -41 -100q-42 -42 -109 -42h-1060v-701z" />
    <glyph glyph-name="uniE03C" unicode="&#xe03c;" horiz-adv-x="3319" 
d="M1638 1262h-1042q-214 0 -342 -125q-126 -125 -126 -295v-422q0 -166 127 -293q130 -127 341 -127h2299q185 0 304 120q117 119 117 284q0 158 -117 277q-114 115 -304 115h-694q-42 0 -74 29q-28 31 -29 66q1 42 29 70q29 29 69 29h937l95 272h-1069q-189 0 -296 -107
q-114 -113 -114 -269q0 -158 114 -273t296 -115h728q45 0 77 -33q32 -32 32 -77t-33 -78t-81 -33h-2198q-92 2 -151 52q-59 51 -59 137v328q0 86 58 138q62 53 152 53h861z" />
    <glyph glyph-name="uniE03D" unicode="&#xe03d;" horiz-adv-x="3221" 
d="M3046 985l92 277h-2542q-214 0 -342 -125q-126 -125 -126 -295v-422q0 -166 127 -293q130 -127 341 -127h949l93 285h-954q-92 2 -151 52q-59 51 -59 137v320q0 86 58 138q62 53 152 53h1461v-985h345v985h556z" />
    <glyph glyph-name="uniE03E" unicode="&#xe03e;" horiz-adv-x="3382" 
d="M3264 281h-932l863 756v225h-2599q-214 0 -342 -125q-126 -125 -126 -295v-422q0 -166 127 -293q130 -127 341 -127h949l93 285h-954q-92 2 -151 52q-59 51 -59 137v320q0 86 58 138q62 53 152 53h1979l-864 -756v-229h1370z" />
    <glyph glyph-name="uniE03F" unicode="&#xe03f;" horiz-adv-x="3479" 
d="M2209 271v247h789q56 0 92 -36q37 -36 37 -86q0 -51 -37 -88q-35 -35 -95 -37h-786zM1865 0h1243q166 2 268 104q103 106 103 248q0 141 -103 243q-42 45 -100 68q15 20 25 24q99 99 99 238q0 138 -100 237q-100 100 -259 100h-2807v-1262h1344l94 281h-1094v230h928
l86 257h-1014v221h2337q56 0 90 -37q36 -34 36 -84t-36 -87q-37 -37 -93 -37h-1047v-744z" />
    <glyph glyph-name="uniE040" unicode="&#xe040;" horiz-adv-x="3540" 
d="M1896 0h1211q215 0 342 127q126 126 126 290v428q0 169 -126 292q-125 125 -342 125h-2873v-1262h1344l94 281h-1094v227h928l86 257h-1014v218h2441q93 0 152 -53q59 -50 59 -138v-318q0 -86 -60 -137q-56 -50 -151 -52h-778v513h-345v-798z" />
    <glyph glyph-name="uniE041" unicode="&#xe041;" horiz-adv-x="3429" 
d="M1900 0h345v394h746q203 0 333 130q128 131 128 308q0 175 -128 303q-127 127 -333 127h-2757v-1262h1344l94 281h-1094v226h928l86 257h-1014v217h2374q72 0 115 -45q45 -45 45 -107q0 -63 -45 -109q-46 -46 -118 -46h-1049v-674z" />
    <glyph glyph-name="uniE042" unicode="&#xe042;" horiz-adv-x="3446" 
d="M2239 0v438h656q94 0 152 -52q58 -50 59 -138v-248h345v233q0 169 -126 292l-27 25q12 10 36 34q117 118 117 283q0 161 -117 278t-306 117h-2794v-1262h1344l94 281h-1094v226h928l86 257h-1014v217h2381q65 0 106 -41t41 -99q0 -59 -41 -100q-42 -42 -109 -42h-1060
v-699h343z" />
    <glyph glyph-name="uniE043" unicode="&#xe043;" horiz-adv-x="3306" 
d="M1592 760h-1014v221h1000l94 281h-1438v-1262h2701q185 0 304 120q117 119 117 284q0 158 -117 277q-114 115 -304 115h-694q-42 0 -74 29q-28 31 -29 66q1 42 29 70q29 29 69 29h937l95 272h-1069q-187 0 -296 -109q-114 -113 -114 -269q0 -160 114 -275t296 -115h728
q45 0 77 -33q32 -32 32 -77t-33 -78t-81 -33h-2344v230h928z" />
    <glyph glyph-name="uniE044" unicode="&#xe044;" horiz-adv-x="3051" 
d="M3056 981l93 281h-2915v-1262h1344l94 281h-1094v226h928l86 257h-1014v217h1578v-981h345v981h555z" />
    <glyph glyph-name="uniE045" unicode="&#xe045;" horiz-adv-x="3313" 
d="M1969 229v-229h1370l95 281h-932l863 752v229h-3079v-1262h1344l94 281h-1094v226h928l86 257h-1014v217h2203z" />
    <glyph glyph-name="uniE046" unicode="&#xe046;" horiz-adv-x="5156" 
d="M3232 764h-1358v-257h1272zM1874 285v-285h1344l94 285h-1438zM596 0h949l93 285h-954q-92 2 -151 52q-59 51 -59 137v318q0 86 58 138q62 53 152 53h3997q65 0 106 -41t41 -99q0 -59 -41 -100q-42 -42 -109 -42h-1060v-701h343v438h656q94 0 152 -52q58 -50 59 -138
v-248h345v233q0 169 -126 292l-27 25q12 10 36 34q117 118 117 283q0 161 -117 278t-306 117h-4154q-214 0 -342 -125q-126 -125 -126 -295v-422q0 -166 127 -293q130 -127 341 -127z" />
    <glyph glyph-name="uniE047" unicode="&#xe047;" horiz-adv-x="3155" 
d="M3055 507l86 257h-1358v-764h1344l94 281h-1094v226h928zM1500 735h-921v246h2548l94 281h-2987v-1262h345v454h827z" />
    <glyph glyph-name="uniE048" unicode="&#xe048;" horiz-adv-x="3415" 
d="M1773 0h343v438h656q94 0 152 -52q58 -50 59 -138v-248h345v233q0 169 -126 292l-27 25q12 10 36 34q117 118 117 283q0 161 -117 278t-306 117h-2671v-1262h345v454h827l94 281h-921v246h2257q65 0 106 -41t41 -99q0 -59 -41 -100q-42 -42 -109 -42h-1060v-699z" />
    <glyph glyph-name="uniE049" unicode="&#xe049;" horiz-adv-x="5121" 
d="M3055 507l86 257h-1358v-764h1344l94 281h-1094v226h928zM3490 699v-699h343v438h656q94 0 152 -52q58 -50 59 -138v-248h345v233q0 169 -126 292l-27 25q12 10 36 34q117 118 117 283q0 161 -117 278t-306 117h-4388v-1262h345v454h827l94 281h-921v246h3974
q65 0 106 -41t41 -99q0 -59 -41 -100q-42 -42 -109 -42h-1060z" />
    <glyph glyph-name="uniE04A" unicode="&#xe04a;" horiz-adv-x="3654" 
d="M3495 764h-1358v-257h1272zM2137 285v-285h1344l94 285h-1438zM1678 987l1804 -1l93 276h-2661h-4h-314q-214 0 -342 -125q-126 -125 -126 -295v-422q0 -166 127 -293q130 -127 341 -127h829q170 3 288 109q118 105 118 255v397h-689l-83 -252h427v-89q0 -73 -31 -104
q-28 -30 -112 -31h-659q-92 2 -151 52q-59 51 -59 137v321q0 86 58 138q59 53 145 53h1001v1z" />
    </font>
</defs>
</svg>
